<svg xmlns="http://www.w3.org/2000/svg" viewBox="0 0 1600 1000" role="img">
<style>
@media (prefers-reduced-motion: no-preference) {
  .anim-idle { animation: idle 3.8s ease-in-out infinite alternate; }
  @keyframes idle { from { transform: translateY(0); } to { transform: translateY(-6px); } }
  .anim-tail { transform-box: fill-box; transform-origin: 100% 20%; animation: tail 2.6s ease-in-out infinite alternate; }
  @keyframes tail { from { transform: rotate(-6deg); } to { transform: rotate(8deg); } }
  .anim-blink { transform-box: fill-box; transform-origin: center; animation: blink 5.2s infinite; }
  @keyframes blink { 0%, 93%, 100% { transform: scaleY(1); } 95%, 97% { transform: scaleY(0.12); } }
  .anim-glow { transform-box: fill-box; transform-origin: center; animation: glow 4.2s ease-in-out infinite alternate; }
  @keyframes glow { from { transform: scale(1); opacity: 0.5; } to { transform: scale(1.08); opacity: 0.75; } }
  .anim-shimmer { animation: shimmer 5s ease-in-out infinite alternate; }
  @keyframes shimmer { from { opacity: 0.62; } to { opacity: 0.92; } }
  .anim-grass { transform-box: fill-box; transform-origin: 50% 100%; animation: sway 3.2s ease-in-out infinite alternate; }
  .anim-canopy { transform-box: fill-box; transform-origin: 50% 100%; animation: sway 5.6s ease-in-out infinite alternate; }
  @keyframes sway { from { transform: rotate(-1.8deg); } to { transform: rotate(2.2deg); } }
  .anim-rain { animation: rainfall 1.15s linear infinite; }
  @keyframes rainfall { from { transform: translateY(-32px); opacity: 0.85; } 75% { opacity: 0.55; } to { transform: translateY(72px); opacity: 0; } }
  .anim-ripple { transform-box: fill-box; transform-origin: center; animation: ripple 3.4s ease-in-out infinite alternate; }
  @keyframes ripple { from { transform: scale(1); opacity: 0.8; } to { transform: scale(1.18); opacity: 0.55; } }
  .anim-drip { animation: drip 1s ease-in infinite; }
  @keyframes drip { from { transform: translateY(-12px); opacity: 0.95; } to { transform: translateY(28px); opacity: 0; } }
  .anim-flow { stroke-dasharray: 26 20; animation: flow 0.8s linear infinite; }
  @keyframes flow { from { stroke-dashoffset: 0; } to { stroke-dashoffset: -46; } }
  .anim-splash { transform-box: fill-box; transform-origin: 50% 100%; animation: splashPulse 1.7s ease-in-out infinite alternate; }
  @keyframes splashPulse { from { transform: scale(0.97); } to { transform: scale(1.05); } }
  .anim-strain { transform-box: fill-box; transform-origin: center; animation: strain 0.9s ease-in-out infinite alternate; }
  @keyframes strain { from { transform: translateX(-5px); } to { transform: translateX(4px); } }
  .anim-float { transform-box: fill-box; transform-origin: center; animation: floaty 2.6s ease-in-out infinite alternate; }
  @keyframes floaty { from { transform: translateY(0) scale(1); } to { transform: translateY(-12px) scale(1.08); } }
  .anim-wave { animation: wave 2.4s ease-in-out infinite; opacity: 0; }
  @keyframes wave { 0% { opacity: 0; } 30% { opacity: 0.9; } 60%, 100% { opacity: 0; } }
  .anim-cloud { animation: cloudDrift 9s ease-in-out infinite alternate; }
  @keyframes cloudDrift { from { transform: translateX(-18px); } to { transform: translateX(22px); } }
  .tap-target { cursor: pointer; }
  .tap-target.tap-play { transform-box: fill-box; transform-origin: 50% 85%; animation: tapWiggle 0.7s ease-in-out; }
  .tap-target[data-tap="puddle"].tap-play { transform-origin: center; animation: tapSplash 0.85s ease-out; }
  .tap-target[data-tap="sun"].tap-play { transform-origin: center; animation: tapPulse 0.6s ease-in-out; }
  .tap-target[data-tap="tree"].tap-play { transform-origin: 50% 100%; animation: tapShake 0.7s ease-in-out; }
  @keyframes tapWiggle { 0% { transform: rotate(0); } 25% { transform: rotate(-4deg) scale(1.03); } 55% { transform: rotate(3deg) scale(1.04); } 80% { transform: rotate(-1.5deg); } 100% { transform: rotate(0); } }
  @keyframes tapSplash { 0% { transform: scale(1); } 40% { transform: scale(1.06, 0.94); } 70% { transform: scale(0.97, 1.03); } 100% { transform: scale(1); } }
  @keyframes tapPulse { 0% { transform: scale(1); } 50% { transform: scale(1.12); } 100% { transform: scale(1); } }
  @keyframes tapShake { 0% { transform: rotate(0); } 20% { transform: rotate(2.4deg); } 45% { transform: rotate(-2deg); } 70% { transform: rotate(1.2deg); } 100% { transform: rotate(0); } }
  .tap-burst { opacity: 0; }
  .tap-target.tap-play .tap-burst { opacity: 1; }
  .tap-target.tap-play .tap-burst circle { animation: burstUp 0.6s ease-out forwards; }
  @keyframes burstUp { from { transform: translateY(0); opacity: 0.95; } to { transform: translateY(-90px); opacity: 0; } }
}
</style>
<defs><linearGradient id="sky" x1="0" y1="0" x2="0" y2="1"><stop offset="0" stop-color="#bfe0f4"/><stop offset="1" stop-color="#eef8fd"/></linearGradient></defs>
    <rect width="1600" height="1000" fill="url(#sky)"/><g class="tap-target" data-tap="sun"><circle class="anim-glow" cx="1350" cy="160" r="120" fill="#fdeebc" opacity="0.6"/><circle cx="1350" cy="160" r="78" fill="#f9d976"/></g><path d="M 0 560 q 260 -110 520 -30 q 300 90 620 -20 q 240 -76 460 10 L 1600 640 L 0 640 Z" fill="#a9c4dd" opacity="0.55"/><rect x="0" y="590" width="1600" height="410" fill="#e7cd7f"/>
    <path d="M 0 720 q 400 -50 800 0 q 400 50 800 0 L 1600 1000 L 0 1000 Z" fill="#d9b45f"/>
    <g class="anim-grass" style="animation-delay:1.00s"><path d="M 120 780 q 6 -34 14 -40 q 2 24 10 38 q 10 -18 18 -22 q -2 22 -8 34 z" fill="#c39c48" opacity="0.8"/></g><g class="anim-grass" style="animation-delay:0.50s"><path d="M 380 860 q 6 -34 14 -40 q 2 24 10 38 q 10 -18 18 -22 q -2 22 -8 34 z" fill="#c39c48" opacity="0.8"/></g><g class="anim-grass" style="animation-delay:2.50s"><path d="M 660 780 q 6 -34 14 -40 q 2 24 10 38 q 10 -18 18 -22 q -2 22 -8 34 z" fill="#c39c48" opacity="0.8"/></g><g class="anim-grass" style="animation-delay:1.50s"><path d="M 940 820 q 6 -34 14 -40 q 2 24 10 38 q 10 -18 18 -22 q -2 22 -8 34 z" fill="#c39c48" opacity="0.8"/></g><g class="anim-grass" style="animation-delay:0.00s"><path d="M 1240 820 q 6 -34 14 -40 q 2 24 10 38 q 10 -18 18 -22 q -2 22 -8 34 z" fill="#c39c48" opacity="0.8"/></g><g class="anim-grass" style="animation-delay:0.00s"><path d="M 1480 820 q 6 -34 14 -40 q 2 24 10 38 q 10 -18 18 -22 q -2 22 -8 34 z" fill="#c39c48" opacity="0.8"/></g><g transform="translate(1210 600) scale(1.45)">
    <g class="tap-target" data-tap="tree">
    <path d="M -8 0 q -4 -70 -30 -110 M 6 0 q 8 -76 40 -116 M 0 -60 q -20 -30 -52 -44 M 2 -66 q 26 -26 58 -36" stroke="#8a6242" stroke-width="14" fill="none" stroke-linecap="round"/>
    <g class="anim-canopy" style="animation-delay:3.67s">
      <ellipse cx="-46" cy="-124" rx="86" ry="30" fill="#6c8b4a"/>
      <ellipse cx="30" cy="-142" rx="110" ry="34" fill="#7fa05a"/>
    </g>
    </g>
  </g><g transform="translate(250 850) scale(0.95)">
    <rect x="-6" y="-150" width="12" height="150" rx="6" fill="#8a6242"/>
    <path d="M -6 -150 q 40 -10 60 8" stroke="#8a6242" stroke-width="10" fill="none" stroke-linecap="round"/>
    <g class="tap-target" data-tap="bell"><g class="anim-tail" style="animation-duration:1.8s">
      <path d="M 54 -138 q -26 4 -26 34 q 0 14 26 14 q 26 0 26 -14 q 0 -30 -26 -34 z" fill="#f9d976" stroke="#2b2b33" stroke-width="4"/>
      <circle cx="54" cy="-84" r="7" fill="#2b2b33"/>
    </g></g>
  </g>
   <g transform="translate(800 690) scale(1.35)">
    <path d="M -80 0 l 26 -132 M 80 0 l -26 -132" stroke="#8a6242" stroke-width="10" stroke-linecap="round"/>
    <rect x="-146" y="-158" width="292" height="152" rx="8" fill="#f6f0d8" stroke="#8a6242" stroke-width="8"/>
    <path d="M -126 -122 h 252" stroke="#e2d9c6" stroke-width="3"/>
    <circle cx="-109" cy="-134" r="7" fill="#e76f51"/><circle cx="-67" cy="-134" r="7" fill="#f4c95d"/><circle cx="-25" cy="-134" r="7" fill="#8ab17d"/><circle cx="17" cy="-134" r="7" fill="#7fa8d9"/><circle cx="59" cy="-134" r="7" fill="#9d82c4"/><circle cx="101" cy="-134" r="7" fill="#e76f51"/><circle cx="143" cy="-134" r="7" fill="#f4c95d"/>
    
    <rect x="-126" y="-96" width="34" height="26" rx="4" fill="#f6f0d8" stroke="#e2d9c6" stroke-width="2"/><path d="M -117 -88 h 16 M -117 -80 h 11" stroke="#9fb4c6" stroke-width="2.4" stroke-linecap="round"/><rect x="-84" y="-96" width="34" height="26" rx="4" fill="#f6f0d8" stroke="#e2d9c6" stroke-width="2"/><path d="M -75 -88 h 16 M -75 -80 h 11" stroke="#9fb4c6" stroke-width="2.4" stroke-linecap="round"/><rect x="-42" y="-96" width="34" height="26" rx="4" fill="#f6f0d8" stroke="#e2d9c6" stroke-width="2"/><path d="M -33 -88 h 16 M -33 -80 h 11" stroke="#9fb4c6" stroke-width="2.4" stroke-linecap="round"/><rect x="0" y="-96" width="34" height="26" rx="4" fill="#f6f0d8" stroke="#e2d9c6" stroke-width="2"/><path d="M 9 -88 h 16 M 9 -80 h 11" stroke="#9fb4c6" stroke-width="2.4" stroke-linecap="round"/><rect x="42" y="-96" width="34" height="26" rx="4" fill="#fbe3df" stroke="#e2d9c6" stroke-width="2"/><path d="M 51 -88 h 16 M 51 -80 h 11" stroke="#9fb4c6" stroke-width="2.4" stroke-linecap="round"/><ellipse cx="59" cy="-83" rx="21" ry="17" fill="none" stroke="#d94f43" stroke-width="4"/><rect x="84" y="-96" width="34" height="26" rx="4" fill="#f6f0d8" stroke="#e2d9c6" stroke-width="2"/><path d="M 93 -88 h 16 M 93 -80 h 11" stroke="#9fb4c6" stroke-width="2.4" stroke-linecap="round"/><rect x="126" y="-96" width="34" height="26" rx="4" fill="#f6f0d8" stroke="#e2d9c6" stroke-width="2"/><path d="M 135 -88 h 16 M 135 -80 h 11" stroke="#9fb4c6" stroke-width="2.4" stroke-linecap="round"/><rect x="-126" y="-62" width="34" height="26" rx="4" fill="#f6f0d8" stroke="#e2d9c6" stroke-width="2"/><path d="M -117 -54 h 16 M -117 -46 h 11" stroke="#9fb4c6" stroke-width="2.4" stroke-linecap="round"/><rect x="-84" y="-62" width="34" height="26" rx="4" fill="#f6f0d8" stroke="#e2d9c6" stroke-width="2"/><path d="M -75 -54 h 16 M -75 -46 h 11" stroke="#9fb4c6" stroke-width="2.4" stroke-linecap="round"/><rect x="-42" y="-62" width="34" height="26" rx="4" fill="#f6f0d8" stroke="#e2d9c6" stroke-width="2"/><path d="M -33 -54 h 16 M -33 -46 h 11" stroke="#9fb4c6" stroke-width="2.4" stroke-linecap="round"/><rect x="0" y="-62" width="34" height="26" rx="4" fill="#f6f0d8" stroke="#e2d9c6" stroke-width="2"/><path d="M 9 -54 h 16 M 9 -46 h 11" stroke="#9fb4c6" stroke-width="2.4" stroke-linecap="round"/><rect x="42" y="-62" width="34" height="26" rx="4" fill="#f6f0d8" stroke="#e2d9c6" stroke-width="2"/><path d="M 51 -54 h 16 M 51 -46 h 11" stroke="#9fb4c6" stroke-width="2.4" stroke-linecap="round"/><rect x="84" y="-62" width="34" height="26" rx="4" fill="#f6f0d8" stroke="#e2d9c6" stroke-width="2"/><path d="M 93 -54 h 16 M 93 -46 h 11" stroke="#9fb4c6" stroke-width="2.4" stroke-linecap="round"/><rect x="126" y="-62" width="34" height="26" rx="4" fill="#f6f0d8" stroke="#e2d9c6" stroke-width="2"/><path d="M 135 -54 h 16 M 135 -46 h 11" stroke="#9fb4c6" stroke-width="2.4" stroke-linecap="round"/><rect x="-126" y="-28" width="34" height="26" rx="4" fill="#f6f0d8" stroke="#e2d9c6" stroke-width="2"/><path d="M -117 -20 h 16 M -117 -12 h 11" stroke="#9fb4c6" stroke-width="2.4" stroke-linecap="round"/><rect x="-84" y="-28" width="34" height="26" rx="4" fill="#f6f0d8" stroke="#e2d9c6" stroke-width="2"/><path d="M -75 -20 h 16 M -75 -12 h 11" stroke="#9fb4c6" stroke-width="2.4" stroke-linecap="round"/><rect x="-42" y="-28" width="34" height="26" rx="4" fill="#f6f0d8" stroke="#e2d9c6" stroke-width="2"/><path d="M -33 -20 h 16 M -33 -12 h 11" stroke="#9fb4c6" stroke-width="2.4" stroke-linecap="round"/><rect x="0" y="-28" width="34" height="26" rx="4" fill="#f6f0d8" stroke="#e2d9c6" stroke-width="2"/><path d="M 9 -20 h 16 M 9 -12 h 11" stroke="#9fb4c6" stroke-width="2.4" stroke-linecap="round"/><rect x="42" y="-28" width="34" height="26" rx="4" fill="#f6f0d8" stroke="#e2d9c6" stroke-width="2"/><path d="M 51 -20 h 16 M 51 -12 h 11" stroke="#9fb4c6" stroke-width="2.4" stroke-linecap="round"/><rect x="84" y="-28" width="34" height="26" rx="4" fill="#f6f0d8" stroke="#e2d9c6" stroke-width="2"/><path d="M 93 -20 h 16 M 93 -12 h 11" stroke="#9fb4c6" stroke-width="2.4" stroke-linecap="round"/><rect x="126" y="-28" width="34" height="26" rx="4" fill="#f6f0d8" stroke="#e2d9c6" stroke-width="2"/><path d="M 135 -20 h 16 M 135 -12 h 11" stroke="#9fb4c6" stroke-width="2.4" stroke-linecap="round"/><rect x="-126" y="6" width="34" height="26" rx="4" fill="#f6f0d8" stroke="#e2d9c6" stroke-width="2"/><path d="M -117 14 h 16 M -117 22 h 11" stroke="#9fb4c6" stroke-width="2.4" stroke-linecap="round"/><rect x="-84" y="6" width="34" height="26" rx="4" fill="#f6f0d8" stroke="#e2d9c6" stroke-width="2"/><path d="M -75 14 h 16 M -75 22 h 11" stroke="#9fb4c6" stroke-width="2.4" stroke-linecap="round"/><rect x="-42" y="6" width="34" height="26" rx="4" fill="#f6f0d8" stroke="#e2d9c6" stroke-width="2"/><path d="M -33 14 h 16 M -33 22 h 11" stroke="#9fb4c6" stroke-width="2.4" stroke-linecap="round"/><rect x="0" y="6" width="34" height="26" rx="4" fill="#f6f0d8" stroke="#e2d9c6" stroke-width="2"/><path d="M 9 14 h 16 M 9 22 h 11" stroke="#9fb4c6" stroke-width="2.4" stroke-linecap="round"/><rect x="42" y="6" width="34" height="26" rx="4" fill="#f6f0d8" stroke="#e2d9c6" stroke-width="2"/><path d="M 51 14 h 16 M 51 22 h 11" stroke="#9fb4c6" stroke-width="2.4" stroke-linecap="round"/><rect x="84" y="6" width="34" height="26" rx="4" fill="#f6f0d8" stroke="#e2d9c6" stroke-width="2"/><path d="M 93 14 h 16 M 93 22 h 11" stroke="#9fb4c6" stroke-width="2.4" stroke-linecap="round"/><rect x="126" y="6" width="34" height="26" rx="4" fill="#f6f0d8" stroke="#e2d9c6" stroke-width="2"/><path d="M 135 14 h 16 M 135 22 h 11" stroke="#9fb4c6" stroke-width="2.4" stroke-linecap="round"/>
  </g>
   <g transform="translate(340 821) scale(2.4 2.4)">
    <ellipse cx="0" cy="56" rx="30" ry="8" fill="#2b2b33" opacity="0.10"/>
    <g class="tap-target" data-tap="zuri" data-mood="happy">
    <g class="anim-idle" style="animation-delay:1.31s">
    <g class="anim-tail" style="animation-delay:1.31s">
    <path d="M -18 30 q -40 12 -34 -26 q 2 -12 11 -9 q -2 22 25 27 z" fill="#c9a06c" stroke="#2b2b33" stroke-width="3.2"/>
    <path d="M -46 -4 q -8 -6 -6 -14 q 8 0 10 12 z" fill="#5a4a3a"/>
  </g>
    <path d="M -20 46 q -6 -44 20 -44 q 26 0 20 44 z" fill="#c9a06c" stroke="#2b2b33" stroke-width="3.6"/>
    <ellipse cx="1" cy="24" rx="12" ry="20" fill="#efe2cb"/>
    <g transform="translate(-17 -8) rotate(8)"><rect x="-4.5" y="0" width="9" height="34" rx="4.5" fill="#c9a06c" stroke="#2b2b33" stroke-width="3"/><circle cx="0" cy="36" r="6" fill="#efe2cb" stroke="#2b2b33" stroke-width="2.6"/></g><g transform="translate(16 -8) rotate(-96)"><rect x="-4.5" y="0" width="9" height="34" rx="4.5" fill="#c9a06c" stroke="#2b2b33" stroke-width="3"/><circle cx="0" cy="36" r="6" fill="#efe2cb" stroke="#2b2b33" stroke-width="2.6"/></g>
    
    <g transform="translate(-10 44)"><rect x="-5" y="0" width="10" height="16" rx="5" fill="#ab8253" stroke="#2b2b33" stroke-width="3"/></g>
    <g transform="translate(11 44)"><rect x="-5" y="0" width="10" height="16" rx="5" fill="#ab8253" stroke="#2b2b33" stroke-width="3"/></g>
    <g transform="translate(0 -24)">
      <circle cx="-19" cy="-13" r="8" fill="#ab8253" stroke="#2b2b33" stroke-width="2.8"/>
      <circle cx="19" cy="-13" r="8" fill="#ab8253" stroke="#2b2b33" stroke-width="2.8"/>
      <circle cx="0" cy="0" r="21" fill="#c9a06c" stroke="#2b2b33" stroke-width="3.6"/>
      <path d="M 14 2 q 20 1 21 11 q -2 10 -19 9 q -13 -2 -15 -10 z" fill="#efe2cb" stroke="#2b2b33" stroke-width="2.8"/>
      <circle cx="31" cy="10" r="3" fill="#2b2b33"/>
      <ellipse cx="-8" cy="-3" rx="9" ry="8" fill="#5a4a3a" opacity="0.9"/>
      <ellipse cx="10" cy="-6" rx="8" ry="7" fill="#5a4a3a" opacity="0.9"/>
      <g transform="translate(-8 -3)"><g class="anim-blink"><circle cx="0" cy="0" r="5.3999999999999995" fill="#6b4a2f"/><circle cx="1.5" cy="-1.7999999999999998" r="1.7999999999999998" fill="#fff"/></g></g>
      <g transform="translate(10 -6)"><g class="anim-blink"><circle cx="0" cy="0" r="4.95" fill="#6b4a2f"/><circle cx="1.375" cy="-1.6500000000000001" r="1.6500000000000001" fill="#fff"/></g></g>
      <g transform="translate(18 16)"><path d="M -5 1 q 5 5 10 0" stroke="#2b2b33" stroke-width="1.5" fill="none" stroke-linecap="round"/></g>
    </g>
    </g>
    </g>
  </g>
   <g transform="translate(1310 836) scale(2.1 2.1)">
    <ellipse cx="0" cy="58" rx="34" ry="8" fill="#2b2b33" opacity="0.10"/>
    <g class="tap-target" data-tap="kiki" data-mood="happy">
    <g class="anim-idle" style="animation-delay:1.47s">
    <g class="anim-tail" style="animation-delay:1.47s">
    <path d="M -24 26 q -38 6 -42 -26 q 0 -12 10 -9 q 2 22 30 25 z" fill="#8f9a86" stroke="#2b2b33" stroke-width="3.4"/>
  </g>
    <ellipse cx="0" cy="18" rx="28" ry="32" fill="#8f9a86" stroke="#2b2b33" stroke-width="3.8"/>
    <ellipse cx="2" cy="26" rx="15" ry="18" fill="#e8dcc8"/>
    <g transform="translate(-18 -6) rotate(20)"><rect x="-5" y="0" width="10" height="40" rx="5" fill="#8f9a86" stroke="#2b2b33" stroke-width="3"/><circle cx="0" cy="42" r="7" fill="#e8dcc8" stroke="#2b2b33" stroke-width="2.6"/></g><g transform="translate(18 -6) rotate(-20)"><rect x="-5" y="0" width="10" height="40" rx="5" fill="#8f9a86" stroke="#2b2b33" stroke-width="3"/><circle cx="0" cy="42" r="7" fill="#e8dcc8" stroke="#2b2b33" stroke-width="2.6"/></g>
    <g transform="translate(-11 44)"><rect x="-5" y="0" width="10" height="20" rx="5" fill="#8f9a86" stroke="#2b2b33" stroke-width="3"/></g>
    <g transform="translate(12 44)"><rect x="-5" y="0" width="10" height="20" rx="5" fill="#8f9a86" stroke="#2b2b33" stroke-width="3"/></g>
    <g transform="translate(0 -22)">
      <circle cx="0" cy="0" r="24" fill="#8f9a86" stroke="#2b2b33" stroke-width="3.8"/>
      <path d="M -24 -8 q -10 -4 -12 4 q 4 8 14 4 z M 24 -8 q 10 -4 12 4 q -4 8 -14 4 z" fill="#e8dcc8" stroke="#2b2b33" stroke-width="2.6"/>
      <ellipse cx="1" cy="7" rx="16" ry="14" fill="#e8dcc8"/>
      <circle cx="-21" cy="-4" r="8" fill="#8f9a86" stroke="#2b2b33" stroke-width="3"/>
      <circle cx="21" cy="-4" r="8" fill="#8f9a86" stroke="#2b2b33" stroke-width="3"/>
      <path d="M -8 -22 q -2 -12 6 -14 q 8 0 6 12 M 4 -23 q 4 -10 10 -8 q 6 4 0 12" fill="#8f9a86" stroke="#2b2b33" stroke-width="2.6"/>
      <g transform="translate(1 -1)"><g class="anim-blink"><circle cx="0" cy="0" r="6.4799999999999995" fill="#6b4a2f"/><circle cx="1.7999999999999998" cy="-2.16" r="2.16" fill="#fff"/></g></g>
      <g transform="translate(1 9)"><path d="M -6 1.2 q 6 6 12 0" stroke="#2b2b33" stroke-width="1.7999999999999998" fill="none" stroke-linecap="round"/></g>
    </g>
    </g>
    </g>
  </g>
</svg>
