<svg xmlns="http://www.w3.org/2000/svg" viewBox="0 0 1600 1000" role="img">
<style>
@media (prefers-reduced-motion: no-preference) {
  .anim-idle { animation: idle 3.8s ease-in-out infinite alternate; }
  @keyframes idle { from { transform: translateY(0); } to { transform: translateY(-6px); } }
  .anim-tail { transform-box: fill-box; transform-origin: 100% 20%; animation: tail 2.6s ease-in-out infinite alternate; }
  @keyframes tail { from { transform: rotate(-6deg); } to { transform: rotate(8deg); } }
  .anim-blink { transform-box: fill-box; transform-origin: center; animation: blink 5.2s infinite; }
  @keyframes blink { 0%, 93%, 100% { transform: scaleY(1); } 95%, 97% { transform: scaleY(0.12); } }
  .anim-glow { transform-box: fill-box; transform-origin: center; animation: glow 4.2s ease-in-out infinite alternate; }
  @keyframes glow { from { transform: scale(1); opacity: 0.5; } to { transform: scale(1.08); opacity: 0.75; } }
  .anim-shimmer { animation: shimmer 5s ease-in-out infinite alternate; }
  @keyframes shimmer { from { opacity: 0.62; } to { opacity: 0.92; } }
  .anim-grass { transform-box: fill-box; transform-origin: 50% 100%; animation: sway 3.2s ease-in-out infinite alternate; }
  .anim-canopy { transform-box: fill-box; transform-origin: 50% 100%; animation: sway 5.6s ease-in-out infinite alternate; }
  @keyframes sway { from { transform: rotate(-1.8deg); } to { transform: rotate(2.2deg); } }
  .anim-rain { animation: rainfall 1.15s linear infinite; }
  @keyframes rainfall { from { transform: translateY(-32px); opacity: 0.85; } 75% { opacity: 0.55; } to { transform: translateY(72px); opacity: 0; } }
  .anim-ripple { transform-box: fill-box; transform-origin: center; animation: ripple 3.4s ease-in-out infinite alternate; }
  @keyframes ripple { from { transform: scale(1); opacity: 0.8; } to { transform: scale(1.18); opacity: 0.55; } }
  .anim-drip { animation: drip 1s ease-in infinite; }
  @keyframes drip { from { transform: translateY(-12px); opacity: 0.95; } to { transform: translateY(28px); opacity: 0; } }
  .anim-flow { stroke-dasharray: 26 20; animation: flow 0.8s linear infinite; }
  @keyframes flow { from { stroke-dashoffset: 0; } to { stroke-dashoffset: -46; } }
  .anim-splash { transform-box: fill-box; transform-origin: 50% 100%; animation: splashPulse 1.7s ease-in-out infinite alternate; }
  @keyframes splashPulse { from { transform: scale(0.97); } to { transform: scale(1.05); } }
  .anim-strain { transform-box: fill-box; transform-origin: center; animation: strain 0.9s ease-in-out infinite alternate; }
  @keyframes strain { from { transform: translateX(-5px); } to { transform: translateX(4px); } }
  .anim-float { transform-box: fill-box; transform-origin: center; animation: floaty 2.6s ease-in-out infinite alternate; }
  @keyframes floaty { from { transform: translateY(0) scale(1); } to { transform: translateY(-12px) scale(1.08); } }
  .anim-wave { animation: wave 2.4s ease-in-out infinite; opacity: 0; }
  @keyframes wave { 0% { opacity: 0; } 30% { opacity: 0.9; } 60%, 100% { opacity: 0; } }
  .anim-cloud { animation: cloudDrift 9s ease-in-out infinite alternate; }
  @keyframes cloudDrift { from { transform: translateX(-18px); } to { transform: translateX(22px); } }
  .tap-target { cursor: pointer; }
  .tap-target.tap-play { transform-box: fill-box; transform-origin: 50% 85%; animation: tapWiggle 0.7s ease-in-out; }
  .tap-target[data-tap="puddle"].tap-play { transform-origin: center; animation: tapSplash 0.85s ease-out; }
  .tap-target[data-tap="sun"].tap-play { transform-origin: center; animation: tapPulse 0.6s ease-in-out; }
  .tap-target[data-tap="tree"].tap-play { transform-origin: 50% 100%; animation: tapShake 0.7s ease-in-out; }
  @keyframes tapWiggle { 0% { transform: rotate(0); } 25% { transform: rotate(-4deg) scale(1.03); } 55% { transform: rotate(3deg) scale(1.04); } 80% { transform: rotate(-1.5deg); } 100% { transform: rotate(0); } }
  @keyframes tapSplash { 0% { transform: scale(1); } 40% { transform: scale(1.06, 0.94); } 70% { transform: scale(0.97, 1.03); } 100% { transform: scale(1); } }
  @keyframes tapPulse { 0% { transform: scale(1); } 50% { transform: scale(1.12); } 100% { transform: scale(1); } }
  @keyframes tapShake { 0% { transform: rotate(0); } 20% { transform: rotate(2.4deg); } 45% { transform: rotate(-2deg); } 70% { transform: rotate(1.2deg); } 100% { transform: rotate(0); } }
  .tap-burst { opacity: 0; }
  .tap-target.tap-play .tap-burst { opacity: 1; }
  .tap-target.tap-play .tap-burst circle { animation: burstUp 0.6s ease-out forwards; }
  @keyframes burstUp { from { transform: translateY(0); opacity: 0.95; } to { transform: translateY(-90px); opacity: 0; } }
}
</style>
<defs><linearGradient id="sky" x1="0" y1="0" x2="0" y2="1"><stop offset="0" stop-color="#9fb4c6"/><stop offset="1" stop-color="#d7e2ea"/></linearGradient></defs>
    <rect width="1600" height="1000" fill="url(#sky)"/><path d="M 0 560 q 260 -110 520 -30 q 300 90 620 -20 q 240 -76 460 10 L 1600 640 L 0 640 Z" fill="#a9c4dd" opacity="0.55"/>
    <rect x="0" y="590" width="1600" height="410" fill="#e7cd7f"/>
    <path d="M 0 700 q 400 -34 800 0 q 400 34 800 0 L 1600 1000 L 0 1000 Z" fill="#c9bda8"/>
    <path d="M 0 700 q 400 -34 800 0 q 400 34 800 0" stroke="#e2d9c6" stroke-width="12" fill="none"/>
    <path d="M 0 848 q 400 -30 800 0 q 400 30 800 0" stroke="#b3a68f" stroke-width="7" stroke-dasharray="58 44" fill="none" opacity="0.7"/><line class="anim-rain" style="animation-delay:0.00s" x1="0" y1="40" x2="-10" y2="74" stroke="#7d97ad" stroke-width="5" stroke-linecap="round" opacity="0.7"/><line class="anim-rain" style="animation-delay:0.09s" x1="137" y1="251" x2="127" y2="285" stroke="#7d97ad" stroke-width="5" stroke-linecap="round" opacity="0.7"/><line class="anim-rain" style="animation-delay:0.18s" x1="274" y1="462" x2="264" y2="496" stroke="#7d97ad" stroke-width="5" stroke-linecap="round" opacity="0.7"/><line class="anim-rain" style="animation-delay:0.27s" x1="411" y1="153" x2="401" y2="187" stroke="#7d97ad" stroke-width="5" stroke-linecap="round" opacity="0.7"/><line class="anim-rain" style="animation-delay:0.35s" x1="548" y1="364" x2="538" y2="398" stroke="#7d97ad" stroke-width="5" stroke-linecap="round" opacity="0.7"/><line class="anim-rain" style="animation-delay:0.44s" x1="685" y1="55" x2="675" y2="89" stroke="#7d97ad" stroke-width="5" stroke-linecap="round" opacity="0.7"/><line class="anim-rain" style="animation-delay:0.53s" x1="822" y1="266" x2="812" y2="300" stroke="#7d97ad" stroke-width="5" stroke-linecap="round" opacity="0.7"/><line class="anim-rain" style="animation-delay:0.62s" x1="959" y1="477" x2="949" y2="511" stroke="#7d97ad" stroke-width="5" stroke-linecap="round" opacity="0.7"/><line class="anim-rain" style="animation-delay:0.71s" x1="1096" y1="168" x2="1086" y2="202" stroke="#7d97ad" stroke-width="5" stroke-linecap="round" opacity="0.7"/><line class="anim-rain" style="animation-delay:0.80s" x1="1233" y1="379" x2="1223" y2="413" stroke="#7d97ad" stroke-width="5" stroke-linecap="round" opacity="0.7"/><line class="anim-rain" style="animation-delay:0.88s" x1="1370" y1="70" x2="1360" y2="104" stroke="#7d97ad" stroke-width="5" stroke-linecap="round" opacity="0.7"/><line class="anim-rain" style="animation-delay:0.97s" x1="1507" y1="281" x2="1497" y2="315" stroke="#7d97ad" stroke-width="5" stroke-linecap="round" opacity="0.7"/><line class="anim-rain" style="animation-delay:1.06s" x1="44" y1="492" x2="34" y2="526" stroke="#7d97ad" stroke-width="5" stroke-linecap="round" opacity="0.7"/><line class="anim-rain" style="animation-delay:0.00s" x1="181" y1="183" x2="171" y2="217" stroke="#7d97ad" stroke-width="5" stroke-linecap="round" opacity="0.7"/><line class="anim-rain" style="animation-delay:0.09s" x1="318" y1="394" x2="308" y2="428" stroke="#7d97ad" stroke-width="5" stroke-linecap="round" opacity="0.7"/><line class="anim-rain" style="animation-delay:0.18s" x1="455" y1="85" x2="445" y2="119" stroke="#7d97ad" stroke-width="5" stroke-linecap="round" opacity="0.7"/><line class="anim-rain" style="animation-delay:0.27s" x1="592" y1="296" x2="582" y2="330" stroke="#7d97ad" stroke-width="5" stroke-linecap="round" opacity="0.7"/><line class="anim-rain" style="animation-delay:0.35s" x1="729" y1="507" x2="719" y2="541" stroke="#7d97ad" stroke-width="5" stroke-linecap="round" opacity="0.7"/><line class="anim-rain" style="animation-delay:0.44s" x1="866" y1="198" x2="856" y2="232" stroke="#7d97ad" stroke-width="5" stroke-linecap="round" opacity="0.7"/><line class="anim-rain" style="animation-delay:0.53s" x1="1003" y1="409" x2="993" y2="443" stroke="#7d97ad" stroke-width="5" stroke-linecap="round" opacity="0.7"/><line class="anim-rain" style="animation-delay:0.62s" x1="1140" y1="100" x2="1130" y2="134" stroke="#7d97ad" stroke-width="5" stroke-linecap="round" opacity="0.7"/><line class="anim-rain" style="animation-delay:0.71s" x1="1277" y1="311" x2="1267" y2="345" stroke="#7d97ad" stroke-width="5" stroke-linecap="round" opacity="0.7"/><line class="anim-rain" style="animation-delay:0.80s" x1="1414" y1="522" x2="1404" y2="556" stroke="#7d97ad" stroke-width="5" stroke-linecap="round" opacity="0.7"/><line class="anim-rain" style="animation-delay:0.88s" x1="1551" y1="213" x2="1541" y2="247" stroke="#7d97ad" stroke-width="5" stroke-linecap="round" opacity="0.7"/><line class="anim-rain" style="animation-delay:0.97s" x1="88" y1="424" x2="78" y2="458" stroke="#7d97ad" stroke-width="5" stroke-linecap="round" opacity="0.7"/><line class="anim-rain" style="animation-delay:1.06s" x1="225" y1="115" x2="215" y2="149" stroke="#7d97ad" stroke-width="5" stroke-linecap="round" opacity="0.7"/><line class="anim-rain" style="animation-delay:0.00s" x1="362" y1="326" x2="352" y2="360" stroke="#7d97ad" stroke-width="5" stroke-linecap="round" opacity="0.7"/><line class="anim-rain" style="animation-delay:0.09s" x1="499" y1="537" x2="489" y2="571" stroke="#7d97ad" stroke-width="5" stroke-linecap="round" opacity="0.7"/><line class="anim-rain" style="animation-delay:0.18s" x1="636" y1="228" x2="626" y2="262" stroke="#7d97ad" stroke-width="5" stroke-linecap="round" opacity="0.7"/><line class="anim-rain" style="animation-delay:0.27s" x1="773" y1="439" x2="763" y2="473" stroke="#7d97ad" stroke-width="5" stroke-linecap="round" opacity="0.7"/><line class="anim-rain" style="animation-delay:0.35s" x1="910" y1="130" x2="900" y2="164" stroke="#7d97ad" stroke-width="5" stroke-linecap="round" opacity="0.7"/><line class="anim-rain" style="animation-delay:0.44s" x1="1047" y1="341" x2="1037" y2="375" stroke="#7d97ad" stroke-width="5" stroke-linecap="round" opacity="0.7"/><line class="anim-rain" style="animation-delay:0.53s" x1="1184" y1="552" x2="1174" y2="586" stroke="#7d97ad" stroke-width="5" stroke-linecap="round" opacity="0.7"/><line class="anim-rain" style="animation-delay:0.62s" x1="1321" y1="243" x2="1311" y2="277" stroke="#7d97ad" stroke-width="5" stroke-linecap="round" opacity="0.7"/><line class="anim-rain" style="animation-delay:0.71s" x1="1458" y1="454" x2="1448" y2="488" stroke="#7d97ad" stroke-width="5" stroke-linecap="round" opacity="0.7"/><line class="anim-rain" style="animation-delay:0.80s" x1="1595" y1="145" x2="1585" y2="179" stroke="#7d97ad" stroke-width="5" stroke-linecap="round" opacity="0.7"/><line class="anim-rain" style="animation-delay:0.88s" x1="132" y1="356" x2="122" y2="390" stroke="#7d97ad" stroke-width="5" stroke-linecap="round" opacity="0.7"/><line class="anim-rain" style="animation-delay:0.97s" x1="269" y1="47" x2="259" y2="81" stroke="#7d97ad" stroke-width="5" stroke-linecap="round" opacity="0.7"/><line class="anim-rain" style="animation-delay:1.06s" x1="406" y1="258" x2="396" y2="292" stroke="#7d97ad" stroke-width="5" stroke-linecap="round" opacity="0.7"/><line class="anim-rain" style="animation-delay:0.00s" x1="543" y1="469" x2="533" y2="503" stroke="#7d97ad" stroke-width="5" stroke-linecap="round" opacity="0.7"/><line class="anim-rain" style="animation-delay:0.09s" x1="680" y1="160" x2="670" y2="194" stroke="#7d97ad" stroke-width="5" stroke-linecap="round" opacity="0.7"/><line class="anim-rain" style="animation-delay:0.18s" x1="817" y1="371" x2="807" y2="405" stroke="#7d97ad" stroke-width="5" stroke-linecap="round" opacity="0.7"/><line class="anim-rain" style="animation-delay:0.27s" x1="954" y1="62" x2="944" y2="96" stroke="#7d97ad" stroke-width="5" stroke-linecap="round" opacity="0.7"/><line class="anim-rain" style="animation-delay:0.35s" x1="1091" y1="273" x2="1081" y2="307" stroke="#7d97ad" stroke-width="5" stroke-linecap="round" opacity="0.7"/><line class="anim-rain" style="animation-delay:0.44s" x1="1228" y1="484" x2="1218" y2="518" stroke="#7d97ad" stroke-width="5" stroke-linecap="round" opacity="0.7"/><line class="anim-rain" style="animation-delay:0.53s" x1="1365" y1="175" x2="1355" y2="209" stroke="#7d97ad" stroke-width="5" stroke-linecap="round" opacity="0.7"/><line class="anim-rain" style="animation-delay:0.62s" x1="1502" y1="386" x2="1492" y2="420" stroke="#7d97ad" stroke-width="5" stroke-linecap="round" opacity="0.7"/><line class="anim-rain" style="animation-delay:0.71s" x1="39" y1="77" x2="29" y2="111" stroke="#7d97ad" stroke-width="5" stroke-linecap="round" opacity="0.7"/><line class="anim-rain" style="animation-delay:0.80s" x1="176" y1="288" x2="166" y2="322" stroke="#7d97ad" stroke-width="5" stroke-linecap="round" opacity="0.7"/><line class="anim-rain" style="animation-delay:0.88s" x1="313" y1="499" x2="303" y2="533" stroke="#7d97ad" stroke-width="5" stroke-linecap="round" opacity="0.7"/><line class="anim-rain" style="animation-delay:0.97s" x1="450" y1="190" x2="440" y2="224" stroke="#7d97ad" stroke-width="5" stroke-linecap="round" opacity="0.7"/><line class="anim-rain" style="animation-delay:1.06s" x1="587" y1="401" x2="577" y2="435" stroke="#7d97ad" stroke-width="5" stroke-linecap="round" opacity="0.7"/><line class="anim-rain" style="animation-delay:0.00s" x1="724" y1="92" x2="714" y2="126" stroke="#7d97ad" stroke-width="5" stroke-linecap="round" opacity="0.7"/><line class="anim-rain" style="animation-delay:0.09s" x1="861" y1="303" x2="851" y2="337" stroke="#7d97ad" stroke-width="5" stroke-linecap="round" opacity="0.7"/><line class="anim-rain" style="animation-delay:0.18s" x1="998" y1="514" x2="988" y2="548" stroke="#7d97ad" stroke-width="5" stroke-linecap="round" opacity="0.7"/><line class="anim-rain" style="animation-delay:0.27s" x1="1135" y1="205" x2="1125" y2="239" stroke="#7d97ad" stroke-width="5" stroke-linecap="round" opacity="0.7"/><line class="anim-rain" style="animation-delay:0.35s" x1="1272" y1="416" x2="1262" y2="450" stroke="#7d97ad" stroke-width="5" stroke-linecap="round" opacity="0.7"/><line class="anim-rain" style="animation-delay:0.44s" x1="1409" y1="107" x2="1399" y2="141" stroke="#7d97ad" stroke-width="5" stroke-linecap="round" opacity="0.7"/><line class="anim-rain" style="animation-delay:0.53s" x1="1546" y1="318" x2="1536" y2="352" stroke="#7d97ad" stroke-width="5" stroke-linecap="round" opacity="0.7"/><line class="anim-rain" style="animation-delay:0.62s" x1="83" y1="529" x2="73" y2="563" stroke="#7d97ad" stroke-width="5" stroke-linecap="round" opacity="0.7"/><g transform="translate(1180 890) scale(1.1)">
    <rect x="-200" y="-250" width="400" height="250" rx="6" fill="#e6d7bd" stroke="#2b2b33" stroke-width="5"/>
    <path d="M -230 -250 h 460 l -26 -46 h -408 z" fill="#c98f6a" stroke="#2b2b33" stroke-width="4.5"/>
    <rect x="-170" y="-250" width="40" height="250" rx="8" fill="#f0e4d2" stroke="#2b2b33" stroke-width="4"/><rect x="-70" y="-250" width="40" height="250" rx="8" fill="#f0e4d2" stroke="#2b2b33" stroke-width="4"/><rect x="30" y="-250" width="40" height="250" rx="8" fill="#f0e4d2" stroke="#2b2b33" stroke-width="4"/><rect x="130" y="-250" width="40" height="250" rx="8" fill="#f0e4d2" stroke="#2b2b33" stroke-width="4"/>
    <rect x="-56" y="-140" width="112" height="140" rx="5" fill="#7d4a32" stroke="#2b2b33" stroke-width="4.5"/>
    <path d="M 0 -140 v 140" stroke="#5f3826" stroke-width="4"/>
    <rect x="-150" y="-336" width="300" height="46" rx="8" fill="#3d5245" stroke="#2b2b33" stroke-width="4.5"/>
    <path d="M -122 -312 h 60 M -48 -312 h 40 M 6 -312 h 52 M 72 -312 h 46" stroke="#f6f0d8" stroke-width="6" stroke-linecap="round"/>
    <g transform="translate(0 -300) scale(0.5)"><g transform="translate(0 0) scale(1)">
    <path d="M 0 -46 q -52 -16 -96 -6 l 0 92 q 46 -10 96 6 z" fill="#f6f0d8" stroke="#2b2b33" stroke-width="3.6"/>
    <path d="M 0 -46 q 52 -16 96 -6 l 0 92 q -46 -10 -96 6 z" fill="#f6f0d8" stroke="#2b2b33" stroke-width="3.6"/>
    <path d="M -16 -30 h -66" stroke="#9fb4c6" stroke-width="3" stroke-linecap="round"/><path d="M -16 -13 h -66" stroke="#9fb4c6" stroke-width="3" stroke-linecap="round"/><path d="M -16 4 h -66" stroke="#9fb4c6" stroke-width="3" stroke-linecap="round"/><path d="M -16 21 h -66" stroke="#9fb4c6" stroke-width="3" stroke-linecap="round"/><path d="M 16 -30 h 66" stroke="#9fb4c6" stroke-width="3" stroke-linecap="round"/><path d="M 16 -13 h 66" stroke="#9fb4c6" stroke-width="3" stroke-linecap="round"/><path d="M 16 4 h 66" stroke="#9fb4c6" stroke-width="3" stroke-linecap="round"/><path d="M 16 21 h 66" stroke="#9fb4c6" stroke-width="3" stroke-linecap="round"/>
    
    <path d="M 0 -46 v 92" stroke="#e2d9c6" stroke-width="4"/>
  </g></g>
  </g>
   <g transform="translate(640 890) scale(2.0916 2.0916)">
    <ellipse cx="0" cy="2" rx="52" ry="12" fill="#2b2b33" opacity="0.10"/>
    <g class="tap-target" data-figure="yasmin" data-tap="yasmin" data-mood="happy">
    <g class="anim-idle" style="animation-delay:1.65s">
    <rect x="-31" y="-62" width="24" height="58" rx="9" fill="#2f8f86" stroke="#2b2b33" stroke-width="3.4"/><rect x="7" y="-62" width="24" height="58" rx="9" fill="#2f8f86" stroke="#2b2b33" stroke-width="3.4"/>
    <path d="M -34 -4 q 0 -13 15 -13 q 15 0 15 13 q 0 7 -15 7 q -15 0 -15 -7 z" fill="#4a3a2c" stroke="#2b2b33" stroke-width="3"/><path d="M 4 -4 q 0 -13 15 -13 q 15 0 15 13 q 0 7 -15 7 q -15 0 -15 -7 z" fill="#4a3a2c" stroke="#2b2b33" stroke-width="3"/>
    <path d="M -38 -4 q 38 -14 76 0 l 12 -100 q -50 -16 -100 0 z" fill="#2f8f86" stroke="#2b2b33" stroke-width="3.6"/>
    <path d="M -34 -60 q 34 -12 68 0 l -4 -74 q -30 -10 -60 0 z" fill="#f3ecdd" stroke="#2b2b33" stroke-width="3.6"/>
    
    <path d="M -33 -60 l -5 -72 l 15 -2 l 6 72 z M 33 -60 l 5 -72 l -15 -2 l -6 72 z" fill="#e8705c" stroke="#2b2b33" stroke-width="3"/>
    
    <g transform="translate(-32 -122) rotate(16)">
    <rect x="-9" y="0" width="18" height="50" rx="9" fill="#e8705c" stroke="#2b2b33" stroke-width="3.4"/>
    <circle cx="0" cy="57" r="10" fill="#8a5a37" stroke="#2b2b33" stroke-width="3"/>
  </g><g transform="translate(32 -122) rotate(-104)">
    <rect x="-9" y="0" width="18" height="54" rx="9" fill="#e8705c" stroke="#2b2b33" stroke-width="3.4"/>
    <circle cx="0" cy="61" r="10" fill="#8a5a37" stroke="#2b2b33" stroke-width="3"/>
  </g>
    
    <g transform="translate(0 -156)">
    <path d="M -38 48 q -14 -54 -6 -86 a 36 36 0 0 1 88 0 q 8 32 -6 86 q -38 12 -76 0 z" fill="#226b64"/>
    <path d="M -34 -4 a 34 34 0 0 1 68 0 q -4 -46 -34 -46 q -30 0 -34 46 z" fill="#2f8f86"/>
    <path d="M -36 26 q -8 -34 2 -56 q -12 30 -8 58 z" fill="#2f8f86" opacity="0.55"/>
    <path d="M -34 -4 a 34 34 0 0 1 68 0 l 0 9 q -34 -21 -68 0 z" fill="#2f8f86"/>
    <circle cx="0" cy="0" r="30" fill="#8a5a37" stroke="#2b2b33" stroke-width="3.6"/>
    
    <path d="M -30 2 a 30 30 0 0 0 60 0" fill="none"/>
    <g transform="translate(-12 -2)"><g class="anim-blink"><circle cx="0" cy="0" r="7.0200000000000005" fill="#6b4a2f"/><circle cx="1.9500000000000002" cy="-2.34" r="2.34" fill="#fff"/></g></g>
    <g transform="translate(12 -2)"><g class="anim-blink"><circle cx="0" cy="0" r="7.0200000000000005" fill="#6b4a2f"/><circle cx="1.9500000000000002" cy="-2.34" r="2.34" fill="#fff"/></g></g>
    <path d="M -20 -12 q 8 -6 15 -2 M 20 -12 q -8 -6 -15 -2" stroke="#6f4629" stroke-width="3.4" fill="none" stroke-linecap="round"/>
    <g transform="translate(0 14)"><path d="M -8 1.6 q 8 8 16 0" stroke="#2b2b33" stroke-width="2.4000000000000004" fill="none" stroke-linecap="round"/></g>
    <ellipse cx="-22" cy="6" rx="5" ry="4" fill="#e8705c" opacity="0.30"/>
    <ellipse cx="22" cy="6" rx="5" ry="4" fill="#e8705c" opacity="0.30"/>
    
  </g>
    </g>
    </g>
  </g>
</svg>
