<svg xmlns="http://www.w3.org/2000/svg" viewBox="0 0 1600 1000" role="img">
<style>
@media (prefers-reduced-motion: no-preference) {
  .anim-idle { animation: idle 3.8s ease-in-out infinite alternate; }
  @keyframes idle { from { transform: translateY(0); } to { transform: translateY(-6px); } }
  .anim-tail { transform-box: fill-box; transform-origin: 100% 20%; animation: tail 2.6s ease-in-out infinite alternate; }
  @keyframes tail { from { transform: rotate(-6deg); } to { transform: rotate(8deg); } }
  .anim-blink { transform-box: fill-box; transform-origin: center; animation: blink 5.2s infinite; }
  @keyframes blink { 0%, 93%, 100% { transform: scaleY(1); } 95%, 97% { transform: scaleY(0.12); } }
  .anim-glow { transform-box: fill-box; transform-origin: center; animation: glow 4.2s ease-in-out infinite alternate; }
  @keyframes glow { from { transform: scale(1); opacity: 0.5; } to { transform: scale(1.08); opacity: 0.75; } }
  .anim-shimmer { animation: shimmer 5s ease-in-out infinite alternate; }
  @keyframes shimmer { from { opacity: 0.62; } to { opacity: 0.92; } }
  .anim-grass { transform-box: fill-box; transform-origin: 50% 100%; animation: sway 3.2s ease-in-out infinite alternate; }
  .anim-canopy { transform-box: fill-box; transform-origin: 50% 100%; animation: sway 5.6s ease-in-out infinite alternate; }
  @keyframes sway { from { transform: rotate(-1.8deg); } to { transform: rotate(2.2deg); } }
  .anim-rain { animation: rainfall 1.15s linear infinite; }
  @keyframes rainfall { from { transform: translateY(-32px); opacity: 0.85; } 75% { opacity: 0.55; } to { transform: translateY(72px); opacity: 0; } }
  .anim-ripple { transform-box: fill-box; transform-origin: center; animation: ripple 3.4s ease-in-out infinite alternate; }
  @keyframes ripple { from { transform: scale(1); opacity: 0.8; } to { transform: scale(1.18); opacity: 0.55; } }
  .anim-drip { animation: drip 1s ease-in infinite; }
  @keyframes drip { from { transform: translateY(-12px); opacity: 0.95; } to { transform: translateY(28px); opacity: 0; } }
  .anim-flow { stroke-dasharray: 26 20; animation: flow 0.8s linear infinite; }
  @keyframes flow { from { stroke-dashoffset: 0; } to { stroke-dashoffset: -46; } }
  .anim-splash { transform-box: fill-box; transform-origin: 50% 100%; animation: splashPulse 1.7s ease-in-out infinite alternate; }
  @keyframes splashPulse { from { transform: scale(0.97); } to { transform: scale(1.05); } }
  .anim-strain { transform-box: fill-box; transform-origin: center; animation: strain 0.9s ease-in-out infinite alternate; }
  @keyframes strain { from { transform: translateX(-5px); } to { transform: translateX(4px); } }
  .anim-float { transform-box: fill-box; transform-origin: center; animation: floaty 2.6s ease-in-out infinite alternate; }
  @keyframes floaty { from { transform: translateY(0) scale(1); } to { transform: translateY(-12px) scale(1.08); } }
  .anim-wave { animation: wave 2.4s ease-in-out infinite; opacity: 0; }
  @keyframes wave { 0% { opacity: 0; } 30% { opacity: 0.9; } 60%, 100% { opacity: 0; } }
  .anim-cloud { animation: cloudDrift 9s ease-in-out infinite alternate; }
  @keyframes cloudDrift { from { transform: translateX(-18px); } to { transform: translateX(22px); } }
  .tap-target { cursor: pointer; }
  .tap-target.tap-play { transform-box: fill-box; transform-origin: 50% 85%; animation: tapWiggle 0.7s ease-in-out; }
  .tap-target[data-tap="puddle"].tap-play { transform-origin: center; animation: tapSplash 0.85s ease-out; }
  .tap-target[data-tap="sun"].tap-play { transform-origin: center; animation: tapPulse 0.6s ease-in-out; }
  .tap-target[data-tap="tree"].tap-play { transform-origin: 50% 100%; animation: tapShake 0.7s ease-in-out; }
  @keyframes tapWiggle { 0% { transform: rotate(0); } 25% { transform: rotate(-4deg) scale(1.03); } 55% { transform: rotate(3deg) scale(1.04); } 80% { transform: rotate(-1.5deg); } 100% { transform: rotate(0); } }
  @keyframes tapSplash { 0% { transform: scale(1); } 40% { transform: scale(1.06, 0.94); } 70% { transform: scale(0.97, 1.03); } 100% { transform: scale(1); } }
  @keyframes tapPulse { 0% { transform: scale(1); } 50% { transform: scale(1.12); } 100% { transform: scale(1); } }
  @keyframes tapShake { 0% { transform: rotate(0); } 20% { transform: rotate(2.4deg); } 45% { transform: rotate(-2deg); } 70% { transform: rotate(1.2deg); } 100% { transform: rotate(0); } }
  .tap-burst { opacity: 0; }
  .tap-target.tap-play .tap-burst { opacity: 1; }
  .tap-target.tap-play .tap-burst circle { animation: burstUp 0.6s ease-out forwards; }
  @keyframes burstUp { from { transform: translateY(0); opacity: 0.95; } to { transform: translateY(-90px); opacity: 0; } }
}
</style>
<defs><linearGradient id="sky" x1="0" y1="0" x2="0" y2="1"><stop offset="0" stop-color="#bfe0f4"/><stop offset="1" stop-color="#eef8fd"/></linearGradient></defs>
    <rect width="1600" height="1000" fill="url(#sky)"/><g class="tap-target" data-tap="sun"><circle class="anim-glow" cx="1330" cy="150" r="120" fill="#fdeebc" opacity="0.6"/><circle cx="1330" cy="150" r="78" fill="#f9d976"/></g>
    <rect x="0" y="470" width="1600" height="220" fill="#3f8fae"/>
    <path d="M 0 470 h 1600" stroke="#7fc2d6" stroke-width="8"/>
    <path class="anim-flow" d="M 0 520 h 1600" stroke="#7fc2d6" stroke-width="7" opacity="0.6" stroke-dasharray="70 50"/><path class="anim-flow" d="M 0 570 h 1600" stroke="#7fc2d6" stroke-width="6" opacity="0.48" stroke-dasharray="100 70"/><path class="anim-flow" d="M 0 620 h 1600" stroke="#7fc2d6" stroke-width="5" opacity="0.36" stroke-dasharray="130 90"/>
    <path d="M 0 690 q 400 -40 800 -8 q 400 32 800 -6 L 1600 1000 L 0 1000 Z" fill="#e8d5a8"/>
    <path d="M 0 690 q 400 -40 800 -8 q 400 32 800 -6" stroke="#f4e8cd" stroke-width="12" fill="none"/><g transform="translate(1200 640) scale(1 1)"><g class="anim-idle" style="animation-duration:3.4s">
    <path d="M -220 0 q 220 46 440 0 l -40 66 q -180 26 -360 0 z" fill="#f6f0d8" stroke="#2b2b33" stroke-width="5"/>
    <rect x="-170" y="-92" width="330" height="92" rx="8" fill="#e6d7bd" stroke="#2b2b33" stroke-width="4.5"/>
    <rect x="-140" y="-70" width="44" height="40" rx="5" fill="#bfe0f4" stroke="#2b2b33" stroke-width="3.4"/><rect x="-76" y="-70" width="44" height="40" rx="5" fill="#bfe0f4" stroke="#2b2b33" stroke-width="3.4"/><rect x="-12" y="-70" width="44" height="40" rx="5" fill="#bfe0f4" stroke="#2b2b33" stroke-width="3.4"/><rect x="52" y="-70" width="44" height="40" rx="5" fill="#bfe0f4" stroke="#2b2b33" stroke-width="3.4"/><rect x="116" y="-70" width="44" height="40" rx="5" fill="#bfe0f4" stroke="#2b2b33" stroke-width="3.4"/>
    <rect x="-70" y="-166" width="150" height="74" rx="8" fill="#f6f0d8" stroke="#2b2b33" stroke-width="4.5"/>
    <rect x="-46" y="-148" width="102" height="42" rx="5" fill="#bfe0f4" stroke="#2b2b33" stroke-width="3.4"/>
    <rect x="106" y="-206" width="34" height="114" rx="8" fill="#e76f51" stroke="#2b2b33" stroke-width="4"/>
    <path d="M 106 -178 h 34" stroke="#f6f0d8" stroke-width="8"/>
    <path d="M -240 60 q 60 -22 120 0 q 60 22 120 0 q 60 -22 120 0 q 60 22 120 0" stroke="#c4e1f0" stroke-width="8" fill="none" stroke-linecap="round"/>
  </g></g><g transform="translate(700 900) scale(0.74 0.74)">
    <ellipse cx="-200" cy="10" rx="460" ry="14" fill="#2b2b33" opacity="0.10"/>
    <g transform="translate(-260 0)">
      <rect x="-140" y="-200" width="280" height="170" rx="14" fill="#4f86c6" stroke="#2b2b33" stroke-width="5"/>
      <path d="M -130 -128 h 260" stroke="#f3ecdd" stroke-width="10"/>
      <rect x="-108" y="-182" width="58" height="46" rx="6" fill="#bfe0f4" stroke="#2b2b33" stroke-width="3.6"/><rect x="-30" y="-182" width="58" height="46" rx="6" fill="#bfe0f4" stroke="#2b2b33" stroke-width="3.6"/><rect x="48" y="-182" width="58" height="46" rx="6" fill="#bfe0f4" stroke="#2b2b33" stroke-width="3.6"/>
      <circle cx="-76" cy="-18" r="26" fill="#5f5f68" stroke="#2b2b33" stroke-width="4.4"/>
      <circle cx="76" cy="-18" r="26" fill="#5f5f68" stroke="#2b2b33" stroke-width="4.4"/>
    </g><g transform="translate(-560 0)">
      <rect x="-140" y="-200" width="280" height="170" rx="14" fill="#4f86c6" stroke="#2b2b33" stroke-width="5"/>
      <path d="M -130 -128 h 260" stroke="#f3ecdd" stroke-width="10"/>
      <rect x="-108" y="-182" width="58" height="46" rx="6" fill="#bfe0f4" stroke="#2b2b33" stroke-width="3.6"/><rect x="-30" y="-182" width="58" height="46" rx="6" fill="#bfe0f4" stroke="#2b2b33" stroke-width="3.6"/><rect x="48" y="-182" width="58" height="46" rx="6" fill="#bfe0f4" stroke="#2b2b33" stroke-width="3.6"/>
      <circle cx="-76" cy="-18" r="26" fill="#5f5f68" stroke="#2b2b33" stroke-width="4.4"/>
      <circle cx="76" cy="-18" r="26" fill="#5f5f68" stroke="#2b2b33" stroke-width="4.4"/>
    </g>
    <path d="M -120 -30 v -180 q 0 -26 26 -26 h 130 q 26 0 34 34 l 22 96 v 76 z" fill="#c2543f" stroke="#2b2b33" stroke-width="5"/>
    <rect x="-96" y="-196" width="90" height="60" rx="6" fill="#bfe0f4" stroke="#2b2b33" stroke-width="4"/>
    <rect x="18" y="-160" width="62" height="48" rx="6" fill="#bfe0f4" stroke="#2b2b33" stroke-width="4"/>
    <path d="M -120 -84 h 212" stroke="#f0b429" stroke-width="12"/>
    <circle cx="-70" cy="-18" r="28" fill="#5f5f68" stroke="#2b2b33" stroke-width="4.4"/>
    <circle cx="42" cy="-18" r="28" fill="#5f5f68" stroke="#2b2b33" stroke-width="4.4"/>
    <g class="anim-glow"><circle cx="82" cy="-58" r="15" fill="#fff3cd" stroke="#2b2b33" stroke-width="3.4"/></g>
  </g>
</svg>
