<svg xmlns="http://www.w3.org/2000/svg" viewBox="0 0 1600 1000" role="img">
<defs><linearGradient id="sky" x1="0" y1="0" x2="0" y2="1"><stop offset="0" stop-color="#9fb4c6"/><stop offset="1" stop-color="#d7e2ea"/></linearGradient></defs>
    <rect width="1600" height="1000" fill="url(#sky)"/><path d="M 0 560 q 260 -110 520 -30 q 300 90 620 -20 q 240 -76 460 10 L 1600 640 L 0 640 Z" fill="#a9c4dd" opacity="0.55"/><rect x="0" y="590" width="1600" height="410" fill="#e7cd7f"/>
    <path d="M 0 720 q 400 -50 800 0 q 400 50 800 0 L 1600 1000 L 0 1000 Z" fill="#d9b45f"/>
    <path d="M 120 780 q 6 -34 14 -40 q 2 24 10 38 q 10 -18 18 -22 q -2 22 -8 34 z" fill="#c39c48" opacity="0.8"/><path d="M 380 860 q 6 -34 14 -40 q 2 24 10 38 q 10 -18 18 -22 q -2 22 -8 34 z" fill="#c39c48" opacity="0.8"/><path d="M 660 780 q 6 -34 14 -40 q 2 24 10 38 q 10 -18 18 -22 q -2 22 -8 34 z" fill="#c39c48" opacity="0.8"/><path d="M 940 820 q 6 -34 14 -40 q 2 24 10 38 q 10 -18 18 -22 q -2 22 -8 34 z" fill="#c39c48" opacity="0.8"/><path d="M 1240 820 q 6 -34 14 -40 q 2 24 10 38 q 10 -18 18 -22 q -2 22 -8 34 z" fill="#c39c48" opacity="0.8"/><path d="M 1480 820 q 6 -34 14 -40 q 2 24 10 38 q 10 -18 18 -22 q -2 22 -8 34 z" fill="#c39c48" opacity="0.8"/>
   <circle cx="1330" cy="150" r="62" fill="#f4f0e2" opacity="0.85"/><circle cx="1306" cy="138" r="52" fill="#9fb4c6"/>
   <g transform="translate(280 650) scale(1.15)">
    <path d="M -8 0 q -4 -70 -30 -110 M 6 0 q 8 -76 40 -116 M 0 -60 q -20 -30 -52 -44 M 2 -66 q 26 -26 58 -36" stroke="#8a6242" stroke-width="14" fill="none" stroke-linecap="round"/>
    <ellipse cx="-46" cy="-124" rx="86" ry="30" fill="#6c8b4a"/>
    <ellipse cx="30" cy="-142" rx="110" ry="34" fill="#7fa05a"/>
  </g><g transform="translate(1330 630) scale(0.95)">
    <path d="M -8 0 q -4 -70 -30 -110 M 6 0 q 8 -76 40 -116 M 0 -60 q -20 -30 -52 -44 M 2 -66 q 26 -26 58 -36" stroke="#8a6242" stroke-width="14" fill="none" stroke-linecap="round"/>
    <ellipse cx="-46" cy="-124" rx="86" ry="30" fill="#6c8b4a"/>
    <ellipse cx="30" cy="-142" rx="110" ry="34" fill="#7fa05a"/>
  </g>
   <ellipse cx="520" cy="850" rx="200" ry="48" fill="#6f5238"/>
    <ellipse cx="520" cy="844" rx="186" ry="38" fill="#8b6b4a"/>
    <ellipse cx="460" cy="833.68" rx="72" ry="12.48" fill="#a5825e" opacity="0.8"/><ellipse cx="1080" cy="900" rx="240" ry="54" fill="#6f5238"/>
    <ellipse cx="1080" cy="894" rx="226" ry="44" fill="#8b6b4a"/>
    <ellipse cx="1008" cy="881.64" rx="86.39999999999999" ry="14.040000000000001" fill="#a5825e" opacity="0.8"/><ellipse cx="820" cy="760" rx="120" ry="30" fill="#6f5238"/>
    <ellipse cx="820" cy="754" rx="106" ry="20" fill="#8b6b4a"/>
    <ellipse cx="784" cy="749.8" rx="43.199999999999996" ry="7.800000000000001" fill="#a5825e" opacity="0.8"/>
   <line x1="0" y1="40" x2="-10" y2="74" stroke="#7d97ad" stroke-width="5" stroke-linecap="round" opacity="0.7"/><line x1="137" y1="251" x2="127" y2="285" stroke="#7d97ad" stroke-width="5" stroke-linecap="round" opacity="0.7"/><line x1="274" y1="462" x2="264" y2="496" stroke="#7d97ad" stroke-width="5" stroke-linecap="round" opacity="0.7"/><line x1="411" y1="153" x2="401" y2="187" stroke="#7d97ad" stroke-width="5" stroke-linecap="round" opacity="0.7"/><line x1="548" y1="364" x2="538" y2="398" stroke="#7d97ad" stroke-width="5" stroke-linecap="round" opacity="0.7"/><line x1="685" y1="55" x2="675" y2="89" stroke="#7d97ad" stroke-width="5" stroke-linecap="round" opacity="0.7"/><line x1="822" y1="266" x2="812" y2="300" stroke="#7d97ad" stroke-width="5" stroke-linecap="round" opacity="0.7"/><line x1="959" y1="477" x2="949" y2="511" stroke="#7d97ad" stroke-width="5" stroke-linecap="round" opacity="0.7"/><line x1="1096" y1="168" x2="1086" y2="202" stroke="#7d97ad" stroke-width="5" stroke-linecap="round" opacity="0.7"/><line x1="1233" y1="379" x2="1223" y2="413" stroke="#7d97ad" stroke-width="5" stroke-linecap="round" opacity="0.7"/><line x1="1370" y1="70" x2="1360" y2="104" stroke="#7d97ad" stroke-width="5" stroke-linecap="round" opacity="0.7"/><line x1="1507" y1="281" x2="1497" y2="315" stroke="#7d97ad" stroke-width="5" stroke-linecap="round" opacity="0.7"/><line x1="44" y1="492" x2="34" y2="526" stroke="#7d97ad" stroke-width="5" stroke-linecap="round" opacity="0.7"/><line x1="181" y1="183" x2="171" y2="217" stroke="#7d97ad" stroke-width="5" stroke-linecap="round" opacity="0.7"/><line x1="318" y1="394" x2="308" y2="428" stroke="#7d97ad" stroke-width="5" stroke-linecap="round" opacity="0.7"/><line x1="455" y1="85" x2="445" y2="119" stroke="#7d97ad" stroke-width="5" stroke-linecap="round" opacity="0.7"/><line x1="592" y1="296" x2="582" y2="330" stroke="#7d97ad" stroke-width="5" stroke-linecap="round" opacity="0.7"/><line x1="729" y1="507" x2="719" y2="541" stroke="#7d97ad" stroke-width="5" stroke-linecap="round" opacity="0.7"/><line x1="866" y1="198" x2="856" y2="232" stroke="#7d97ad" stroke-width="5" stroke-linecap="round" opacity="0.7"/><line x1="1003" y1="409" x2="993" y2="443" stroke="#7d97ad" stroke-width="5" stroke-linecap="round" opacity="0.7"/><line x1="1140" y1="100" x2="1130" y2="134" stroke="#7d97ad" stroke-width="5" stroke-linecap="round" opacity="0.7"/><line x1="1277" y1="311" x2="1267" y2="345" stroke="#7d97ad" stroke-width="5" stroke-linecap="round" opacity="0.7"/><line x1="1414" y1="522" x2="1404" y2="556" stroke="#7d97ad" stroke-width="5" stroke-linecap="round" opacity="0.7"/><line x1="1551" y1="213" x2="1541" y2="247" stroke="#7d97ad" stroke-width="5" stroke-linecap="round" opacity="0.7"/><line x1="88" y1="424" x2="78" y2="458" stroke="#7d97ad" stroke-width="5" stroke-linecap="round" opacity="0.7"/><line x1="225" y1="115" x2="215" y2="149" stroke="#7d97ad" stroke-width="5" stroke-linecap="round" opacity="0.7"/><line x1="362" y1="326" x2="352" y2="360" stroke="#7d97ad" stroke-width="5" stroke-linecap="round" opacity="0.7"/><line x1="499" y1="537" x2="489" y2="571" stroke="#7d97ad" stroke-width="5" stroke-linecap="round" opacity="0.7"/><line x1="636" y1="228" x2="626" y2="262" stroke="#7d97ad" stroke-width="5" stroke-linecap="round" opacity="0.7"/><line x1="773" y1="439" x2="763" y2="473" stroke="#7d97ad" stroke-width="5" stroke-linecap="round" opacity="0.7"/><line x1="910" y1="130" x2="900" y2="164" stroke="#7d97ad" stroke-width="5" stroke-linecap="round" opacity="0.7"/><line x1="1047" y1="341" x2="1037" y2="375" stroke="#7d97ad" stroke-width="5" stroke-linecap="round" opacity="0.7"/><line x1="1184" y1="552" x2="1174" y2="586" stroke="#7d97ad" stroke-width="5" stroke-linecap="round" opacity="0.7"/><line x1="1321" y1="243" x2="1311" y2="277" stroke="#7d97ad" stroke-width="5" stroke-linecap="round" opacity="0.7"/><line x1="1458" y1="454" x2="1448" y2="488" stroke="#7d97ad" stroke-width="5" stroke-linecap="round" opacity="0.7"/><line x1="1595" y1="145" x2="1585" y2="179" stroke="#7d97ad" stroke-width="5" stroke-linecap="round" opacity="0.7"/><line x1="132" y1="356" x2="122" y2="390" stroke="#7d97ad" stroke-width="5" stroke-linecap="round" opacity="0.7"/><line x1="269" y1="47" x2="259" y2="81" stroke="#7d97ad" stroke-width="5" stroke-linecap="round" opacity="0.7"/><line x1="406" y1="258" x2="396" y2="292" stroke="#7d97ad" stroke-width="5" stroke-linecap="round" opacity="0.7"/><line x1="543" y1="469" x2="533" y2="503" stroke="#7d97ad" stroke-width="5" stroke-linecap="round" opacity="0.7"/><line x1="680" y1="160" x2="670" y2="194" stroke="#7d97ad" stroke-width="5" stroke-linecap="round" opacity="0.7"/><line x1="817" y1="371" x2="807" y2="405" stroke="#7d97ad" stroke-width="5" stroke-linecap="round" opacity="0.7"/><line x1="954" y1="62" x2="944" y2="96" stroke="#7d97ad" stroke-width="5" stroke-linecap="round" opacity="0.7"/><line x1="1091" y1="273" x2="1081" y2="307" stroke="#7d97ad" stroke-width="5" stroke-linecap="round" opacity="0.7"/><line x1="1228" y1="484" x2="1218" y2="518" stroke="#7d97ad" stroke-width="5" stroke-linecap="round" opacity="0.7"/><line x1="1365" y1="175" x2="1355" y2="209" stroke="#7d97ad" stroke-width="5" stroke-linecap="round" opacity="0.7"/><line x1="1502" y1="386" x2="1492" y2="420" stroke="#7d97ad" stroke-width="5" stroke-linecap="round" opacity="0.7"/><line x1="39" y1="77" x2="29" y2="111" stroke="#7d97ad" stroke-width="5" stroke-linecap="round" opacity="0.7"/><line x1="176" y1="288" x2="166" y2="322" stroke="#7d97ad" stroke-width="5" stroke-linecap="round" opacity="0.7"/><line x1="313" y1="499" x2="303" y2="533" stroke="#7d97ad" stroke-width="5" stroke-linecap="round" opacity="0.7"/><line x1="450" y1="190" x2="440" y2="224" stroke="#7d97ad" stroke-width="5" stroke-linecap="round" opacity="0.7"/><line x1="587" y1="401" x2="577" y2="435" stroke="#7d97ad" stroke-width="5" stroke-linecap="round" opacity="0.7"/><line x1="724" y1="92" x2="714" y2="126" stroke="#7d97ad" stroke-width="5" stroke-linecap="round" opacity="0.7"/><line x1="861" y1="303" x2="851" y2="337" stroke="#7d97ad" stroke-width="5" stroke-linecap="round" opacity="0.7"/><line x1="998" y1="514" x2="988" y2="548" stroke="#7d97ad" stroke-width="5" stroke-linecap="round" opacity="0.7"/><line x1="1135" y1="205" x2="1125" y2="239" stroke="#7d97ad" stroke-width="5" stroke-linecap="round" opacity="0.7"/><line x1="1272" y1="416" x2="1262" y2="450" stroke="#7d97ad" stroke-width="5" stroke-linecap="round" opacity="0.7"/><line x1="1409" y1="107" x2="1399" y2="141" stroke="#7d97ad" stroke-width="5" stroke-linecap="round" opacity="0.7"/><line x1="1546" y1="318" x2="1536" y2="352" stroke="#7d97ad" stroke-width="5" stroke-linecap="round" opacity="0.7"/><line x1="83" y1="529" x2="73" y2="563" stroke="#7d97ad" stroke-width="5" stroke-linecap="round" opacity="0.7"/>
</svg>
