<svg xmlns="http://www.w3.org/2000/svg" viewBox="0 0 1600 1000" role="img">
<defs><linearGradient id="sky" x1="0" y1="0" x2="0" y2="1"><stop offset="0" stop-color="#bfe0f4"/><stop offset="1" stop-color="#eef8fd"/></linearGradient></defs>
    <rect width="1600" height="1000" fill="url(#sky)"/><circle cx="1350" cy="160" r="120" fill="#fdeebc" opacity="0.6"/><circle cx="1350" cy="160" r="78" fill="#f9d976"/><path d="M 0 560 q 260 -110 520 -30 q 300 90 620 -20 q 240 -76 460 10 L 1600 640 L 0 640 Z" fill="#a9c4dd" opacity="0.55"/><rect x="0" y="590" width="1600" height="410" fill="#e7cd7f"/>
    <path d="M 0 720 q 400 -50 800 0 q 400 50 800 0 L 1600 1000 L 0 1000 Z" fill="#d9b45f"/>
    <path d="M 120 780 q 6 -34 14 -40 q 2 24 10 38 q 10 -18 18 -22 q -2 22 -8 34 z" fill="#c39c48" opacity="0.8"/><path d="M 380 860 q 6 -34 14 -40 q 2 24 10 38 q 10 -18 18 -22 q -2 22 -8 34 z" fill="#c39c48" opacity="0.8"/><path d="M 660 780 q 6 -34 14 -40 q 2 24 10 38 q 10 -18 18 -22 q -2 22 -8 34 z" fill="#c39c48" opacity="0.8"/><path d="M 940 820 q 6 -34 14 -40 q 2 24 10 38 q 10 -18 18 -22 q -2 22 -8 34 z" fill="#c39c48" opacity="0.8"/><path d="M 1240 820 q 6 -34 14 -40 q 2 24 10 38 q 10 -18 18 -22 q -2 22 -8 34 z" fill="#c39c48" opacity="0.8"/><path d="M 1480 820 q 6 -34 14 -40 q 2 24 10 38 q 10 -18 18 -22 q -2 22 -8 34 z" fill="#c39c48" opacity="0.8"/><g transform="translate(1410 630) scale(1)">
    <path d="M -8 0 q -4 -70 -30 -110 M 6 0 q 8 -76 40 -116 M 0 -60 q -20 -30 -52 -44 M 2 -66 q 26 -26 58 -36" stroke="#8a6242" stroke-width="14" fill="none" stroke-linecap="round"/>
    <ellipse cx="-46" cy="-124" rx="86" ry="30" fill="#6c8b4a"/>
    <ellipse cx="30" cy="-142" rx="110" ry="34" fill="#7fa05a"/>
  </g>
   <ellipse cx="1060" cy="860" rx="300" ry="70" fill="#6f5238"/>
    <ellipse cx="1060" cy="854" rx="286" ry="60" fill="#8b6b4a"/>
    <ellipse cx="970" cy="836.2" rx="108" ry="18.2" fill="#a5825e" opacity="0.8"/>
   <g transform="translate(1090 780) scale(1 1)">
    
    
    <ellipse cx="-6" cy="-2" rx="80" ry="56" fill="#aab4be" stroke="#2b2b33" stroke-width="5"/>
    
    <path d="M -80 0 q -14 4 -12 18 l 8 2 q 6 -10 12 -12 z" fill="#aab4be" stroke="#2b2b33" stroke-width="4"/>
    <g transform="translate(44 -40)">
      <path d="M -26 -6 q -34 -22 -30 6 q 4 26 28 22 z" fill="#8e99a5" stroke="#2b2b33" stroke-width="4"/>
      <path d="M -40 -2 q -14 -10 -12 4 q 2 12 14 10 z" fill="#cfb6b6"/>
      <ellipse cx="8" cy="0" rx="42" ry="34" fill="#aab4be" stroke="#2b2b33" stroke-width="5"/>
      <g transform="translate(6 -6)"><circle cx="0" cy="0" r="9" fill="#6b4a2f"/><circle cx="2.5" cy="-3" r="3" fill="#fff"/></g>
      <g transform="translate(16 16)"><ellipse cx="0" cy="4.800000000000001" rx="4.800000000000001" ry="6.4" fill="#2b2b33"/></g>
    </g>
    <path d="M 74 -26 q 40 -12 44 -52 q 0 -12 -12 -10 q -6 30 -40 40 z" fill="#aab4be" stroke="#2b2b33" stroke-width="4.5"/>
  </g>
   <path d="M 420 700 q 200 -90 420 -40 q 140 30 220 -10" fill="none" stroke="#5c7d43" stroke-width="12" stroke-linecap="round"/>
    <path d="M 420 700 q 200 -90 420 -40 q 140 30 220 -10" fill="none" stroke="#79a15a" stroke-width="5.4" stroke-linecap="round"/>
   <g transform="translate(400 700) scale(0.95 0.95)">
    <ellipse cx="0" cy="66" rx="42" ry="9" fill="#2b2b33" opacity="0.10"/>
    <path d="M -30 30 q -44 4 -48 -34 q 0 -14 12 -10 q 2 26 34 30 z" fill="#8f9a86" stroke="#2b2b33" stroke-width="4"/>
    <ellipse cx="0" cy="16" rx="38" ry="42" fill="#8f9a86" stroke="#2b2b33" stroke-width="4.5"/>
    <ellipse cx="4" cy="26" rx="20" ry="24" fill="#e8dcc8"/>
    <g transform="translate(-24 -14) rotate(150)"><rect x="-6" y="0" width="12" height="52" rx="6" fill="#8f9a86" stroke="#2b2b33" stroke-width="3.4"/><circle cx="0" cy="54" r="8" fill="#e8dcc8" stroke="#2b2b33" stroke-width="3"/></g><g transform="translate(24 -14) rotate(-150)"><rect x="-6" y="0" width="12" height="52" rx="6" fill="#8f9a86" stroke="#2b2b33" stroke-width="3.4"/><circle cx="0" cy="54" r="8" fill="#e8dcc8" stroke="#2b2b33" stroke-width="3"/></g>
    
    <g transform="translate(-14 52)"><rect x="-6" y="0" width="12" height="24" rx="6" fill="#8f9a86" stroke="#2b2b33" stroke-width="3.4"/></g>
    <g transform="translate(16 52)"><rect x="-6" y="0" width="12" height="24" rx="6" fill="#8f9a86" stroke="#2b2b33" stroke-width="3.4"/></g>
    <g transform="translate(0 -30)">
      <circle cx="0" cy="0" r="26" fill="#8f9a86" stroke="#2b2b33" stroke-width="4.5"/>
      <ellipse cx="2" cy="6" rx="17" ry="15" fill="#e8dcc8"/>
      <circle cx="-24" cy="-4" r="9" fill="#8f9a86" stroke="#2b2b33" stroke-width="3.4"/>
      <circle cx="24" cy="-4" r="9" fill="#8f9a86" stroke="#2b2b33" stroke-width="3.4"/>
      <g transform="translate(2 0)"><circle cx="0" cy="0" r="6.75" fill="#6b4a2f"/><circle cx="1.875" cy="-2.25" r="2.25" fill="#fff"/></g>
      <g transform="translate(2 8)"><path d="M -6 1.2 q 6 6 12 0" stroke="#2b2b33" stroke-width="1.7999999999999998" fill="none" stroke-linecap="round"/></g>
    </g>
  </g>
</svg>
