<svg xmlns="http://www.w3.org/2000/svg" viewBox="0 0 1600 1000" role="img">
<defs><linearGradient id="sky" x1="0" y1="0" x2="0" y2="1"><stop offset="0" stop-color="#bfe0f4"/><stop offset="1" stop-color="#eef8fd"/></linearGradient></defs>
    <rect width="1600" height="1000" fill="url(#sky)"/><circle cx="1350" cy="160" r="120" fill="#fdeebc" opacity="0.6"/><circle cx="1350" cy="160" r="78" fill="#f9d976"/><path d="M 0 560 q 260 -110 520 -30 q 300 90 620 -20 q 240 -76 460 10 L 1600 640 L 0 640 Z" fill="#a9c4dd" opacity="0.55"/><rect x="0" y="590" width="1600" height="410" fill="#e7cd7f"/>
    <path d="M 0 720 q 400 -50 800 0 q 400 50 800 0 L 1600 1000 L 0 1000 Z" fill="#d9b45f"/>
    <path d="M 120 780 q 6 -34 14 -40 q 2 24 10 38 q 10 -18 18 -22 q -2 22 -8 34 z" fill="#c39c48" opacity="0.8"/><path d="M 380 860 q 6 -34 14 -40 q 2 24 10 38 q 10 -18 18 -22 q -2 22 -8 34 z" fill="#c39c48" opacity="0.8"/><path d="M 660 780 q 6 -34 14 -40 q 2 24 10 38 q 10 -18 18 -22 q -2 22 -8 34 z" fill="#c39c48" opacity="0.8"/><path d="M 940 820 q 6 -34 14 -40 q 2 24 10 38 q 10 -18 18 -22 q -2 22 -8 34 z" fill="#c39c48" opacity="0.8"/><path d="M 1240 820 q 6 -34 14 -40 q 2 24 10 38 q 10 -18 18 -22 q -2 22 -8 34 z" fill="#c39c48" opacity="0.8"/><path d="M 1480 820 q 6 -34 14 -40 q 2 24 10 38 q 10 -18 18 -22 q -2 22 -8 34 z" fill="#c39c48" opacity="0.8"/><g transform="translate(1410 640) scale(1)">
    <path d="M -8 0 q -4 -70 -30 -110 M 6 0 q 8 -76 40 -116 M 0 -60 q -20 -30 -52 -44 M 2 -66 q 26 -26 58 -36" stroke="#8a6242" stroke-width="14" fill="none" stroke-linecap="round"/>
    <ellipse cx="-46" cy="-124" rx="86" ry="30" fill="#6c8b4a"/>
    <ellipse cx="30" cy="-142" rx="110" ry="34" fill="#7fa05a"/>
  </g>
   <ellipse cx="1030" cy="890" rx="280" ry="62" fill="#6f5238"/>
    <ellipse cx="1030" cy="884" rx="266" ry="52" fill="#8b6b4a"/>
    <ellipse cx="946" cy="868.92" rx="100.8" ry="16.12" fill="#a5825e" opacity="0.8"/>
   <g transform="translate(620 700) scale(1.12 1.12) rotate(0)">
    <ellipse cx="0" cy="96" rx="88" ry="14" fill="#2b2b33" opacity="0.10"/><g transform="translate(-58 34) rotate(0)"><rect x="-9" y="0" width="18" height="66" rx="9" fill="#f1ede9" stroke="#2b2b33" stroke-width="4"/><path d="M -9 18 h 18 M -9 36 h 18" stroke="#2b2b33" stroke-width="6"/><rect x="-10" y="58" width="20" height="12" rx="5" fill="#2b2b33"/></g><g transform="translate(30 34) rotate(0)"><rect x="-9" y="0" width="18" height="66" rx="9" fill="#f1ede9" stroke="#2b2b33" stroke-width="4"/><path d="M -9 18 h 18 M -9 36 h 18" stroke="#2b2b33" stroke-width="6"/><rect x="-10" y="58" width="20" height="12" rx="5" fill="#2b2b33"/></g>
    <path d="M -86 6 q -20 -4 -26 12 q 12 8 26 2" fill="#ffffff" stroke="#2b2b33" stroke-width="4"/>
    <path d="M -108 16 l -6 16 q 10 4 14 -4 z" fill="#2b2b33"/>
    <ellipse cx="0" cy="-6" rx="95" ry="58" fill="#ffffff" stroke="#2b2b33" stroke-width="5"/>
    
    <path d="M -55 -48 q 6 30 -2 52" stroke="#2b2b33" stroke-width="11" fill="none" stroke-linecap="round"/>
    <path d="M -28 -55 q 5 34 -2 62" stroke="#2b2b33" stroke-width="11" fill="none" stroke-linecap="round"/>
    <path d="M -2 -57 q 4 32 -1 64" stroke="#2b2b33" stroke-width="11" fill="none" stroke-linecap="round"/>
    <path d="M 24 -54 q 4 28 0 56" stroke="#2b2b33" stroke-width="10" fill="none" stroke-linecap="round"/>
    <path d="M 62 -30 q 14 2 24 -6" stroke="#2b2b33" stroke-width="8" fill="none" stroke-linecap="round"/>
    <path d="M 70 -52 q 12 4 22 -2" stroke="#2b2b33" stroke-width="8" fill="none" stroke-linecap="round"/><ellipse cx="-52" cy="-6" rx="26" ry="18.2" fill="#8b6b4a" opacity="0.85"/><ellipse cx="-12" cy="14" rx="24" ry="16.799999999999997" fill="#8b6b4a" opacity="0.85"/><ellipse cx="22" cy="-18" rx="20" ry="14" fill="#8b6b4a" opacity="0.85"/><ellipse cx="48" cy="10" rx="16" ry="11.2" fill="#8b6b4a" opacity="0.85"/><ellipse cx="-30" cy="-38" rx="15" ry="10.5" fill="#8b6b4a" opacity="0.85"/><ellipse cx="10" cy="-44" rx="13" ry="9.1" fill="#8b6b4a" opacity="0.85"/><path d="M 46 -18 c -5 -8 -16 -5 -16 3 c 0 7 9 12 16 17 c 7 -5 16 -10 16 -17 c 0 -8 -11 -11 -16 -3 z" fill="#2b2b33"/>
    <g transform="translate(-38 34) rotate(0)"><rect x="-9" y="0" width="18" height="66" rx="9" fill="#ffffff" stroke="#2b2b33" stroke-width="4"/><path d="M -9 18 h 18 M -9 36 h 18" stroke="#2b2b33" stroke-width="6"/><rect x="-10" y="58" width="20" height="12" rx="5" fill="#2b2b33"/></g><g transform="translate(58 34) rotate(0)"><rect x="-9" y="0" width="18" height="66" rx="9" fill="#ffffff" stroke="#2b2b33" stroke-width="4"/><path d="M -9 18 h 18 M -9 36 h 18" stroke="#2b2b33" stroke-width="6"/><rect x="-10" y="58" width="20" height="12" rx="5" fill="#2b2b33"/></g>
    <path d="M 62 -34 q 26 -34 52 -44 l 26 8 q -8 34 -34 48 z" fill="#ffffff" stroke="#2b2b33" stroke-width="5"/>
    <path d="M 84 -66 q 4 14 -6 24 M 104 -72 q 2 12 -6 22" stroke="#2b2b33" stroke-width="7" fill="none" stroke-linecap="round"/>
    <g transform="translate(150 -84)">
      <ellipse cx="0" cy="0" rx="44" ry="34" fill="#ffffff" stroke="#2b2b33" stroke-width="5"/>
      <path d="M 24 4 q 24 2 26 16 q -2 14 -24 12 q -16 -2 -20 -14 z" fill="#5a4f49" stroke="#2b2b33" stroke-width="4"/>
      <circle cx="38" cy="14" r="3.4" fill="#2b2b33"/>
      <g transform="translate(34 22)"><path d="M -9 5.4 q 9 -7.2 18 0" stroke="#2b2b33" stroke-width="2.7" fill="none" stroke-linecap="round"/></g>
      <path d="M -20 -28 l -12 -26 l 22 12 z" fill="#ffffff" stroke="#2b2b33" stroke-width="4"/>
      <path d="M -24 -46 l 8 18" stroke="#2b2b33" stroke-width="4"/>
      <path d="M -34 -12 q -6 12 -2 22 M -14 -22 q -4 10 -2 18" stroke="#2b2b33" stroke-width="6" fill="none" stroke-linecap="round"/>
      <g transform="translate(6 -4)"><circle cx="0" cy="0" r="9.9" fill="#6b4a2f"/><circle cx="2.75" cy="-3.3000000000000003" r="3.3000000000000003" fill="#fff"/><path d="M -15.400000000000002 -15.400000000000002 q 11 -6.6000000000000005 22 -2.2" stroke="#2b2b33" stroke-width="3.3000000000000003" fill="none" stroke-linecap="round"/></g>
      <path d="M -42 -22 q -14 -18 -2 -30 q 12 -8 18 6 M -22 -34 q -8 -18 6 -24 q 12 -4 12 10 M -2 -40 q -2 -18 12 -18 q 12 2 6 16" fill="#2b2b33"/>
    </g>
  </g>
   <ellipse cx="420" cy="870" rx="22" ry="15.399999999999999" fill="#8b6b4a" opacity="0.85"/><ellipse cx="820" cy="930" rx="18" ry="12.6" fill="#8b6b4a" opacity="0.85"/>
</svg>
