<svg xmlns="http://www.w3.org/2000/svg" viewBox="0 0 1600 1000" role="img">
<style>
@media (prefers-reduced-motion: no-preference) {
  .anim-idle { animation: idle 3.8s ease-in-out infinite alternate; }
  @keyframes idle { from { transform: translateY(0); } to { transform: translateY(-6px); } }
  .anim-tail { transform-box: fill-box; transform-origin: 100% 20%; animation: tail 2.6s ease-in-out infinite alternate; }
  @keyframes tail { from { transform: rotate(-6deg); } to { transform: rotate(8deg); } }
  .anim-blink { transform-box: fill-box; transform-origin: center; animation: blink 5.2s infinite; }
  @keyframes blink { 0%, 93%, 100% { transform: scaleY(1); } 95%, 97% { transform: scaleY(0.12); } }
  .anim-glow { transform-box: fill-box; transform-origin: center; animation: glow 4.2s ease-in-out infinite alternate; }
  @keyframes glow { from { transform: scale(1); opacity: 0.5; } to { transform: scale(1.08); opacity: 0.75; } }
  .anim-shimmer { animation: shimmer 5s ease-in-out infinite alternate; }
  @keyframes shimmer { from { opacity: 0.62; } to { opacity: 0.92; } }
  .anim-grass { transform-box: fill-box; transform-origin: 50% 100%; animation: sway 3.2s ease-in-out infinite alternate; }
  .anim-canopy { transform-box: fill-box; transform-origin: 50% 100%; animation: sway 5.6s ease-in-out infinite alternate; }
  @keyframes sway { from { transform: rotate(-1.8deg); } to { transform: rotate(2.2deg); } }
  .anim-rain { animation: rainfall 1.15s linear infinite; }
  @keyframes rainfall { from { transform: translateY(-32px); opacity: 0.85; } 75% { opacity: 0.55; } to { transform: translateY(72px); opacity: 0; } }
  .anim-ripple { transform-box: fill-box; transform-origin: center; animation: ripple 3.4s ease-in-out infinite alternate; }
  @keyframes ripple { from { transform: scale(1); opacity: 0.8; } to { transform: scale(1.18); opacity: 0.55; } }
  .anim-drip { animation: drip 1s ease-in infinite; }
  @keyframes drip { from { transform: translateY(-12px); opacity: 0.95; } to { transform: translateY(28px); opacity: 0; } }
  .anim-flow { stroke-dasharray: 26 20; animation: flow 0.8s linear infinite; }
  @keyframes flow { from { stroke-dashoffset: 0; } to { stroke-dashoffset: -46; } }
  .anim-splash { transform-box: fill-box; transform-origin: 50% 100%; animation: splashPulse 1.7s ease-in-out infinite alternate; }
  @keyframes splashPulse { from { transform: scale(0.97); } to { transform: scale(1.05); } }
  .anim-strain { transform-box: fill-box; transform-origin: center; animation: strain 0.9s ease-in-out infinite alternate; }
  @keyframes strain { from { transform: translateX(-5px); } to { transform: translateX(4px); } }
  .anim-float { transform-box: fill-box; transform-origin: center; animation: floaty 2.6s ease-in-out infinite alternate; }
  @keyframes floaty { from { transform: translateY(0) scale(1); } to { transform: translateY(-12px) scale(1.08); } }
  .anim-wave { animation: wave 2.4s ease-in-out infinite; opacity: 0; }
  @keyframes wave { 0% { opacity: 0; } 30% { opacity: 0.9; } 60%, 100% { opacity: 0; } }
  .anim-cloud { animation: cloudDrift 9s ease-in-out infinite alternate; }
  @keyframes cloudDrift { from { transform: translateX(-18px); } to { transform: translateX(22px); } }
  .tap-target { cursor: pointer; }
  .tap-target.tap-play { transform-box: fill-box; transform-origin: 50% 85%; animation: tapWiggle 0.7s ease-in-out; }
  .tap-target[data-tap="puddle"].tap-play { transform-origin: center; animation: tapSplash 0.85s ease-out; }
  .tap-target[data-tap="sun"].tap-play { transform-origin: center; animation: tapPulse 0.6s ease-in-out; }
  .tap-target[data-tap="tree"].tap-play { transform-origin: 50% 100%; animation: tapShake 0.7s ease-in-out; }
  @keyframes tapWiggle { 0% { transform: rotate(0); } 25% { transform: rotate(-4deg) scale(1.03); } 55% { transform: rotate(3deg) scale(1.04); } 80% { transform: rotate(-1.5deg); } 100% { transform: rotate(0); } }
  @keyframes tapSplash { 0% { transform: scale(1); } 40% { transform: scale(1.06, 0.94); } 70% { transform: scale(0.97, 1.03); } 100% { transform: scale(1); } }
  @keyframes tapPulse { 0% { transform: scale(1); } 50% { transform: scale(1.12); } 100% { transform: scale(1); } }
  @keyframes tapShake { 0% { transform: rotate(0); } 20% { transform: rotate(2.4deg); } 45% { transform: rotate(-2deg); } 70% { transform: rotate(1.2deg); } 100% { transform: rotate(0); } }
  .tap-burst { opacity: 0; }
  .tap-target.tap-play .tap-burst { opacity: 1; }
  .tap-target.tap-play .tap-burst circle { animation: burstUp 0.6s ease-out forwards; }
  @keyframes burstUp { from { transform: translateY(0); opacity: 0.95; } to { transform: translateY(-90px); opacity: 0; } }
}
</style>
<defs><linearGradient id="sky" x1="0" y1="0" x2="0" y2="1"><stop offset="0" stop-color="#bfe0f4"/><stop offset="1" stop-color="#eef8fd"/></linearGradient></defs>
    <rect width="1600" height="1000" fill="url(#sky)"/><g class="tap-target" data-tap="sun"><circle class="anim-glow" cx="1350" cy="160" r="120" fill="#fdeebc" opacity="0.6"/><circle cx="1350" cy="160" r="78" fill="#f9d976"/></g><path d="M 0 560 q 260 -110 520 -30 q 300 90 620 -20 q 240 -76 460 10 L 1600 640 L 0 640 Z" fill="#a9c4dd" opacity="0.55"/><rect x="0" y="590" width="1600" height="410" fill="#e7cd7f"/>
    <path d="M 0 720 q 400 -50 800 0 q 400 50 800 0 L 1600 1000 L 0 1000 Z" fill="#d9b45f"/>
    <g class="anim-grass" style="animation-delay:1.00s"><path d="M 120 780 q 6 -34 14 -40 q 2 24 10 38 q 10 -18 18 -22 q -2 22 -8 34 z" fill="#c39c48" opacity="0.8"/></g><g class="anim-grass" style="animation-delay:0.50s"><path d="M 380 860 q 6 -34 14 -40 q 2 24 10 38 q 10 -18 18 -22 q -2 22 -8 34 z" fill="#c39c48" opacity="0.8"/></g><g class="anim-grass" style="animation-delay:2.50s"><path d="M 660 780 q 6 -34 14 -40 q 2 24 10 38 q 10 -18 18 -22 q -2 22 -8 34 z" fill="#c39c48" opacity="0.8"/></g><g class="anim-grass" style="animation-delay:1.50s"><path d="M 940 820 q 6 -34 14 -40 q 2 24 10 38 q 10 -18 18 -22 q -2 22 -8 34 z" fill="#c39c48" opacity="0.8"/></g><g class="anim-grass" style="animation-delay:0.00s"><path d="M 1240 820 q 6 -34 14 -40 q 2 24 10 38 q 10 -18 18 -22 q -2 22 -8 34 z" fill="#c39c48" opacity="0.8"/></g><g class="anim-grass" style="animation-delay:0.00s"><path d="M 1480 820 q 6 -34 14 -40 q 2 24 10 38 q 10 -18 18 -22 q -2 22 -8 34 z" fill="#c39c48" opacity="0.8"/></g><g transform="translate(500 920) scale(1.8)"><g class="anim-grass" style="animation-delay:0.50s" stroke="#c39c48" stroke-width="10" fill="none" stroke-linecap="round">
    <path d="M 0 0 q -10 -70 -34 -96"/><path d="M 22 0 q 4 -80 -6 -116"/><path d="M 44 0 q 18 -66 44 -88"/><path d="M 66 0 q 8 -56 0 -80"/>
  </g></g><g transform="translate(800 940) scale(1.6)"><g class="anim-grass" style="animation-delay:1.50s" stroke="#c39c48" stroke-width="10" fill="none" stroke-linecap="round">
    <path d="M 0 0 q -10 -70 -34 -96"/><path d="M 22 0 q 4 -80 -6 -116"/><path d="M 44 0 q 18 -66 44 -88"/><path d="M 66 0 q 8 -56 0 -80"/>
  </g></g><g transform="translate(1100 920) scale(1.7)"><g class="anim-grass" style="animation-delay:0.50s" stroke="#c39c48" stroke-width="10" fill="none" stroke-linecap="round">
    <path d="M 0 0 q -10 -70 -34 -96"/><path d="M 22 0 q 4 -80 -6 -116"/><path d="M 44 0 q 18 -66 44 -88"/><path d="M 66 0 q 8 -56 0 -80"/>
  </g></g>
   <g transform="translate(400 690) scale(1.05 1.05) rotate(0)">
    <ellipse cx="0" cy="96" rx="88" ry="14" fill="#2b2b33" opacity="0.10"/>
    <g class="tap-target" data-tap="zebra" data-mood="surprised">
    <g class="anim-idle" style="animation-delay:1.00s">
    <g transform="translate(-58 34) rotate(0)"><rect x="-9" y="0" width="18" height="66" rx="9" fill="#f1ede9" stroke="#2b2b33" stroke-width="4"/><path d="M -9 18 h 18 M -9 36 h 18" stroke="#2b2b33" stroke-width="6"/><rect x="-10" y="58" width="20" height="12" rx="5" fill="#2b2b33"/></g><g transform="translate(30 34) rotate(0)"><rect x="-9" y="0" width="18" height="66" rx="9" fill="#f1ede9" stroke="#2b2b33" stroke-width="4"/><path d="M -9 18 h 18 M -9 36 h 18" stroke="#2b2b33" stroke-width="6"/><rect x="-10" y="58" width="20" height="12" rx="5" fill="#2b2b33"/></g><g class="anim-tail" style="animation-delay:1.00s">
    <path d="M -86 6 q -20 -4 -26 12 q 12 8 26 2" fill="#ffffff" stroke="#2b2b33" stroke-width="4"/>
    <path d="M -108 16 l -6 16 q 10 4 14 -4 z" fill="#2b2b33"/>
  </g>
    <ellipse cx="0" cy="-6" rx="95" ry="58" fill="#ffffff" stroke="#2b2b33" stroke-width="5"/>
    
    <path d="M -55 -48 q 6 30 -2 52" stroke="#2b2b33" stroke-width="11" fill="none" stroke-linecap="round"/>
    <path d="M -28 -55 q 5 34 -2 62" stroke="#2b2b33" stroke-width="11" fill="none" stroke-linecap="round"/>
    <path d="M -2 -57 q 4 32 -1 64" stroke="#2b2b33" stroke-width="11" fill="none" stroke-linecap="round"/>
    <path d="M 24 -54 q 4 28 0 56" stroke="#2b2b33" stroke-width="10" fill="none" stroke-linecap="round"/>
    <path d="M 62 -30 q 14 2 24 -6" stroke="#2b2b33" stroke-width="8" fill="none" stroke-linecap="round"/>
    <path d="M 70 -52 q 12 4 22 -2" stroke="#2b2b33" stroke-width="8" fill="none" stroke-linecap="round"/><path d="M 46 -18 c -5 -8 -16 -5 -16 3 c 0 7 9 12 16 17 c 7 -5 16 -10 16 -17 c 0 -8 -11 -11 -16 -3 z" fill="#2b2b33"/>
    <g transform="translate(-38 34) rotate(0)"><rect x="-9" y="0" width="18" height="66" rx="9" fill="#ffffff" stroke="#2b2b33" stroke-width="4"/><path d="M -9 18 h 18 M -9 36 h 18" stroke="#2b2b33" stroke-width="6"/><rect x="-10" y="58" width="20" height="12" rx="5" fill="#2b2b33"/></g><g transform="translate(58 34) rotate(0)"><rect x="-9" y="0" width="18" height="66" rx="9" fill="#ffffff" stroke="#2b2b33" stroke-width="4"/><path d="M -9 18 h 18 M -9 36 h 18" stroke="#2b2b33" stroke-width="6"/><rect x="-10" y="58" width="20" height="12" rx="5" fill="#2b2b33"/></g>
    <path d="M 62 -34 q 26 -34 52 -44 l 26 8 q -8 34 -34 48 z" fill="#ffffff" stroke="#2b2b33" stroke-width="5"/>
    <path d="M 84 -66 q 4 14 -6 24 M 104 -72 q 2 12 -6 22" stroke="#2b2b33" stroke-width="7" fill="none" stroke-linecap="round"/>
    <g transform="translate(150 -84)">
      <ellipse cx="0" cy="0" rx="44" ry="34" fill="#ffffff" stroke="#2b2b33" stroke-width="5"/>
      <path d="M 24 4 q 24 2 26 16 q -2 14 -24 12 q -16 -2 -20 -14 z" fill="#5a4f49" stroke="#2b2b33" stroke-width="4"/>
      <circle cx="38" cy="14" r="3.4" fill="#2b2b33"/>
      <g transform="translate(34 22)"><ellipse cx="0" cy="5.4" rx="5.4" ry="7.2" fill="#2b2b33"/></g>
      <path d="M -20 -28 l -12 -26 l 22 12 z" fill="#ffffff" stroke="#2b2b33" stroke-width="4"/>
      <path d="M -24 -46 l 8 18" stroke="#2b2b33" stroke-width="4"/>
      <path d="M -34 -12 q -6 12 -2 22 M -14 -22 q -4 10 -2 18" stroke="#2b2b33" stroke-width="6" fill="none" stroke-linecap="round"/>
      <g transform="translate(6 -4)"><g class="anim-blink"><circle cx="0" cy="0" r="9.9" fill="#6b4a2f"/><circle cx="2.75" cy="-3.3000000000000003" r="3.3000000000000003" fill="#fff"/></g></g>
      <path d="M -42 -22 q -14 -18 -2 -30 q 12 -8 18 6 M -22 -34 q -8 -18 6 -24 q 12 -4 12 10 M -2 -40 q -2 -18 12 -18 q 12 2 6 16" fill="#2b2b33"/>
    </g>
    </g>
    </g>
  </g>
</svg>
