<svg xmlns="http://www.w3.org/2000/svg" viewBox="0 0 1600 1000" role="img">
<style>
@media (prefers-reduced-motion: no-preference) {
  .anim-idle { animation: idle 3.8s ease-in-out infinite alternate; }
  @keyframes idle { from { transform: translateY(0); } to { transform: translateY(-6px); } }
  .anim-tail { transform-box: fill-box; transform-origin: 100% 20%; animation: tail 2.6s ease-in-out infinite alternate; }
  @keyframes tail { from { transform: rotate(-6deg); } to { transform: rotate(8deg); } }
  .anim-blink { transform-box: fill-box; transform-origin: center; animation: blink 5.2s infinite; }
  @keyframes blink { 0%, 93%, 100% { transform: scaleY(1); } 95%, 97% { transform: scaleY(0.12); } }
  .anim-glow { transform-box: fill-box; transform-origin: center; animation: glow 4.2s ease-in-out infinite alternate; }
  @keyframes glow { from { transform: scale(1); opacity: 0.5; } to { transform: scale(1.08); opacity: 0.75; } }
  .anim-shimmer { animation: shimmer 5s ease-in-out infinite alternate; }
  @keyframes shimmer { from { opacity: 0.62; } to { opacity: 0.92; } }
  .anim-grass { transform-box: fill-box; transform-origin: 50% 100%; animation: sway 3.2s ease-in-out infinite alternate; }
  .anim-canopy { transform-box: fill-box; transform-origin: 50% 100%; animation: sway 5.6s ease-in-out infinite alternate; }
  @keyframes sway { from { transform: rotate(-1.8deg); } to { transform: rotate(2.2deg); } }
  .anim-rain { animation: rainfall 1.15s linear infinite; }
  @keyframes rainfall { from { transform: translateY(-32px); opacity: 0.85; } 75% { opacity: 0.55; } to { transform: translateY(72px); opacity: 0; } }
  .anim-ripple { transform-box: fill-box; transform-origin: center; animation: ripple 3.4s ease-in-out infinite alternate; }
  @keyframes ripple { from { transform: scale(1); opacity: 0.8; } to { transform: scale(1.18); opacity: 0.55; } }
  .anim-drip { animation: drip 1s ease-in infinite; }
  @keyframes drip { from { transform: translateY(-12px); opacity: 0.95; } to { transform: translateY(28px); opacity: 0; } }
  .anim-flow { stroke-dasharray: 26 20; animation: flow 0.8s linear infinite; }
  @keyframes flow { from { stroke-dashoffset: 0; } to { stroke-dashoffset: -46; } }
  .anim-splash { transform-box: fill-box; transform-origin: 50% 100%; animation: splashPulse 1.7s ease-in-out infinite alternate; }
  @keyframes splashPulse { from { transform: scale(0.97); } to { transform: scale(1.05); } }
  .anim-strain { transform-box: fill-box; transform-origin: center; animation: strain 0.9s ease-in-out infinite alternate; }
  @keyframes strain { from { transform: translateX(-5px); } to { transform: translateX(4px); } }
  .anim-float { transform-box: fill-box; transform-origin: center; animation: floaty 2.6s ease-in-out infinite alternate; }
  @keyframes floaty { from { transform: translateY(0) scale(1); } to { transform: translateY(-12px) scale(1.08); } }
  .anim-wave { animation: wave 2.4s ease-in-out infinite; opacity: 0; }
  @keyframes wave { 0% { opacity: 0; } 30% { opacity: 0.9; } 60%, 100% { opacity: 0; } }
  .anim-cloud { animation: cloudDrift 9s ease-in-out infinite alternate; }
  @keyframes cloudDrift { from { transform: translateX(-18px); } to { transform: translateX(22px); } }
  .tap-target { cursor: pointer; }
  .tap-target.tap-play { transform-box: fill-box; transform-origin: 50% 85%; animation: tapWiggle 0.7s ease-in-out; }
  .tap-target[data-tap="puddle"].tap-play { transform-origin: center; animation: tapSplash 0.85s ease-out; }
  .tap-target[data-tap="sun"].tap-play { transform-origin: center; animation: tapPulse 0.6s ease-in-out; }
  .tap-target[data-tap="tree"].tap-play { transform-origin: 50% 100%; animation: tapShake 0.7s ease-in-out; }
  @keyframes tapWiggle { 0% { transform: rotate(0); } 25% { transform: rotate(-4deg) scale(1.03); } 55% { transform: rotate(3deg) scale(1.04); } 80% { transform: rotate(-1.5deg); } 100% { transform: rotate(0); } }
  @keyframes tapSplash { 0% { transform: scale(1); } 40% { transform: scale(1.06, 0.94); } 70% { transform: scale(0.97, 1.03); } 100% { transform: scale(1); } }
  @keyframes tapPulse { 0% { transform: scale(1); } 50% { transform: scale(1.12); } 100% { transform: scale(1); } }
  @keyframes tapShake { 0% { transform: rotate(0); } 20% { transform: rotate(2.4deg); } 45% { transform: rotate(-2deg); } 70% { transform: rotate(1.2deg); } 100% { transform: rotate(0); } }
  .tap-burst { opacity: 0; }
  .tap-target.tap-play .tap-burst { opacity: 1; }
  .tap-target.tap-play .tap-burst circle { animation: burstUp 0.6s ease-out forwards; }
  @keyframes burstUp { from { transform: translateY(0); opacity: 0.95; } to { transform: translateY(-90px); opacity: 0; } }
}
</style>
<defs><linearGradient id="sky" x1="0" y1="0" x2="0" y2="1"><stop offset="0" stop-color="#9fb4c6"/><stop offset="1" stop-color="#d7e2ea"/></linearGradient></defs>
    <rect width="1600" height="1000" fill="url(#sky)"/><path d="M 0 560 q 260 -110 520 -30 q 300 90 620 -20 q 240 -76 460 10 L 1600 640 L 0 640 Z" fill="#a9c4dd" opacity="0.55"/><rect x="0" y="590" width="1600" height="410" fill="#e7cd7f"/>
    <path d="M 0 720 q 400 -50 800 0 q 400 50 800 0 L 1600 1000 L 0 1000 Z" fill="#d9b45f"/>
    <g class="anim-grass" style="animation-delay:1.00s"><path d="M 120 780 q 6 -34 14 -40 q 2 24 10 38 q 10 -18 18 -22 q -2 22 -8 34 z" fill="#c39c48" opacity="0.8"/></g><g class="anim-grass" style="animation-delay:0.50s"><path d="M 380 860 q 6 -34 14 -40 q 2 24 10 38 q 10 -18 18 -22 q -2 22 -8 34 z" fill="#c39c48" opacity="0.8"/></g><g class="anim-grass" style="animation-delay:2.50s"><path d="M 660 780 q 6 -34 14 -40 q 2 24 10 38 q 10 -18 18 -22 q -2 22 -8 34 z" fill="#c39c48" opacity="0.8"/></g><g class="anim-grass" style="animation-delay:1.50s"><path d="M 940 820 q 6 -34 14 -40 q 2 24 10 38 q 10 -18 18 -22 q -2 22 -8 34 z" fill="#c39c48" opacity="0.8"/></g><g class="anim-grass" style="animation-delay:0.00s"><path d="M 1240 820 q 6 -34 14 -40 q 2 24 10 38 q 10 -18 18 -22 q -2 22 -8 34 z" fill="#c39c48" opacity="0.8"/></g><g class="anim-grass" style="animation-delay:0.00s"><path d="M 1480 820 q 6 -34 14 -40 q 2 24 10 38 q 10 -18 18 -22 q -2 22 -8 34 z" fill="#c39c48" opacity="0.8"/></g><line class="anim-rain" style="animation-delay:0.00s" x1="0" y1="40" x2="-10" y2="74" stroke="#7d97ad" stroke-width="5" stroke-linecap="round" opacity="0.7"/><line class="anim-rain" style="animation-delay:0.09s" x1="137" y1="251" x2="127" y2="285" stroke="#7d97ad" stroke-width="5" stroke-linecap="round" opacity="0.7"/><line class="anim-rain" style="animation-delay:0.18s" x1="274" y1="462" x2="264" y2="496" stroke="#7d97ad" stroke-width="5" stroke-linecap="round" opacity="0.7"/><line class="anim-rain" style="animation-delay:0.27s" x1="411" y1="153" x2="401" y2="187" stroke="#7d97ad" stroke-width="5" stroke-linecap="round" opacity="0.7"/><line class="anim-rain" style="animation-delay:0.35s" x1="548" y1="364" x2="538" y2="398" stroke="#7d97ad" stroke-width="5" stroke-linecap="round" opacity="0.7"/><line class="anim-rain" style="animation-delay:0.44s" x1="685" y1="55" x2="675" y2="89" stroke="#7d97ad" stroke-width="5" stroke-linecap="round" opacity="0.7"/><line class="anim-rain" style="animation-delay:0.53s" x1="822" y1="266" x2="812" y2="300" stroke="#7d97ad" stroke-width="5" stroke-linecap="round" opacity="0.7"/><line class="anim-rain" style="animation-delay:0.62s" x1="959" y1="477" x2="949" y2="511" stroke="#7d97ad" stroke-width="5" stroke-linecap="round" opacity="0.7"/><line class="anim-rain" style="animation-delay:0.71s" x1="1096" y1="168" x2="1086" y2="202" stroke="#7d97ad" stroke-width="5" stroke-linecap="round" opacity="0.7"/><line class="anim-rain" style="animation-delay:0.80s" x1="1233" y1="379" x2="1223" y2="413" stroke="#7d97ad" stroke-width="5" stroke-linecap="round" opacity="0.7"/><line class="anim-rain" style="animation-delay:0.88s" x1="1370" y1="70" x2="1360" y2="104" stroke="#7d97ad" stroke-width="5" stroke-linecap="round" opacity="0.7"/><line class="anim-rain" style="animation-delay:0.97s" x1="1507" y1="281" x2="1497" y2="315" stroke="#7d97ad" stroke-width="5" stroke-linecap="round" opacity="0.7"/><line class="anim-rain" style="animation-delay:1.06s" x1="44" y1="492" x2="34" y2="526" stroke="#7d97ad" stroke-width="5" stroke-linecap="round" opacity="0.7"/><line class="anim-rain" style="animation-delay:0.00s" x1="181" y1="183" x2="171" y2="217" stroke="#7d97ad" stroke-width="5" stroke-linecap="round" opacity="0.7"/><line class="anim-rain" style="animation-delay:0.09s" x1="318" y1="394" x2="308" y2="428" stroke="#7d97ad" stroke-width="5" stroke-linecap="round" opacity="0.7"/><line class="anim-rain" style="animation-delay:0.18s" x1="455" y1="85" x2="445" y2="119" stroke="#7d97ad" stroke-width="5" stroke-linecap="round" opacity="0.7"/><line class="anim-rain" style="animation-delay:0.27s" x1="592" y1="296" x2="582" y2="330" stroke="#7d97ad" stroke-width="5" stroke-linecap="round" opacity="0.7"/><line class="anim-rain" style="animation-delay:0.35s" x1="729" y1="507" x2="719" y2="541" stroke="#7d97ad" stroke-width="5" stroke-linecap="round" opacity="0.7"/><line class="anim-rain" style="animation-delay:0.44s" x1="866" y1="198" x2="856" y2="232" stroke="#7d97ad" stroke-width="5" stroke-linecap="round" opacity="0.7"/><line class="anim-rain" style="animation-delay:0.53s" x1="1003" y1="409" x2="993" y2="443" stroke="#7d97ad" stroke-width="5" stroke-linecap="round" opacity="0.7"/><line class="anim-rain" style="animation-delay:0.62s" x1="1140" y1="100" x2="1130" y2="134" stroke="#7d97ad" stroke-width="5" stroke-linecap="round" opacity="0.7"/><line class="anim-rain" style="animation-delay:0.71s" x1="1277" y1="311" x2="1267" y2="345" stroke="#7d97ad" stroke-width="5" stroke-linecap="round" opacity="0.7"/><line class="anim-rain" style="animation-delay:0.80s" x1="1414" y1="522" x2="1404" y2="556" stroke="#7d97ad" stroke-width="5" stroke-linecap="round" opacity="0.7"/><line class="anim-rain" style="animation-delay:0.88s" x1="1551" y1="213" x2="1541" y2="247" stroke="#7d97ad" stroke-width="5" stroke-linecap="round" opacity="0.7"/><line class="anim-rain" style="animation-delay:0.97s" x1="88" y1="424" x2="78" y2="458" stroke="#7d97ad" stroke-width="5" stroke-linecap="round" opacity="0.7"/><line class="anim-rain" style="animation-delay:1.06s" x1="225" y1="115" x2="215" y2="149" stroke="#7d97ad" stroke-width="5" stroke-linecap="round" opacity="0.7"/><line class="anim-rain" style="animation-delay:0.00s" x1="362" y1="326" x2="352" y2="360" stroke="#7d97ad" stroke-width="5" stroke-linecap="round" opacity="0.7"/><line class="anim-rain" style="animation-delay:0.09s" x1="499" y1="537" x2="489" y2="571" stroke="#7d97ad" stroke-width="5" stroke-linecap="round" opacity="0.7"/><line class="anim-rain" style="animation-delay:0.18s" x1="636" y1="228" x2="626" y2="262" stroke="#7d97ad" stroke-width="5" stroke-linecap="round" opacity="0.7"/><line class="anim-rain" style="animation-delay:0.27s" x1="773" y1="439" x2="763" y2="473" stroke="#7d97ad" stroke-width="5" stroke-linecap="round" opacity="0.7"/><line class="anim-rain" style="animation-delay:0.35s" x1="910" y1="130" x2="900" y2="164" stroke="#7d97ad" stroke-width="5" stroke-linecap="round" opacity="0.7"/><line class="anim-rain" style="animation-delay:0.44s" x1="1047" y1="341" x2="1037" y2="375" stroke="#7d97ad" stroke-width="5" stroke-linecap="round" opacity="0.7"/><line class="anim-rain" style="animation-delay:0.53s" x1="1184" y1="552" x2="1174" y2="586" stroke="#7d97ad" stroke-width="5" stroke-linecap="round" opacity="0.7"/><line class="anim-rain" style="animation-delay:0.62s" x1="1321" y1="243" x2="1311" y2="277" stroke="#7d97ad" stroke-width="5" stroke-linecap="round" opacity="0.7"/><line class="anim-rain" style="animation-delay:0.71s" x1="1458" y1="454" x2="1448" y2="488" stroke="#7d97ad" stroke-width="5" stroke-linecap="round" opacity="0.7"/><line class="anim-rain" style="animation-delay:0.80s" x1="1595" y1="145" x2="1585" y2="179" stroke="#7d97ad" stroke-width="5" stroke-linecap="round" opacity="0.7"/><line class="anim-rain" style="animation-delay:0.88s" x1="132" y1="356" x2="122" y2="390" stroke="#7d97ad" stroke-width="5" stroke-linecap="round" opacity="0.7"/><line class="anim-rain" style="animation-delay:0.97s" x1="269" y1="47" x2="259" y2="81" stroke="#7d97ad" stroke-width="5" stroke-linecap="round" opacity="0.7"/><line class="anim-rain" style="animation-delay:1.06s" x1="406" y1="258" x2="396" y2="292" stroke="#7d97ad" stroke-width="5" stroke-linecap="round" opacity="0.7"/><line class="anim-rain" style="animation-delay:0.00s" x1="543" y1="469" x2="533" y2="503" stroke="#7d97ad" stroke-width="5" stroke-linecap="round" opacity="0.7"/><line class="anim-rain" style="animation-delay:0.09s" x1="680" y1="160" x2="670" y2="194" stroke="#7d97ad" stroke-width="5" stroke-linecap="round" opacity="0.7"/><line class="anim-rain" style="animation-delay:0.18s" x1="817" y1="371" x2="807" y2="405" stroke="#7d97ad" stroke-width="5" stroke-linecap="round" opacity="0.7"/><line class="anim-rain" style="animation-delay:0.27s" x1="954" y1="62" x2="944" y2="96" stroke="#7d97ad" stroke-width="5" stroke-linecap="round" opacity="0.7"/><line class="anim-rain" style="animation-delay:0.35s" x1="1091" y1="273" x2="1081" y2="307" stroke="#7d97ad" stroke-width="5" stroke-linecap="round" opacity="0.7"/><line class="anim-rain" style="animation-delay:0.44s" x1="1228" y1="484" x2="1218" y2="518" stroke="#7d97ad" stroke-width="5" stroke-linecap="round" opacity="0.7"/><line class="anim-rain" style="animation-delay:0.53s" x1="1365" y1="175" x2="1355" y2="209" stroke="#7d97ad" stroke-width="5" stroke-linecap="round" opacity="0.7"/><line class="anim-rain" style="animation-delay:0.62s" x1="1502" y1="386" x2="1492" y2="420" stroke="#7d97ad" stroke-width="5" stroke-linecap="round" opacity="0.7"/><line class="anim-rain" style="animation-delay:0.71s" x1="39" y1="77" x2="29" y2="111" stroke="#7d97ad" stroke-width="5" stroke-linecap="round" opacity="0.7"/><line class="anim-rain" style="animation-delay:0.80s" x1="176" y1="288" x2="166" y2="322" stroke="#7d97ad" stroke-width="5" stroke-linecap="round" opacity="0.7"/><line class="anim-rain" style="animation-delay:0.88s" x1="313" y1="499" x2="303" y2="533" stroke="#7d97ad" stroke-width="5" stroke-linecap="round" opacity="0.7"/><line class="anim-rain" style="animation-delay:0.97s" x1="450" y1="190" x2="440" y2="224" stroke="#7d97ad" stroke-width="5" stroke-linecap="round" opacity="0.7"/><line class="anim-rain" style="animation-delay:1.06s" x1="587" y1="401" x2="577" y2="435" stroke="#7d97ad" stroke-width="5" stroke-linecap="round" opacity="0.7"/><line class="anim-rain" style="animation-delay:0.00s" x1="724" y1="92" x2="714" y2="126" stroke="#7d97ad" stroke-width="5" stroke-linecap="round" opacity="0.7"/><line class="anim-rain" style="animation-delay:0.09s" x1="861" y1="303" x2="851" y2="337" stroke="#7d97ad" stroke-width="5" stroke-linecap="round" opacity="0.7"/><line class="anim-rain" style="animation-delay:0.18s" x1="998" y1="514" x2="988" y2="548" stroke="#7d97ad" stroke-width="5" stroke-linecap="round" opacity="0.7"/><line class="anim-rain" style="animation-delay:0.27s" x1="1135" y1="205" x2="1125" y2="239" stroke="#7d97ad" stroke-width="5" stroke-linecap="round" opacity="0.7"/><line class="anim-rain" style="animation-delay:0.35s" x1="1272" y1="416" x2="1262" y2="450" stroke="#7d97ad" stroke-width="5" stroke-linecap="round" opacity="0.7"/><line class="anim-rain" style="animation-delay:0.44s" x1="1409" y1="107" x2="1399" y2="141" stroke="#7d97ad" stroke-width="5" stroke-linecap="round" opacity="0.7"/><line class="anim-rain" style="animation-delay:0.53s" x1="1546" y1="318" x2="1536" y2="352" stroke="#7d97ad" stroke-width="5" stroke-linecap="round" opacity="0.7"/><line class="anim-rain" style="animation-delay:0.62s" x1="83" y1="529" x2="73" y2="563" stroke="#7d97ad" stroke-width="5" stroke-linecap="round" opacity="0.7"/>
   <g transform="translate(800 860) scale(1.5)"><g class="anim-canopy" style="animation-duration:4s">
    <path d="M 0 0 q -10 -60 -30 -80 M 0 0 q 4 -70 -2 -96" stroke="#5c7d43" stroke-width="9" fill="none" stroke-linecap="round"/>
    <path d="M -30 -80 q -90 -60 -60 -150 q 100 10 88 130 q -4 24 -28 20 z" fill="#79a15a" stroke="#5c7d43" stroke-width="5"/>
    <path d="M -44 -96 q -40 -50 -34 -110" stroke="#5c7d43" stroke-width="4" fill="none"/>
  </g></g>
   <g transform="translate(760 800) scale(1.8199999999999998 1.8199999999999998)">
    <g class="tap-target" data-tap="lulu" data-mood="happy">
    <g class="anim-idle" style="animation-delay:0.00s; animation-duration: 2.2s">
    <path d="M -22 6 l -26 14 l 4 -16 l -8 -8 q 16 -8 30 2 z" fill="#2e5480" stroke="#2b2b33" stroke-width="2.8"/>
    <ellipse cx="0" cy="0" rx="26" ry="18" fill="#3f6ea5" stroke="#2b2b33" stroke-width="3.4"/>
    <path d="M -4 6 q 14 10 26 4 q 2 -10 -6 -14 z" fill="#f2e8d5"/>
    <path d="M -8 -4 q -26 -8 -38 6 q 12 14 36 8 z" fill="#2e5480" stroke="#2b2b33" stroke-width="3"/>
    <circle cx="22" cy="-12" r="13" fill="#3f6ea5" stroke="#2b2b33" stroke-width="3.4"/>
    <path d="M 18 -4 q 8 6 12 2 q 0 -8 -8 -8 z" fill="#c96f45"/>
    <path d="M 33 -13 l 12 4 l -11 5 z" fill="#d9a05b" stroke="#2b2b33" stroke-width="2.4"/>
    <g transform="translate(20 -15)"><g class="anim-blink"><circle cx="0" cy="0" r="4.05" fill="#6b4a2f"/><circle cx="1.125" cy="-1.35" r="1.35" fill="#fff"/></g></g>
    <path d="M -4 17 l -2 9 M 6 17 l 2 9" stroke="#d9a05b" stroke-width="3" stroke-linecap="round"/>
    </g>
    </g>
  </g>
</svg>
