<svg xmlns="http://www.w3.org/2000/svg" viewBox="0 0 1600 1000" role="img">
<style>
@media (prefers-reduced-motion: no-preference) {
  .anim-idle { animation: idle 3.8s ease-in-out infinite alternate; }
  @keyframes idle { from { transform: translateY(0); } to { transform: translateY(-6px); } }
  .anim-tail { transform-box: fill-box; transform-origin: 100% 20%; animation: tail 2.6s ease-in-out infinite alternate; }
  @keyframes tail { from { transform: rotate(-6deg); } to { transform: rotate(8deg); } }
  .anim-blink { transform-box: fill-box; transform-origin: center; animation: blink 5.2s infinite; }
  @keyframes blink { 0%, 93%, 100% { transform: scaleY(1); } 95%, 97% { transform: scaleY(0.12); } }
  .anim-glow { transform-box: fill-box; transform-origin: center; animation: glow 4.2s ease-in-out infinite alternate; }
  @keyframes glow { from { transform: scale(1); opacity: 0.5; } to { transform: scale(1.08); opacity: 0.75; } }
  .anim-shimmer { animation: shimmer 5s ease-in-out infinite alternate; }
  @keyframes shimmer { from { opacity: 0.62; } to { opacity: 0.92; } }
  .anim-grass { transform-box: fill-box; transform-origin: 50% 100%; animation: sway 3.2s ease-in-out infinite alternate; }
  .anim-canopy { transform-box: fill-box; transform-origin: 50% 100%; animation: sway 5.6s ease-in-out infinite alternate; }
  @keyframes sway { from { transform: rotate(-1.8deg); } to { transform: rotate(2.2deg); } }
  .anim-rain { animation: rainfall 1.15s linear infinite; }
  @keyframes rainfall { from { transform: translateY(-32px); opacity: 0.85; } 75% { opacity: 0.55; } to { transform: translateY(72px); opacity: 0; } }
  .anim-ripple { transform-box: fill-box; transform-origin: center; animation: ripple 3.4s ease-in-out infinite alternate; }
  @keyframes ripple { from { transform: scale(1); opacity: 0.8; } to { transform: scale(1.18); opacity: 0.55; } }
  .anim-drip { animation: drip 1s ease-in infinite; }
  @keyframes drip { from { transform: translateY(-12px); opacity: 0.95; } to { transform: translateY(28px); opacity: 0; } }
  .anim-flow { stroke-dasharray: 26 20; animation: flow 0.8s linear infinite; }
  @keyframes flow { from { stroke-dashoffset: 0; } to { stroke-dashoffset: -46; } }
  .anim-splash { transform-box: fill-box; transform-origin: 50% 100%; animation: splashPulse 1.7s ease-in-out infinite alternate; }
  @keyframes splashPulse { from { transform: scale(0.97); } to { transform: scale(1.05); } }
  .anim-strain { transform-box: fill-box; transform-origin: center; animation: strain 0.9s ease-in-out infinite alternate; }
  @keyframes strain { from { transform: translateX(-5px); } to { transform: translateX(4px); } }
  .anim-float { transform-box: fill-box; transform-origin: center; animation: floaty 2.6s ease-in-out infinite alternate; }
  @keyframes floaty { from { transform: translateY(0) scale(1); } to { transform: translateY(-12px) scale(1.08); } }
  .anim-wave { animation: wave 2.4s ease-in-out infinite; opacity: 0; }
  @keyframes wave { 0% { opacity: 0; } 30% { opacity: 0.9; } 60%, 100% { opacity: 0; } }
  .anim-cloud { animation: cloudDrift 9s ease-in-out infinite alternate; }
  @keyframes cloudDrift { from { transform: translateX(-18px); } to { transform: translateX(22px); } }
  .tap-target { cursor: pointer; }
  .tap-target.tap-play { transform-box: fill-box; transform-origin: 50% 85%; animation: tapWiggle 0.7s ease-in-out; }
  .tap-target[data-tap="puddle"].tap-play { transform-origin: center; animation: tapSplash 0.85s ease-out; }
  .tap-target[data-tap="sun"].tap-play { transform-origin: center; animation: tapPulse 0.6s ease-in-out; }
  .tap-target[data-tap="tree"].tap-play { transform-origin: 50% 100%; animation: tapShake 0.7s ease-in-out; }
  @keyframes tapWiggle { 0% { transform: rotate(0); } 25% { transform: rotate(-4deg) scale(1.03); } 55% { transform: rotate(3deg) scale(1.04); } 80% { transform: rotate(-1.5deg); } 100% { transform: rotate(0); } }
  @keyframes tapSplash { 0% { transform: scale(1); } 40% { transform: scale(1.06, 0.94); } 70% { transform: scale(0.97, 1.03); } 100% { transform: scale(1); } }
  @keyframes tapPulse { 0% { transform: scale(1); } 50% { transform: scale(1.12); } 100% { transform: scale(1); } }
  @keyframes tapShake { 0% { transform: rotate(0); } 20% { transform: rotate(2.4deg); } 45% { transform: rotate(-2deg); } 70% { transform: rotate(1.2deg); } 100% { transform: rotate(0); } }
  .tap-burst { opacity: 0; }
  .tap-target.tap-play .tap-burst { opacity: 1; }
  .tap-target.tap-play .tap-burst circle { animation: burstUp 0.6s ease-out forwards; }
  @keyframes burstUp { from { transform: translateY(0); opacity: 0.95; } to { transform: translateY(-90px); opacity: 0; } }
}
</style>
<defs><linearGradient id="sky" x1="0" y1="0" x2="0" y2="1"><stop offset="0" stop-color="#bfe0f4"/><stop offset="1" stop-color="#eef8fd"/></linearGradient></defs>
    <rect width="1600" height="1000" fill="url(#sky)"/><g class="tap-target" data-tap="sun"><circle class="anim-glow" cx="1350" cy="160" r="120" fill="#fdeebc" opacity="0.6"/><circle cx="1350" cy="160" r="78" fill="#f9d976"/></g><path d="M 0 560 q 260 -110 520 -30 q 300 90 620 -20 q 240 -76 460 10 L 1600 640 L 0 640 Z" fill="#a9c4dd" opacity="0.55"/><rect x="0" y="590" width="1600" height="410" fill="#e7cd7f"/>
    <path d="M 0 720 q 400 -50 800 0 q 400 50 800 0 L 1600 1000 L 0 1000 Z" fill="#d9b45f"/>
    <g class="anim-grass" style="animation-delay:1.00s"><path d="M 120 780 q 6 -34 14 -40 q 2 24 10 38 q 10 -18 18 -22 q -2 22 -8 34 z" fill="#c39c48" opacity="0.8"/></g><g class="anim-grass" style="animation-delay:0.50s"><path d="M 380 860 q 6 -34 14 -40 q 2 24 10 38 q 10 -18 18 -22 q -2 22 -8 34 z" fill="#c39c48" opacity="0.8"/></g><g class="anim-grass" style="animation-delay:2.50s"><path d="M 660 780 q 6 -34 14 -40 q 2 24 10 38 q 10 -18 18 -22 q -2 22 -8 34 z" fill="#c39c48" opacity="0.8"/></g><g class="anim-grass" style="animation-delay:1.50s"><path d="M 940 820 q 6 -34 14 -40 q 2 24 10 38 q 10 -18 18 -22 q -2 22 -8 34 z" fill="#c39c48" opacity="0.8"/></g><g class="anim-grass" style="animation-delay:0.00s"><path d="M 1240 820 q 6 -34 14 -40 q 2 24 10 38 q 10 -18 18 -22 q -2 22 -8 34 z" fill="#c39c48" opacity="0.8"/></g><g class="anim-grass" style="animation-delay:0.00s"><path d="M 1480 820 q 6 -34 14 -40 q 2 24 10 38 q 10 -18 18 -22 q -2 22 -8 34 z" fill="#c39c48" opacity="0.8"/></g><g class="tap-target" data-tap="lake">
    <ellipse cx="800" cy="850" rx="560" ry="120" fill="#9cc8e0" stroke="#c4e1f0" stroke-width="8"/>
    <ellipse class="anim-ripple" cx="632" cy="814" rx="224" ry="36" fill="#c4e1f0" opacity="0.7"/>
    <ellipse class="anim-ripple" style="animation-delay:1.4s" cx="996" cy="874" rx="140" ry="24" fill="#c4e1f0" opacity="0.55"/>
  </g>
   <g transform="translate(750 760) scale(1.6)"><g class="tap-target" data-tap="fish"><g class="anim-float" style="animation-duration:2s">
    <path d="M -26 0 q 20 -18 44 0 q -20 18 -44 0 z" fill="#f2a541" stroke="#2b2b33" stroke-width="3.4"/>
    <path d="M -24 0 l -16 -12 l 0 24 z" fill="#e08a3c" stroke="#2b2b33" stroke-width="3"/>
    <circle cx="8" cy="-3" r="3" fill="#2b2b33"/>
    <path d="M -34 26 q 10 -6 20 0 M -10 34 q 10 -6 20 0" stroke="#c4e1f0" stroke-width="4" fill="none" stroke-linecap="round"/>
  </g></g></g>
   <g transform="translate(500 560) scale(2.25 2.25)">
    <g class="tap-target" data-tap="lulu" data-mood="happy">
    <g class="anim-float" style="animation-delay:0.27s; animation-duration: 2.2s">
    <path d="M -22 6 l -26 14 l 4 -16 l -8 -8 q 16 -8 30 2 z" fill="#2e5480" stroke="#2b2b33" stroke-width="2.8"/>
    <ellipse cx="0" cy="0" rx="26" ry="18" fill="#3f6ea5" stroke="#2b2b33" stroke-width="3.4"/>
    <path d="M -4 6 q 14 10 26 4 q 2 -10 -6 -14 z" fill="#f2e8d5"/>
    <path d="M -6 -8 q -30 -34 -64 -38 q 10 26 44 36 z" fill="#2e5480" stroke="#2b2b33" stroke-width="3"/>
       <path d="M 2 -6 q 18 -34 48 -42 q -2 26 -30 42 z" fill="#2e5480" stroke="#2b2b33" stroke-width="3"/>
    <circle cx="22" cy="-12" r="13" fill="#3f6ea5" stroke="#2b2b33" stroke-width="3.4"/>
    <path d="M 18 -4 q 8 6 12 2 q 0 -8 -8 -8 z" fill="#c96f45"/>
    <path d="M 33 -13 l 12 4 l -11 5 z" fill="#d9a05b" stroke="#2b2b33" stroke-width="2.4"/>
    <g transform="translate(20 -15)"><g class="anim-blink"><circle cx="0" cy="0" r="4.05" fill="#6b4a2f"/><circle cx="1.125" cy="-1.35" r="1.35" fill="#fff"/></g></g>
    
    </g>
    </g>
  </g>
</svg>
