<svg xmlns="http://www.w3.org/2000/svg" viewBox="0 0 1600 1000" role="img">
<style>
@media (prefers-reduced-motion: no-preference) {
  .anim-idle { animation: idle 3.8s ease-in-out infinite alternate; }
  @keyframes idle { from { transform: translateY(0); } to { transform: translateY(-6px); } }
  .anim-tail { transform-box: fill-box; transform-origin: 100% 20%; animation: tail 2.6s ease-in-out infinite alternate; }
  @keyframes tail { from { transform: rotate(-6deg); } to { transform: rotate(8deg); } }
  .anim-blink { transform-box: fill-box; transform-origin: center; animation: blink 5.2s infinite; }
  @keyframes blink { 0%, 93%, 100% { transform: scaleY(1); } 95%, 97% { transform: scaleY(0.12); } }
  .anim-glow { transform-box: fill-box; transform-origin: center; animation: glow 4.2s ease-in-out infinite alternate; }
  @keyframes glow { from { transform: scale(1); opacity: 0.5; } to { transform: scale(1.08); opacity: 0.75; } }
  .anim-shimmer { animation: shimmer 5s ease-in-out infinite alternate; }
  @keyframes shimmer { from { opacity: 0.62; } to { opacity: 0.92; } }
  .anim-grass { transform-box: fill-box; transform-origin: 50% 100%; animation: sway 3.2s ease-in-out infinite alternate; }
  .anim-canopy { transform-box: fill-box; transform-origin: 50% 100%; animation: sway 5.6s ease-in-out infinite alternate; }
  @keyframes sway { from { transform: rotate(-1.8deg); } to { transform: rotate(2.2deg); } }
  .anim-rain { animation: rainfall 1.15s linear infinite; }
  @keyframes rainfall { from { transform: translateY(-32px); opacity: 0.85; } 75% { opacity: 0.55; } to { transform: translateY(72px); opacity: 0; } }
  .anim-ripple { transform-box: fill-box; transform-origin: center; animation: ripple 3.4s ease-in-out infinite alternate; }
  @keyframes ripple { from { transform: scale(1); opacity: 0.8; } to { transform: scale(1.18); opacity: 0.55; } }
  .anim-drip { animation: drip 1s ease-in infinite; }
  @keyframes drip { from { transform: translateY(-12px); opacity: 0.95; } to { transform: translateY(28px); opacity: 0; } }
  .anim-flow { stroke-dasharray: 26 20; animation: flow 0.8s linear infinite; }
  @keyframes flow { from { stroke-dashoffset: 0; } to { stroke-dashoffset: -46; } }
  .anim-splash { transform-box: fill-box; transform-origin: 50% 100%; animation: splashPulse 1.7s ease-in-out infinite alternate; }
  @keyframes splashPulse { from { transform: scale(0.97); } to { transform: scale(1.05); } }
  .anim-strain { transform-box: fill-box; transform-origin: center; animation: strain 0.9s ease-in-out infinite alternate; }
  @keyframes strain { from { transform: translateX(-5px); } to { transform: translateX(4px); } }
  .anim-float { transform-box: fill-box; transform-origin: center; animation: floaty 2.6s ease-in-out infinite alternate; }
  @keyframes floaty { from { transform: translateY(0) scale(1); } to { transform: translateY(-12px) scale(1.08); } }
  .anim-wave { animation: wave 2.4s ease-in-out infinite; opacity: 0; }
  @keyframes wave { 0% { opacity: 0; } 30% { opacity: 0.9; } 60%, 100% { opacity: 0; } }
  .anim-cloud { animation: cloudDrift 9s ease-in-out infinite alternate; }
  @keyframes cloudDrift { from { transform: translateX(-18px); } to { transform: translateX(22px); } }
  .tap-target { cursor: pointer; }
  .tap-target.tap-play { transform-box: fill-box; transform-origin: 50% 85%; animation: tapWiggle 0.7s ease-in-out; }
  .tap-target[data-tap="puddle"].tap-play { transform-origin: center; animation: tapSplash 0.85s ease-out; }
  .tap-target[data-tap="sun"].tap-play { transform-origin: center; animation: tapPulse 0.6s ease-in-out; }
  .tap-target[data-tap="tree"].tap-play { transform-origin: 50% 100%; animation: tapShake 0.7s ease-in-out; }
  @keyframes tapWiggle { 0% { transform: rotate(0); } 25% { transform: rotate(-4deg) scale(1.03); } 55% { transform: rotate(3deg) scale(1.04); } 80% { transform: rotate(-1.5deg); } 100% { transform: rotate(0); } }
  @keyframes tapSplash { 0% { transform: scale(1); } 40% { transform: scale(1.06, 0.94); } 70% { transform: scale(0.97, 1.03); } 100% { transform: scale(1); } }
  @keyframes tapPulse { 0% { transform: scale(1); } 50% { transform: scale(1.12); } 100% { transform: scale(1); } }
  @keyframes tapShake { 0% { transform: rotate(0); } 20% { transform: rotate(2.4deg); } 45% { transform: rotate(-2deg); } 70% { transform: rotate(1.2deg); } 100% { transform: rotate(0); } }
  .tap-burst { opacity: 0; }
  .tap-target.tap-play .tap-burst { opacity: 1; }
  .tap-target.tap-play .tap-burst circle { animation: burstUp 0.6s ease-out forwards; }
  @keyframes burstUp { from { transform: translateY(0); opacity: 0.95; } to { transform: translateY(-90px); opacity: 0; } }
}
</style>
<rect width="1600" height="1000" fill="#3c4657"/>
  <rect x="0" y="0" width="152" height="72" rx="6" fill="#4a5668" stroke="#38414f" stroke-width="4"/><rect x="160" y="0" width="152" height="72" rx="6" fill="#4a5668" stroke="#38414f" stroke-width="4"/><rect x="320" y="0" width="152" height="72" rx="6" fill="#4a5668" stroke="#38414f" stroke-width="4"/><rect x="480" y="0" width="152" height="72" rx="6" fill="#4a5668" stroke="#38414f" stroke-width="4"/><rect x="640" y="0" width="152" height="72" rx="6" fill="#4a5668" stroke="#38414f" stroke-width="4"/><rect x="800" y="0" width="152" height="72" rx="6" fill="#4a5668" stroke="#38414f" stroke-width="4"/><rect x="960" y="0" width="152" height="72" rx="6" fill="#4a5668" stroke="#38414f" stroke-width="4"/><rect x="1120" y="0" width="152" height="72" rx="6" fill="#4a5668" stroke="#38414f" stroke-width="4"/><rect x="1280" y="0" width="152" height="72" rx="6" fill="#4a5668" stroke="#38414f" stroke-width="4"/><rect x="1440" y="0" width="152" height="72" rx="6" fill="#4a5668" stroke="#38414f" stroke-width="4"/><rect x="1600" y="0" width="152" height="72" rx="6" fill="#4a5668" stroke="#38414f" stroke-width="4"/><rect x="-80" y="80" width="152" height="72" rx="6" fill="#4a5668" stroke="#38414f" stroke-width="4"/><rect x="80" y="80" width="152" height="72" rx="6" fill="#4a5668" stroke="#38414f" stroke-width="4"/><rect x="240" y="80" width="152" height="72" rx="6" fill="#4a5668" stroke="#38414f" stroke-width="4"/><rect x="400" y="80" width="152" height="72" rx="6" fill="#4a5668" stroke="#38414f" stroke-width="4"/><rect x="560" y="80" width="152" height="72" rx="6" fill="#4a5668" stroke="#38414f" stroke-width="4"/><rect x="720" y="80" width="152" height="72" rx="6" fill="#4a5668" stroke="#38414f" stroke-width="4"/><rect x="880" y="80" width="152" height="72" rx="6" fill="#4a5668" stroke="#38414f" stroke-width="4"/><rect x="1040" y="80" width="152" height="72" rx="6" fill="#4a5668" stroke="#38414f" stroke-width="4"/><rect x="1200" y="80" width="152" height="72" rx="6" fill="#4a5668" stroke="#38414f" stroke-width="4"/><rect x="1360" y="80" width="152" height="72" rx="6" fill="#4a5668" stroke="#38414f" stroke-width="4"/><rect x="1520" y="80" width="152" height="72" rx="6" fill="#4a5668" stroke="#38414f" stroke-width="4"/><rect x="0" y="160" width="152" height="72" rx="6" fill="#4a5668" stroke="#38414f" stroke-width="4"/><rect x="160" y="160" width="152" height="72" rx="6" fill="#4a5668" stroke="#38414f" stroke-width="4"/><rect x="320" y="160" width="152" height="72" rx="6" fill="#4a5668" stroke="#38414f" stroke-width="4"/><rect x="480" y="160" width="152" height="72" rx="6" fill="#4a5668" stroke="#38414f" stroke-width="4"/><rect x="640" y="160" width="152" height="72" rx="6" fill="#4a5668" stroke="#38414f" stroke-width="4"/><rect x="800" y="160" width="152" height="72" rx="6" fill="#4a5668" stroke="#38414f" stroke-width="4"/><rect x="960" y="160" width="152" height="72" rx="6" fill="#4a5668" stroke="#38414f" stroke-width="4"/><rect x="1120" y="160" width="152" height="72" rx="6" fill="#4a5668" stroke="#38414f" stroke-width="4"/><rect x="1280" y="160" width="152" height="72" rx="6" fill="#4a5668" stroke="#38414f" stroke-width="4"/><rect x="1440" y="160" width="152" height="72" rx="6" fill="#4a5668" stroke="#38414f" stroke-width="4"/><rect x="1600" y="160" width="152" height="72" rx="6" fill="#4a5668" stroke="#38414f" stroke-width="4"/><rect x="-80" y="240" width="152" height="72" rx="6" fill="#4a5668" stroke="#38414f" stroke-width="4"/><rect x="80" y="240" width="152" height="72" rx="6" fill="#4a5668" stroke="#38414f" stroke-width="4"/><rect x="240" y="240" width="152" height="72" rx="6" fill="#4a5668" stroke="#38414f" stroke-width="4"/><rect x="400" y="240" width="152" height="72" rx="6" fill="#4a5668" stroke="#38414f" stroke-width="4"/><rect x="560" y="240" width="152" height="72" rx="6" fill="#4a5668" stroke="#38414f" stroke-width="4"/><rect x="720" y="240" width="152" height="72" rx="6" fill="#4a5668" stroke="#38414f" stroke-width="4"/><rect x="880" y="240" width="152" height="72" rx="6" fill="#4a5668" stroke="#38414f" stroke-width="4"/><rect x="1040" y="240" width="152" height="72" rx="6" fill="#4a5668" stroke="#38414f" stroke-width="4"/><rect x="1200" y="240" width="152" height="72" rx="6" fill="#4a5668" stroke="#38414f" stroke-width="4"/><rect x="1360" y="240" width="152" height="72" rx="6" fill="#4a5668" stroke="#38414f" stroke-width="4"/><rect x="1520" y="240" width="152" height="72" rx="6" fill="#4a5668" stroke="#38414f" stroke-width="4"/><rect x="0" y="320" width="152" height="72" rx="6" fill="#4a5668" stroke="#38414f" stroke-width="4"/><rect x="160" y="320" width="152" height="72" rx="6" fill="#4a5668" stroke="#38414f" stroke-width="4"/><rect x="320" y="320" width="152" height="72" rx="6" fill="#4a5668" stroke="#38414f" stroke-width="4"/><rect x="480" y="320" width="152" height="72" rx="6" fill="#4a5668" stroke="#38414f" stroke-width="4"/><rect x="640" y="320" width="152" height="72" rx="6" fill="#4a5668" stroke="#38414f" stroke-width="4"/><rect x="800" y="320" width="152" height="72" rx="6" fill="#4a5668" stroke="#38414f" stroke-width="4"/><rect x="960" y="320" width="152" height="72" rx="6" fill="#4a5668" stroke="#38414f" stroke-width="4"/><rect x="1120" y="320" width="152" height="72" rx="6" fill="#4a5668" stroke="#38414f" stroke-width="4"/><rect x="1280" y="320" width="152" height="72" rx="6" fill="#4a5668" stroke="#38414f" stroke-width="4"/><rect x="1440" y="320" width="152" height="72" rx="6" fill="#4a5668" stroke="#38414f" stroke-width="4"/><rect x="1600" y="320" width="152" height="72" rx="6" fill="#4a5668" stroke="#38414f" stroke-width="4"/><rect x="-80" y="400" width="152" height="72" rx="6" fill="#4a5668" stroke="#38414f" stroke-width="4"/><rect x="80" y="400" width="152" height="72" rx="6" fill="#4a5668" stroke="#38414f" stroke-width="4"/><rect x="240" y="400" width="152" height="72" rx="6" fill="#4a5668" stroke="#38414f" stroke-width="4"/><rect x="400" y="400" width="152" height="72" rx="6" fill="#4a5668" stroke="#38414f" stroke-width="4"/><rect x="560" y="400" width="152" height="72" rx="6" fill="#4a5668" stroke="#38414f" stroke-width="4"/><rect x="720" y="400" width="152" height="72" rx="6" fill="#4a5668" stroke="#38414f" stroke-width="4"/><rect x="880" y="400" width="152" height="72" rx="6" fill="#4a5668" stroke="#38414f" stroke-width="4"/><rect x="1040" y="400" width="152" height="72" rx="6" fill="#4a5668" stroke="#38414f" stroke-width="4"/><rect x="1200" y="400" width="152" height="72" rx="6" fill="#4a5668" stroke="#38414f" stroke-width="4"/><rect x="1360" y="400" width="152" height="72" rx="6" fill="#4a5668" stroke="#38414f" stroke-width="4"/><rect x="1520" y="400" width="152" height="72" rx="6" fill="#4a5668" stroke="#38414f" stroke-width="4"/><rect x="0" y="480" width="152" height="72" rx="6" fill="#4a5668" stroke="#38414f" stroke-width="4"/><rect x="160" y="480" width="152" height="72" rx="6" fill="#4a5668" stroke="#38414f" stroke-width="4"/><rect x="320" y="480" width="152" height="72" rx="6" fill="#4a5668" stroke="#38414f" stroke-width="4"/><rect x="480" y="480" width="152" height="72" rx="6" fill="#4a5668" stroke="#38414f" stroke-width="4"/><rect x="640" y="480" width="152" height="72" rx="6" fill="#4a5668" stroke="#38414f" stroke-width="4"/><rect x="800" y="480" width="152" height="72" rx="6" fill="#4a5668" stroke="#38414f" stroke-width="4"/><rect x="960" y="480" width="152" height="72" rx="6" fill="#4a5668" stroke="#38414f" stroke-width="4"/><rect x="1120" y="480" width="152" height="72" rx="6" fill="#4a5668" stroke="#38414f" stroke-width="4"/><rect x="1280" y="480" width="152" height="72" rx="6" fill="#4a5668" stroke="#38414f" stroke-width="4"/><rect x="1440" y="480" width="152" height="72" rx="6" fill="#4a5668" stroke="#38414f" stroke-width="4"/><rect x="1600" y="480" width="152" height="72" rx="6" fill="#4a5668" stroke="#38414f" stroke-width="4"/><rect x="-80" y="560" width="152" height="72" rx="6" fill="#4a5668" stroke="#38414f" stroke-width="4"/><rect x="80" y="560" width="152" height="72" rx="6" fill="#4a5668" stroke="#38414f" stroke-width="4"/><rect x="240" y="560" width="152" height="72" rx="6" fill="#4a5668" stroke="#38414f" stroke-width="4"/><rect x="400" y="560" width="152" height="72" rx="6" fill="#4a5668" stroke="#38414f" stroke-width="4"/><rect x="560" y="560" width="152" height="72" rx="6" fill="#4a5668" stroke="#38414f" stroke-width="4"/><rect x="720" y="560" width="152" height="72" rx="6" fill="#4a5668" stroke="#38414f" stroke-width="4"/><rect x="880" y="560" width="152" height="72" rx="6" fill="#4a5668" stroke="#38414f" stroke-width="4"/><rect x="1040" y="560" width="152" height="72" rx="6" fill="#4a5668" stroke="#38414f" stroke-width="4"/><rect x="1200" y="560" width="152" height="72" rx="6" fill="#4a5668" stroke="#38414f" stroke-width="4"/><rect x="1360" y="560" width="152" height="72" rx="6" fill="#4a5668" stroke="#38414f" stroke-width="4"/><rect x="1520" y="560" width="152" height="72" rx="6" fill="#4a5668" stroke="#38414f" stroke-width="4"/>
  <rect x="0" y="620" width="1600" height="380" fill="#6d6a63"/>
  <path d="M 0 620 h 1600" stroke="#8f8a80" stroke-width="10"/>
  <path d="M 0 700 h 1600" stroke="#f4c95d" stroke-width="12" stroke-dasharray="46 34"/>
   <g transform="translate(900 700) scale(0.86)">
    <path d="M -300 -20 v -140 q 0 -50 60 -50 h 460 q 40 0 40 40 v 150 z" fill="#e76f51" stroke="#2b2b33" stroke-width="5"/>
    <path d="M -300 -60 h 560" stroke="#a53a30" stroke-width="10"/>
    <rect x="-276" y="-118" width="58" height="52" rx="7" fill="#bfe0f4" stroke="#2b2b33" stroke-width="3.6"/><rect x="-190" y="-118" width="58" height="52" rx="7" fill="#bfe0f4" stroke="#2b2b33" stroke-width="3.6"/><rect x="-104" y="-118" width="58" height="52" rx="7" fill="#bfe0f4" stroke="#2b2b33" stroke-width="3.6"/><rect x="-18" y="-118" width="58" height="52" rx="7" fill="#bfe0f4" stroke="#2b2b33" stroke-width="3.6"/><rect x="68" y="-118" width="58" height="52" rx="7" fill="#bfe0f4" stroke="#2b2b33" stroke-width="3.6"/><rect x="154" y="-118" width="58" height="52" rx="7" fill="#bfe0f4" stroke="#2b2b33" stroke-width="3.6"/>
    <path d="M -252 -186 q 24 -18 52 0" stroke="#5f5f68" stroke-width="6" fill="none"/>
    <g class="anim-glow"><circle cx="252" cy="-96" r="24" fill="#f4c95d" opacity="0.8"/></g>
    <circle cx="252" cy="-96" r="14" fill="#fff3cd" stroke="#2b2b33" stroke-width="3.4"/>
    <path class="anim-flow" d="M -320 -14 h 620" stroke="#8f8f96" stroke-width="8" stroke-linecap="round"/>
    <path d="M -340 6 h 660" stroke="#5f5f68" stroke-width="10" stroke-linecap="round"/>
  </g>
   <g transform="translate(300 700) scale(2.5 2.5)">
    <ellipse cx="0" cy="56" rx="30" ry="8" fill="#2b2b33" opacity="0.10"/>
    <g class="tap-target" data-tap="zuri" data-mood="surprised">
    <g class="anim-idle" style="animation-delay:1.00s">
    <g class="anim-tail" style="animation-delay:1.00s">
    <path d="M -18 30 q -40 12 -34 -26 q 2 -12 11 -9 q -2 22 25 27 z" fill="#c9a06c" stroke="#2b2b33" stroke-width="3.2"/>
    <path d="M -46 -4 q -8 -6 -6 -14 q 8 0 10 12 z" fill="#5a4a3a"/>
  </g>
    <path d="M -20 46 q -6 -44 20 -44 q 26 0 20 44 z" fill="#c9a06c" stroke="#2b2b33" stroke-width="3.6"/>
    <ellipse cx="1" cy="24" rx="12" ry="20" fill="#efe2cb"/>
    <g transform="translate(-17 -8) rotate(22)"><rect x="-4.5" y="0" width="9" height="34" rx="4.5" fill="#c9a06c" stroke="#2b2b33" stroke-width="3"/><circle cx="0" cy="36" r="6" fill="#efe2cb" stroke="#2b2b33" stroke-width="2.6"/></g><g transform="translate(16 -8) rotate(-22)"><rect x="-4.5" y="0" width="9" height="34" rx="4.5" fill="#c9a06c" stroke="#2b2b33" stroke-width="3"/><circle cx="0" cy="36" r="6" fill="#efe2cb" stroke="#2b2b33" stroke-width="2.6"/></g>
    
    <g transform="translate(-10 44)"><rect x="-5" y="0" width="10" height="16" rx="5" fill="#ab8253" stroke="#2b2b33" stroke-width="3"/></g>
    <g transform="translate(11 44)"><rect x="-5" y="0" width="10" height="16" rx="5" fill="#ab8253" stroke="#2b2b33" stroke-width="3"/></g>
    <g transform="translate(0 -24)">
      <circle cx="-19" cy="-13" r="8" fill="#ab8253" stroke="#2b2b33" stroke-width="2.8"/>
      <circle cx="19" cy="-13" r="8" fill="#ab8253" stroke="#2b2b33" stroke-width="2.8"/>
      <circle cx="0" cy="0" r="21" fill="#c9a06c" stroke="#2b2b33" stroke-width="3.6"/>
      <path d="M 14 2 q 20 1 21 11 q -2 10 -19 9 q -13 -2 -15 -10 z" fill="#efe2cb" stroke="#2b2b33" stroke-width="2.8"/>
      <circle cx="31" cy="10" r="3" fill="#2b2b33"/>
      <ellipse cx="-8" cy="-3" rx="9" ry="8" fill="#5a4a3a" opacity="0.9"/>
      <ellipse cx="10" cy="-6" rx="8" ry="7" fill="#5a4a3a" opacity="0.9"/>
      <g transform="translate(-8 -3)"><g class="anim-blink"><circle cx="0" cy="0" r="5.3999999999999995" fill="#6b4a2f"/><circle cx="1.5" cy="-1.7999999999999998" r="1.7999999999999998" fill="#fff"/></g></g>
      <g transform="translate(10 -6)"><g class="anim-blink"><circle cx="0" cy="0" r="4.95" fill="#6b4a2f"/><circle cx="1.375" cy="-1.6500000000000001" r="1.6500000000000001" fill="#fff"/></g></g>
      <g transform="translate(18 16)"><ellipse cx="0" cy="3" rx="3" ry="4" fill="#2b2b33"/></g>
    </g>
    </g>
    </g>
  </g>
   <g transform="translate(490 706) scale(2.1 2.1)">
    <ellipse cx="0" cy="58" rx="34" ry="8" fill="#2b2b33" opacity="0.10"/>
    <g class="tap-target" data-tap="kiki" data-mood="surprised">
    <g class="anim-idle" style="animation-delay:0.53s">
    <g class="anim-tail" style="animation-delay:0.53s">
    <path d="M -24 26 q -38 6 -42 -26 q 0 -12 10 -9 q 2 22 30 25 z" fill="#8f9a86" stroke="#2b2b33" stroke-width="3.4"/>
  </g>
    <ellipse cx="0" cy="18" rx="28" ry="32" fill="#8f9a86" stroke="#2b2b33" stroke-width="3.8"/>
    <ellipse cx="2" cy="26" rx="15" ry="18" fill="#e8dcc8"/>
    <g transform="translate(-18 -6) rotate(20)"><rect x="-5" y="0" width="10" height="40" rx="5" fill="#8f9a86" stroke="#2b2b33" stroke-width="3"/><circle cx="0" cy="42" r="7" fill="#e8dcc8" stroke="#2b2b33" stroke-width="2.6"/></g><g transform="translate(18 -6) rotate(-20)"><rect x="-5" y="0" width="10" height="40" rx="5" fill="#8f9a86" stroke="#2b2b33" stroke-width="3"/><circle cx="0" cy="42" r="7" fill="#e8dcc8" stroke="#2b2b33" stroke-width="2.6"/></g>
    <g transform="translate(-11 44)"><rect x="-5" y="0" width="10" height="20" rx="5" fill="#8f9a86" stroke="#2b2b33" stroke-width="3"/></g>
    <g transform="translate(12 44)"><rect x="-5" y="0" width="10" height="20" rx="5" fill="#8f9a86" stroke="#2b2b33" stroke-width="3"/></g>
    <g transform="translate(0 -22)">
      <circle cx="0" cy="0" r="24" fill="#8f9a86" stroke="#2b2b33" stroke-width="3.8"/>
      <path d="M -24 -8 q -10 -4 -12 4 q 4 8 14 4 z M 24 -8 q 10 -4 12 4 q -4 8 -14 4 z" fill="#e8dcc8" stroke="#2b2b33" stroke-width="2.6"/>
      <ellipse cx="1" cy="7" rx="16" ry="14" fill="#e8dcc8"/>
      <circle cx="-21" cy="-4" r="8" fill="#8f9a86" stroke="#2b2b33" stroke-width="3"/>
      <circle cx="21" cy="-4" r="8" fill="#8f9a86" stroke="#2b2b33" stroke-width="3"/>
      <path d="M -8 -22 q -2 -12 6 -14 q 8 0 6 12 M 4 -23 q 4 -10 10 -8 q 6 4 0 12" fill="#8f9a86" stroke="#2b2b33" stroke-width="2.6"/>
      <g transform="translate(1 -1)"><g class="anim-blink"><circle cx="0" cy="0" r="6.4799999999999995" fill="#6b4a2f"/><circle cx="1.7999999999999998" cy="-2.16" r="2.16" fill="#fff"/></g></g>
      <g transform="translate(1 9)"><ellipse cx="0" cy="3.5999999999999996" rx="3.5999999999999996" ry="4.8" fill="#2b2b33"/></g>
    </g>
    </g>
    </g>
  </g>
</svg>
