<svg xmlns="http://www.w3.org/2000/svg" viewBox="0 0 1600 1000" role="img">
<style>
@media (prefers-reduced-motion: no-preference) {
  .anim-idle { animation: idle 3.8s ease-in-out infinite alternate; }
  @keyframes idle { from { transform: translateY(0); } to { transform: translateY(-6px); } }
  .anim-tail { transform-box: fill-box; transform-origin: 100% 20%; animation: tail 2.6s ease-in-out infinite alternate; }
  @keyframes tail { from { transform: rotate(-6deg); } to { transform: rotate(8deg); } }
  .anim-blink { transform-box: fill-box; transform-origin: center; animation: blink 5.2s infinite; }
  @keyframes blink { 0%, 93%, 100% { transform: scaleY(1); } 95%, 97% { transform: scaleY(0.12); } }
  .anim-glow { transform-box: fill-box; transform-origin: center; animation: glow 4.2s ease-in-out infinite alternate; }
  @keyframes glow { from { transform: scale(1); opacity: 0.5; } to { transform: scale(1.08); opacity: 0.75; } }
  .anim-shimmer { animation: shimmer 5s ease-in-out infinite alternate; }
  @keyframes shimmer { from { opacity: 0.62; } to { opacity: 0.92; } }
  .anim-grass { transform-box: fill-box; transform-origin: 50% 100%; animation: sway 3.2s ease-in-out infinite alternate; }
  .anim-canopy { transform-box: fill-box; transform-origin: 50% 100%; animation: sway 5.6s ease-in-out infinite alternate; }
  @keyframes sway { from { transform: rotate(-1.8deg); } to { transform: rotate(2.2deg); } }
  .anim-rain { animation: rainfall 1.15s linear infinite; }
  @keyframes rainfall { from { transform: translateY(-32px); opacity: 0.85; } 75% { opacity: 0.55; } to { transform: translateY(72px); opacity: 0; } }
  .anim-ripple { transform-box: fill-box; transform-origin: center; animation: ripple 3.4s ease-in-out infinite alternate; }
  @keyframes ripple { from { transform: scale(1); opacity: 0.8; } to { transform: scale(1.18); opacity: 0.55; } }
  .anim-drip { animation: drip 1s ease-in infinite; }
  @keyframes drip { from { transform: translateY(-12px); opacity: 0.95; } to { transform: translateY(28px); opacity: 0; } }
  .anim-flow { stroke-dasharray: 26 20; animation: flow 0.8s linear infinite; }
  @keyframes flow { from { stroke-dashoffset: 0; } to { stroke-dashoffset: -46; } }
  .anim-splash { transform-box: fill-box; transform-origin: 50% 100%; animation: splashPulse 1.7s ease-in-out infinite alternate; }
  @keyframes splashPulse { from { transform: scale(0.97); } to { transform: scale(1.05); } }
  .anim-strain { transform-box: fill-box; transform-origin: center; animation: strain 0.9s ease-in-out infinite alternate; }
  @keyframes strain { from { transform: translateX(-5px); } to { transform: translateX(4px); } }
  .anim-float { transform-box: fill-box; transform-origin: center; animation: floaty 2.6s ease-in-out infinite alternate; }
  @keyframes floaty { from { transform: translateY(0) scale(1); } to { transform: translateY(-12px) scale(1.08); } }
  .anim-wave { animation: wave 2.4s ease-in-out infinite; opacity: 0; }
  @keyframes wave { 0% { opacity: 0; } 30% { opacity: 0.9; } 60%, 100% { opacity: 0; } }
  .anim-cloud { animation: cloudDrift 9s ease-in-out infinite alternate; }
  @keyframes cloudDrift { from { transform: translateX(-18px); } to { transform: translateX(22px); } }
  .tap-target { cursor: pointer; }
  .tap-target.tap-play { transform-box: fill-box; transform-origin: 50% 85%; animation: tapWiggle 0.7s ease-in-out; }
  .tap-target[data-tap="puddle"].tap-play { transform-origin: center; animation: tapSplash 0.85s ease-out; }
  .tap-target[data-tap="sun"].tap-play { transform-origin: center; animation: tapPulse 0.6s ease-in-out; }
  .tap-target[data-tap="tree"].tap-play { transform-origin: 50% 100%; animation: tapShake 0.7s ease-in-out; }
  @keyframes tapWiggle { 0% { transform: rotate(0); } 25% { transform: rotate(-4deg) scale(1.03); } 55% { transform: rotate(3deg) scale(1.04); } 80% { transform: rotate(-1.5deg); } 100% { transform: rotate(0); } }
  @keyframes tapSplash { 0% { transform: scale(1); } 40% { transform: scale(1.06, 0.94); } 70% { transform: scale(0.97, 1.03); } 100% { transform: scale(1); } }
  @keyframes tapPulse { 0% { transform: scale(1); } 50% { transform: scale(1.12); } 100% { transform: scale(1); } }
  @keyframes tapShake { 0% { transform: rotate(0); } 20% { transform: rotate(2.4deg); } 45% { transform: rotate(-2deg); } 70% { transform: rotate(1.2deg); } 100% { transform: rotate(0); } }
  .tap-burst { opacity: 0; }
  .tap-target.tap-play .tap-burst { opacity: 1; }
  .tap-target.tap-play .tap-burst circle { animation: burstUp 0.6s ease-out forwards; }
  @keyframes burstUp { from { transform: translateY(0); opacity: 0.95; } to { transform: translateY(-90px); opacity: 0; } }
}
</style>
<rect width="1600" height="1000" fill="#dfe6ea"/>
    <rect x="0" y="0" width="1600" height="150" fill="#5d6a75"/>
    <path d="M 100 150 v 60" stroke="#4b5660" stroke-width="14"/><path d="M 340 150 v 60" stroke="#4b5660" stroke-width="14"/><path d="M 580 150 v 60" stroke="#4b5660" stroke-width="14"/><path d="M 820 150 v 60" stroke="#4b5660" stroke-width="14"/><path d="M 1060 150 v 60" stroke="#4b5660" stroke-width="14"/><path d="M 1300 150 v 60" stroke="#4b5660" stroke-width="14"/><path d="M 1540 150 v 60" stroke="#4b5660" stroke-width="14"/>
    <path d="M 0 150 h 1600" stroke="#3f4a52" stroke-width="12"/>
    <rect x="0" y="210" width="1600" height="380" fill="#c8d2d8"/>
    <rect x="120" y="210" width="34" height="470" fill="#8f9aa2" stroke="#2b2b33" stroke-width="4"/><rect x="440" y="210" width="34" height="470" fill="#8f9aa2" stroke="#2b2b33" stroke-width="4"/><rect x="760" y="210" width="34" height="470" fill="#8f9aa2" stroke="#2b2b33" stroke-width="4"/><rect x="1080" y="210" width="34" height="470" fill="#8f9aa2" stroke="#2b2b33" stroke-width="4"/><rect x="1400" y="210" width="34" height="470" fill="#8f9aa2" stroke="#2b2b33" stroke-width="4"/>
    <g transform="translate(800 300)">
      <circle cx="0" cy="0" r="72" fill="#f6f0d8" stroke="#2b2b33" stroke-width="6"/>
      <circle cx="0" cy="0" r="58" fill="none" stroke="#b9b0a6" stroke-width="4"/>
      <path d="M 0 0 v -44 M 0 0 l 30 18" stroke="#2b2b33" stroke-width="6" stroke-linecap="round"/>
      <circle cx="0" cy="0" r="7" fill="#2b2b33"/>
    </g>
    <rect x="0" y="680" width="1600" height="320" fill="#b3aa9c"/>
    <path d="M 0 690 h 1600" stroke="#8f8a80" stroke-width="10"/>
    <path d="M 0 800 h 1600" stroke="#f0b429" stroke-width="12" stroke-dasharray="60 40"/>
   <g transform="translate(620 950) scale(1.52 1.52)">
    <ellipse cx="0" cy="2" rx="52" ry="12" fill="#2b2b33" opacity="0.10"/>
    <g class="tap-target" data-figure="amal" data-tap="amal" data-mood="happy">
    <g class="anim-idle" style="animation-delay:0.92s">
    <rect x="-28" y="-56" width="18" height="52" rx="8" fill="#8a5a37"/><rect x="10" y="-56" width="18" height="52" rx="8" fill="#8a5a37"/>
    <path d="M -34 -4 q 0 -13 15 -13 q 15 0 15 13 q 0 7 -15 7 q -15 0 -15 -7 z" fill="#4a3a2c" stroke="#2b2b33" stroke-width="3"/><path d="M 4 -4 q 0 -13 15 -13 q 15 0 15 13 q 0 7 -15 7 q -15 0 -15 -7 z" fill="#4a3a2c" stroke="#2b2b33" stroke-width="3"/>
    
    <path d="M -34 -60 q 34 -12 68 0 l -4 -74 q -30 -10 -60 0 z" fill="#f0b429" stroke="#2b2b33" stroke-width="3.6"/>
    <path d="M -50 -50 q 50 -18 100 0 l -18 -50 q -32 -10 -64 0 z" fill="#2f8f86" stroke="#2b2b33" stroke-width="3.6"/>
       <circle cx="-28" cy="-70" r="6" fill="#f3ecdd" opacity="0.8"/><circle cx="0" cy="-70" r="6" fill="#f3ecdd" opacity="0.8"/><circle cx="28" cy="-70" r="6" fill="#f3ecdd" opacity="0.8"/>
    
    
    <g transform="translate(-32 -122) rotate(14)">
    <rect x="-9" y="0" width="18" height="50" rx="9" fill="#f0b429" stroke="#2b2b33" stroke-width="3.4"/>
    <circle cx="0" cy="57" r="10" fill="#8a5a37" stroke="#2b2b33" stroke-width="3"/>
  </g><g transform="translate(32 -122) rotate(-14)">
    <rect x="-9" y="0" width="18" height="50" rx="9" fill="#f0b429" stroke="#2b2b33" stroke-width="3.4"/>
    <circle cx="0" cy="57" r="10" fill="#8a5a37" stroke="#2b2b33" stroke-width="3"/>
  </g>
    
    <g transform="translate(0 -156)">
    
    <circle cx="0" cy="0" r="30" fill="#8a5a37" stroke="#2b2b33" stroke-width="3.6"/>
    <circle cx="-30" cy="-24" r="17" fill="#241a14"/><circle cx="30" cy="-24" r="17" fill="#241a14"/>
      <path d="M -30 -6 a 30 30 0 0 1 60 0 q -30 -16 -60 0 z" fill="#241a14"/>
      <path d="M -30 -4 a 31 31 0 0 1 60 0 l 0 -8 a 30 30 0 0 0 -60 0 z" fill="#241a14"/>
    <path d="M -30 2 a 30 30 0 0 0 60 0" fill="none"/>
    <g transform="translate(-12 -2)"><g class="anim-blink"><circle cx="0" cy="0" r="7.0200000000000005" fill="#6b4a2f"/><circle cx="1.9500000000000002" cy="-2.34" r="2.34" fill="#fff"/></g></g>
    <g transform="translate(12 -2)"><g class="anim-blink"><circle cx="0" cy="0" r="7.0200000000000005" fill="#6b4a2f"/><circle cx="1.9500000000000002" cy="-2.34" r="2.34" fill="#fff"/></g></g>
    <path d="M -20 -12 q 8 -6 15 -2 M 20 -12 q -8 -6 -15 -2" stroke="#6f4629" stroke-width="3.4" fill="none" stroke-linecap="round"/>
    <g transform="translate(0 14)"><path d="M -8 1.6 q 8 8 16 0" stroke="#2b2b33" stroke-width="2.4000000000000004" fill="none" stroke-linecap="round"/></g>
    <ellipse cx="-22" cy="6" rx="5" ry="4" fill="#e8705c" opacity="0.30"/>
    <ellipse cx="22" cy="6" rx="5" ry="4" fill="#e8705c" opacity="0.30"/>
    
  </g>
    </g>
    </g>
  </g>
   <g transform="translate(840 950) scale(1.48 1.48)">
    <ellipse cx="0" cy="2" rx="52" ry="12" fill="#2b2b33" opacity="0.10"/>
    <g class="tap-target" data-figure="nora" data-tap="nora" data-mood="happy">
    <g class="anim-idle" style="animation-delay:1.28s">
    <rect x="-28" y="-56" width="18" height="52" rx="8" fill="#6b4526"/><rect x="10" y="-56" width="18" height="52" rx="8" fill="#6b4526"/>
    <path d="M -34 -4 q 0 -13 15 -13 q 15 0 15 13 q 0 7 -15 7 q -15 0 -15 -7 z" fill="#4a3a2c" stroke="#2b2b33" stroke-width="3"/><path d="M 4 -4 q 0 -13 15 -13 q 15 0 15 13 q 0 7 -15 7 q -15 0 -15 -7 z" fill="#4a3a2c" stroke="#2b2b33" stroke-width="3"/>
    
    <path d="M -34 -60 q 34 -12 68 0 l -4 -74 q -30 -10 -60 0 z" fill="#8f6bb5" stroke="#2b2b33" stroke-width="3.6"/>
    <path d="M -50 -50 q 50 -18 100 0 l -18 -50 q -32 -10 -64 0 z" fill="#e8705c" stroke="#2b2b33" stroke-width="3.6"/>
       <circle cx="-28" cy="-70" r="6" fill="#f3ecdd" opacity="0.8"/><circle cx="0" cy="-70" r="6" fill="#f3ecdd" opacity="0.8"/><circle cx="28" cy="-70" r="6" fill="#f3ecdd" opacity="0.8"/>
    
    
    <g transform="translate(-32 -122) rotate(14)">
    <rect x="-9" y="0" width="18" height="50" rx="9" fill="#8f6bb5" stroke="#2b2b33" stroke-width="3.4"/>
    <circle cx="0" cy="57" r="10" fill="#6b4526" stroke="#2b2b33" stroke-width="3"/>
  </g><g transform="translate(32 -122) rotate(-14)">
    <rect x="-9" y="0" width="18" height="50" rx="9" fill="#8f6bb5" stroke="#2b2b33" stroke-width="3.4"/>
    <circle cx="0" cy="57" r="10" fill="#6b4526" stroke="#2b2b33" stroke-width="3"/>
  </g>
    
    <g transform="translate(0 -156)">
    
    <circle cx="0" cy="0" r="30" fill="#6b4526" stroke="#2b2b33" stroke-width="3.6"/>
    <path d="M -31 0 a 31 31 0 0 1 62 0 l 0 -12 a 31 31 0 0 0 -62 0 z" fill="#241a14"/>
      <path d="M -30 -8 q -14 26 -10 54 l 16 2 q -6 -30 2 -52 z" fill="#241a14"/>
      <path d="M 30 -8 q 14 26 10 54 l -16 2 q 6 -30 -2 -52 z" fill="#241a14"/>
      <circle cx="-34" cy="46" r="5" fill="#f0b429"/><circle cx="-22" cy="46" r="5" fill="#f0b429"/><circle cx="22" cy="46" r="5" fill="#f0b429"/><circle cx="34" cy="46" r="5" fill="#f0b429"/>
    <path d="M -30 2 a 30 30 0 0 0 60 0" fill="none"/>
    <g transform="translate(-12 -2)"><g class="anim-blink"><circle cx="0" cy="0" r="7.0200000000000005" fill="#6b4a2f"/><circle cx="1.9500000000000002" cy="-2.34" r="2.34" fill="#fff"/></g></g>
    <g transform="translate(12 -2)"><g class="anim-blink"><circle cx="0" cy="0" r="7.0200000000000005" fill="#6b4a2f"/><circle cx="1.9500000000000002" cy="-2.34" r="2.34" fill="#fff"/></g></g>
    <path d="M -20 -12 q 8 -6 15 -2 M 20 -12 q -8 -6 -15 -2" stroke="#5a3820" stroke-width="3.4" fill="none" stroke-linecap="round"/>
    <g transform="translate(0 14)"><path d="M -8 1.6 q 8 8 16 0" stroke="#2b2b33" stroke-width="2.4000000000000004" fill="none" stroke-linecap="round"/></g>
    <ellipse cx="-22" cy="6" rx="5" ry="4" fill="#e8705c" opacity="0.30"/>
    <ellipse cx="22" cy="6" rx="5" ry="4" fill="#e8705c" opacity="0.30"/>
    
  </g>
    </g>
    </g>
  </g>
   <g transform="translate(1060 950) scale(1.48 1.48)">
    <ellipse cx="0" cy="2" rx="52" ry="12" fill="#2b2b33" opacity="0.10"/>
    <g class="tap-target" data-figure="leo" data-tap="leo" data-mood="happy">
    <g class="anim-idle" style="animation-delay:1.65s">
    <rect x="-31" y="-62" width="24" height="58" rx="9" fill="#4a5b6b" stroke="#2b2b33" stroke-width="3.4"/><rect x="7" y="-62" width="24" height="58" rx="9" fill="#4a5b6b" stroke="#2b2b33" stroke-width="3.4"/>
    <path d="M -34 -4 q 0 -13 15 -13 q 15 0 15 13 q 0 7 -15 7 q -15 0 -15 -7 z" fill="#4a3a2c" stroke="#2b2b33" stroke-width="3"/><path d="M 4 -4 q 0 -13 15 -13 q 15 0 15 13 q 0 7 -15 7 q -15 0 -15 -7 z" fill="#4a3a2c" stroke="#2b2b33" stroke-width="3"/>
    
    <path d="M -34 -60 q 34 -12 68 0 l -4 -74 q -30 -10 -60 0 z" fill="#8f6bb5" stroke="#2b2b33" stroke-width="3.6"/>
    
    
    
    <g transform="translate(-32 -122) rotate(14)">
    <rect x="-9" y="0" width="18" height="50" rx="9" fill="#8f6bb5" stroke="#2b2b33" stroke-width="3.4"/>
    <circle cx="0" cy="57" r="10" fill="#b98551" stroke="#2b2b33" stroke-width="3"/>
  </g><g transform="translate(32 -122) rotate(-14)">
    <rect x="-9" y="0" width="18" height="50" rx="9" fill="#8f6bb5" stroke="#2b2b33" stroke-width="3.4"/>
    <circle cx="0" cy="57" r="10" fill="#b98551" stroke="#2b2b33" stroke-width="3"/>
  </g>
    
    <g transform="translate(0 -156)">
    
    <circle cx="0" cy="0" r="30" fill="#b98551" stroke="#2b2b33" stroke-width="3.6"/>
    <path d="M -30 -2 a 30 30 0 0 1 60 0 l 0 -10 a 30 30 0 0 0 -60 0 z" fill="#33251b"/>
      <path d="M -29 -8 a 29 29 0 0 1 58 0 q -29 -20 -58 0 z" fill="#33251b"/>
    <path d="M -30 2 a 30 30 0 0 0 60 0" fill="none"/>
    <g transform="translate(-12 -2)"><g class="anim-blink"><circle cx="0" cy="0" r="7.0200000000000005" fill="#6b4a2f"/><circle cx="1.9500000000000002" cy="-2.34" r="2.34" fill="#fff"/></g></g>
    <g transform="translate(12 -2)"><g class="anim-blink"><circle cx="0" cy="0" r="7.0200000000000005" fill="#6b4a2f"/><circle cx="1.9500000000000002" cy="-2.34" r="2.34" fill="#fff"/></g></g>
    <path d="M -20 -12 q 8 -6 15 -2 M 20 -12 q -8 -6 -15 -2" stroke="#6f4629" stroke-width="3.4" fill="none" stroke-linecap="round"/>
    <g transform="translate(0 14)"><path d="M -8 1.6 q 8 8 16 0" stroke="#2b2b33" stroke-width="2.4000000000000004" fill="none" stroke-linecap="round"/></g>
    <ellipse cx="-22" cy="6" rx="5" ry="4" fill="#e8705c" opacity="0.30"/>
    <ellipse cx="22" cy="6" rx="5" ry="4" fill="#e8705c" opacity="0.30"/>
    
  </g>
    </g>
    </g>
  </g>
</svg>
