<svg xmlns="http://www.w3.org/2000/svg" viewBox="0 0 1600 1000" role="img">
<style>
@media (prefers-reduced-motion: no-preference) {
  .anim-idle { animation: idle 3.8s ease-in-out infinite alternate; }
  @keyframes idle { from { transform: translateY(0); } to { transform: translateY(-6px); } }
  .anim-tail { transform-box: fill-box; transform-origin: 100% 20%; animation: tail 2.6s ease-in-out infinite alternate; }
  @keyframes tail { from { transform: rotate(-6deg); } to { transform: rotate(8deg); } }
  .anim-blink { transform-box: fill-box; transform-origin: center; animation: blink 5.2s infinite; }
  @keyframes blink { 0%, 93%, 100% { transform: scaleY(1); } 95%, 97% { transform: scaleY(0.12); } }
  .anim-glow { transform-box: fill-box; transform-origin: center; animation: glow 4.2s ease-in-out infinite alternate; }
  @keyframes glow { from { transform: scale(1); opacity: 0.5; } to { transform: scale(1.08); opacity: 0.75; } }
  .anim-shimmer { animation: shimmer 5s ease-in-out infinite alternate; }
  @keyframes shimmer { from { opacity: 0.62; } to { opacity: 0.92; } }
  .anim-grass { transform-box: fill-box; transform-origin: 50% 100%; animation: sway 3.2s ease-in-out infinite alternate; }
  .anim-canopy { transform-box: fill-box; transform-origin: 50% 100%; animation: sway 5.6s ease-in-out infinite alternate; }
  @keyframes sway { from { transform: rotate(-1.8deg); } to { transform: rotate(2.2deg); } }
  .anim-rain { animation: rainfall 1.15s linear infinite; }
  @keyframes rainfall { from { transform: translateY(-32px); opacity: 0.85; } 75% { opacity: 0.55; } to { transform: translateY(72px); opacity: 0; } }
  .anim-ripple { transform-box: fill-box; transform-origin: center; animation: ripple 3.4s ease-in-out infinite alternate; }
  @keyframes ripple { from { transform: scale(1); opacity: 0.8; } to { transform: scale(1.18); opacity: 0.55; } }
  .anim-drip { animation: drip 1s ease-in infinite; }
  @keyframes drip { from { transform: translateY(-12px); opacity: 0.95; } to { transform: translateY(28px); opacity: 0; } }
  .anim-flow { stroke-dasharray: 26 20; animation: flow 0.8s linear infinite; }
  @keyframes flow { from { stroke-dashoffset: 0; } to { stroke-dashoffset: -46; } }
  .anim-splash { transform-box: fill-box; transform-origin: 50% 100%; animation: splashPulse 1.7s ease-in-out infinite alternate; }
  @keyframes splashPulse { from { transform: scale(0.97); } to { transform: scale(1.05); } }
  .anim-strain { transform-box: fill-box; transform-origin: center; animation: strain 0.9s ease-in-out infinite alternate; }
  @keyframes strain { from { transform: translateX(-5px); } to { transform: translateX(4px); } }
  .anim-float { transform-box: fill-box; transform-origin: center; animation: floaty 2.6s ease-in-out infinite alternate; }
  @keyframes floaty { from { transform: translateY(0) scale(1); } to { transform: translateY(-12px) scale(1.08); } }
  .anim-wave { animation: wave 2.4s ease-in-out infinite; opacity: 0; }
  @keyframes wave { 0% { opacity: 0; } 30% { opacity: 0.9; } 60%, 100% { opacity: 0; } }
  .anim-cloud { animation: cloudDrift 9s ease-in-out infinite alternate; }
  @keyframes cloudDrift { from { transform: translateX(-18px); } to { transform: translateX(22px); } }
  .tap-target { cursor: pointer; }
  .tap-target.tap-play { transform-box: fill-box; transform-origin: 50% 85%; animation: tapWiggle 0.7s ease-in-out; }
  .tap-target[data-tap="puddle"].tap-play { transform-origin: center; animation: tapSplash 0.85s ease-out; }
  .tap-target[data-tap="sun"].tap-play { transform-origin: center; animation: tapPulse 0.6s ease-in-out; }
  .tap-target[data-tap="tree"].tap-play { transform-origin: 50% 100%; animation: tapShake 0.7s ease-in-out; }
  @keyframes tapWiggle { 0% { transform: rotate(0); } 25% { transform: rotate(-4deg) scale(1.03); } 55% { transform: rotate(3deg) scale(1.04); } 80% { transform: rotate(-1.5deg); } 100% { transform: rotate(0); } }
  @keyframes tapSplash { 0% { transform: scale(1); } 40% { transform: scale(1.06, 0.94); } 70% { transform: scale(0.97, 1.03); } 100% { transform: scale(1); } }
  @keyframes tapPulse { 0% { transform: scale(1); } 50% { transform: scale(1.12); } 100% { transform: scale(1); } }
  @keyframes tapShake { 0% { transform: rotate(0); } 20% { transform: rotate(2.4deg); } 45% { transform: rotate(-2deg); } 70% { transform: rotate(1.2deg); } 100% { transform: rotate(0); } }
  .tap-burst { opacity: 0; }
  .tap-target.tap-play .tap-burst { opacity: 1; }
  .tap-target.tap-play .tap-burst circle { animation: burstUp 0.6s ease-out forwards; }
  @keyframes burstUp { from { transform: translateY(0); opacity: 0.95; } to { transform: translateY(-90px); opacity: 0; } }
}
</style>
<rect width="1600" height="1000" fill="#e2dbcb"/>
    <rect x="0" y="0" width="1600" height="26" fill="#cdc4b0"/>
    <g transform="translate(230 250)">
      <path d="M -84 190 v -160 q 84 -80 168 0 v 160 z" fill="#bfe0f4" stroke="#2b2b33" stroke-width="5"/>
      <path d="M 0 -46 v 236 M -84 72 h 168" stroke="#2b2b33" stroke-width="5"/>
    </g><g transform="translate(610 250)">
      <path d="M -84 190 v -160 q 84 -80 168 0 v 160 z" fill="#bfe0f4" stroke="#2b2b33" stroke-width="5"/>
      <path d="M 0 -46 v 236 M -84 72 h 168" stroke="#2b2b33" stroke-width="5"/>
    </g><g transform="translate(990 250)">
      <path d="M -84 190 v -160 q 84 -80 168 0 v 160 z" fill="#bfe0f4" stroke="#2b2b33" stroke-width="5"/>
      <path d="M 0 -46 v 236 M -84 72 h 168" stroke="#2b2b33" stroke-width="5"/>
    </g><g transform="translate(1370 250)">
      <path d="M -84 190 v -160 q 84 -80 168 0 v 160 z" fill="#bfe0f4" stroke="#2b2b33" stroke-width="5"/>
      <path d="M 0 -46 v 236 M -84 72 h 168" stroke="#2b2b33" stroke-width="5"/>
    </g>
    <rect x="0" y="660" width="1600" height="340" fill="#b9a98c"/>
    <path d="M 0 660 h 1600" stroke="#9c8e73" stroke-width="10"/>
    <path d="M 0 672 L -100 1000" stroke="#a89877" stroke-width="5" opacity="0.5"/><path d="M 300 672 L 200 1000" stroke="#a89877" stroke-width="5" opacity="0.5"/><path d="M 600 672 L 500 1000" stroke="#a89877" stroke-width="5" opacity="0.5"/><path d="M 900 672 L 800 1000" stroke="#a89877" stroke-width="5" opacity="0.5"/><path d="M 1200 672 L 1100 1000" stroke="#a89877" stroke-width="5" opacity="0.5"/><path d="M 1500 672 L 1400 1000" stroke="#a89877" stroke-width="5" opacity="0.5"/><g transform="translate(820 950) scale(1)"><g transform="translate(-244.2 -192) scale(0.740)">
        <rect x="-34" y="-58" width="68" height="16" rx="6" fill="#8ab17d" stroke="#2b2b33" stroke-width="3.4"/>
        <rect x="-34" y="-116" width="68" height="58" rx="7" fill="#8ab17d" stroke="#2b2b33" stroke-width="3.4"/>
        <path d="M -26 -42 v 42 M 26 -42 v 42" stroke="#5f5f68" stroke-width="7" stroke-linecap="round"/>
      </g><g transform="translate(-146.5 -192) scale(0.740)">
        <rect x="-34" y="-58" width="68" height="16" rx="6" fill="#7fa8d9" stroke="#2b2b33" stroke-width="3.4"/>
        <rect x="-34" y="-116" width="68" height="58" rx="7" fill="#7fa8d9" stroke="#2b2b33" stroke-width="3.4"/>
        <path d="M -26 -42 v 42 M 26 -42 v 42" stroke="#5f5f68" stroke-width="7" stroke-linecap="round"/>
      </g><g transform="translate(-48.8 -192) scale(0.740)">
        <rect x="-34" y="-58" width="68" height="16" rx="6" fill="#9d82c4" stroke="#2b2b33" stroke-width="3.4"/>
        <rect x="-34" y="-116" width="68" height="58" rx="7" fill="#9d82c4" stroke="#2b2b33" stroke-width="3.4"/>
        <path d="M -26 -42 v 42 M 26 -42 v 42" stroke="#5f5f68" stroke-width="7" stroke-linecap="round"/>
      </g><g transform="translate(48.8 -192) scale(0.740)">
        <rect x="-34" y="-58" width="68" height="16" rx="6" fill="#e76f51" stroke="#2b2b33" stroke-width="3.4"/>
        <rect x="-34" y="-116" width="68" height="58" rx="7" fill="#e76f51" stroke="#2b2b33" stroke-width="3.4"/>
        <path d="M -26 -42 v 42 M 26 -42 v 42" stroke="#5f5f68" stroke-width="7" stroke-linecap="round"/>
      </g><g transform="translate(146.5 -192) scale(0.740)">
        <rect x="-34" y="-58" width="68" height="16" rx="6" fill="#f4c95d" stroke="#2b2b33" stroke-width="3.4"/>
        <rect x="-34" y="-116" width="68" height="58" rx="7" fill="#f4c95d" stroke="#2b2b33" stroke-width="3.4"/>
        <path d="M -26 -42 v 42 M 26 -42 v 42" stroke="#5f5f68" stroke-width="7" stroke-linecap="round"/>
      </g><g transform="translate(244.2 -192) scale(0.740)">
        <rect x="-34" y="-58" width="68" height="16" rx="6" fill="#8ab17d" stroke="#2b2b33" stroke-width="3.4"/>
        <rect x="-34" y="-116" width="68" height="58" rx="7" fill="#8ab17d" stroke="#2b2b33" stroke-width="3.4"/>
        <path d="M -26 -42 v 42 M 26 -42 v 42" stroke="#5f5f68" stroke-width="7" stroke-linecap="round"/>
      </g><g transform="translate(-287.1 -96) scale(0.870)">
        <rect x="-34" y="-58" width="68" height="16" rx="6" fill="#f4c95d" stroke="#2b2b33" stroke-width="3.4"/>
        <rect x="-34" y="-116" width="68" height="58" rx="7" fill="#f4c95d" stroke="#2b2b33" stroke-width="3.4"/>
        <path d="M -26 -42 v 42 M 26 -42 v 42" stroke="#5f5f68" stroke-width="7" stroke-linecap="round"/>
      </g><g transform="translate(-172.3 -96) scale(0.870)">
        <rect x="-34" y="-58" width="68" height="16" rx="6" fill="#8ab17d" stroke="#2b2b33" stroke-width="3.4"/>
        <rect x="-34" y="-116" width="68" height="58" rx="7" fill="#8ab17d" stroke="#2b2b33" stroke-width="3.4"/>
        <path d="M -26 -42 v 42 M 26 -42 v 42" stroke="#5f5f68" stroke-width="7" stroke-linecap="round"/>
      </g><g transform="translate(-57.4 -96) scale(0.870)">
        <rect x="-34" y="-58" width="68" height="16" rx="6" fill="#7fa8d9" stroke="#2b2b33" stroke-width="3.4"/>
        <rect x="-34" y="-116" width="68" height="58" rx="7" fill="#7fa8d9" stroke="#2b2b33" stroke-width="3.4"/>
        <path d="M -26 -42 v 42 M 26 -42 v 42" stroke="#5f5f68" stroke-width="7" stroke-linecap="round"/>
      </g><g transform="translate(57.4 -96) scale(0.870)">
        <rect x="-34" y="-58" width="68" height="16" rx="6" fill="#9d82c4" stroke="#2b2b33" stroke-width="3.4"/>
        <rect x="-34" y="-116" width="68" height="58" rx="7" fill="#9d82c4" stroke="#2b2b33" stroke-width="3.4"/>
        <path d="M -26 -42 v 42 M 26 -42 v 42" stroke="#5f5f68" stroke-width="7" stroke-linecap="round"/>
      </g><g transform="translate(172.3 -96) scale(0.870)">
        <rect x="-34" y="-58" width="68" height="16" rx="6" fill="#e76f51" stroke="#2b2b33" stroke-width="3.4"/>
        <rect x="-34" y="-116" width="68" height="58" rx="7" fill="#e76f51" stroke="#2b2b33" stroke-width="3.4"/>
        <path d="M -26 -42 v 42 M 26 -42 v 42" stroke="#5f5f68" stroke-width="7" stroke-linecap="round"/>
      </g><g transform="translate(287.1 -96) scale(0.870)">
        <rect x="-34" y="-58" width="68" height="16" rx="6" fill="#f4c95d" stroke="#2b2b33" stroke-width="3.4"/>
        <rect x="-34" y="-116" width="68" height="58" rx="7" fill="#f4c95d" stroke="#2b2b33" stroke-width="3.4"/>
        <path d="M -26 -42 v 42 M 26 -42 v 42" stroke="#5f5f68" stroke-width="7" stroke-linecap="round"/>
      </g><g transform="translate(-330.0 0) scale(1.000)">
        <rect x="-34" y="-58" width="68" height="16" rx="6" fill="#e76f51" stroke="#2b2b33" stroke-width="3.4"/>
        <rect x="-34" y="-116" width="68" height="58" rx="7" fill="#e76f51" stroke="#2b2b33" stroke-width="3.4"/>
        <path d="M -26 -42 v 42 M 26 -42 v 42" stroke="#5f5f68" stroke-width="7" stroke-linecap="round"/>
      </g><g transform="translate(-198.0 0) scale(1.000)">
        <rect x="-34" y="-58" width="68" height="16" rx="6" fill="#f4c95d" stroke="#2b2b33" stroke-width="3.4"/>
        <rect x="-34" y="-116" width="68" height="58" rx="7" fill="#f4c95d" stroke="#2b2b33" stroke-width="3.4"/>
        <path d="M -26 -42 v 42 M 26 -42 v 42" stroke="#5f5f68" stroke-width="7" stroke-linecap="round"/>
      </g><g transform="translate(-66.0 0) scale(1.000)">
        <rect x="-34" y="-58" width="68" height="16" rx="6" fill="#8ab17d" stroke="#2b2b33" stroke-width="3.4"/>
        <rect x="-34" y="-116" width="68" height="58" rx="7" fill="#8ab17d" stroke="#2b2b33" stroke-width="3.4"/>
        <path d="M -26 -42 v 42 M 26 -42 v 42" stroke="#5f5f68" stroke-width="7" stroke-linecap="round"/>
      </g><g transform="translate(66.0 0) scale(1.000)">
        <rect x="-34" y="-58" width="68" height="16" rx="6" fill="#7fa8d9" stroke="#2b2b33" stroke-width="3.4"/>
        <rect x="-34" y="-116" width="68" height="58" rx="7" fill="#7fa8d9" stroke="#2b2b33" stroke-width="3.4"/>
        <path d="M -26 -42 v 42 M 26 -42 v 42" stroke="#5f5f68" stroke-width="7" stroke-linecap="round"/>
      </g><g transform="translate(198.0 0) scale(1.000)">
        <rect x="-34" y="-58" width="68" height="16" rx="6" fill="#9d82c4" stroke="#2b2b33" stroke-width="3.4"/>
        <rect x="-34" y="-116" width="68" height="58" rx="7" fill="#9d82c4" stroke="#2b2b33" stroke-width="3.4"/>
        <path d="M -26 -42 v 42 M 26 -42 v 42" stroke="#5f5f68" stroke-width="7" stroke-linecap="round"/>
      </g><g transform="translate(330.0 0) scale(1.000)">
        <rect x="-34" y="-58" width="68" height="16" rx="6" fill="#e76f51" stroke="#2b2b33" stroke-width="3.4"/>
        <rect x="-34" y="-116" width="68" height="58" rx="7" fill="#e76f51" stroke="#2b2b33" stroke-width="3.4"/>
        <path d="M -26 -42 v 42 M 26 -42 v 42" stroke="#5f5f68" stroke-width="7" stroke-linecap="round"/>
      </g></g><circle class="anim-drip" style="animation-delay:0.00s" cx="540" cy="420" r="7" fill="#e76f51" opacity="0.9"/><circle class="anim-drip" style="animation-delay:0.14s" cx="581" cy="347" r="9" fill="#f4c95d" opacity="0.9"/><circle class="anim-drip" style="animation-delay:0.29s" cx="622" cy="274" r="11" fill="#8ab17d" opacity="0.9"/><circle class="anim-drip" style="animation-delay:0.43s" cx="663" cy="381" r="7" fill="#7fa8d9" opacity="0.9"/><circle class="anim-drip" style="animation-delay:0.57s" cx="704" cy="308" r="9" fill="#9d82c4" opacity="0.9"/><circle class="anim-drip" style="animation-delay:0.71s" cx="745" cy="415" r="11" fill="#e76f51" opacity="0.9"/><circle class="anim-drip" style="animation-delay:0.86s" cx="786" cy="342" r="7" fill="#f4c95d" opacity="0.9"/><circle class="anim-drip" style="animation-delay:0.00s" cx="827" cy="269" r="9" fill="#8ab17d" opacity="0.9"/><circle class="anim-drip" style="animation-delay:0.14s" cx="868" cy="376" r="11" fill="#7fa8d9" opacity="0.9"/><circle class="anim-drip" style="animation-delay:0.29s" cx="909" cy="303" r="7" fill="#9d82c4" opacity="0.9"/><circle class="anim-drip" style="animation-delay:0.43s" cx="950" cy="410" r="9" fill="#e76f51" opacity="0.9"/><circle class="anim-drip" style="animation-delay:0.57s" cx="991" cy="337" r="11" fill="#f4c95d" opacity="0.9"/><circle class="anim-drip" style="animation-delay:0.71s" cx="1032" cy="264" r="7" fill="#8ab17d" opacity="0.9"/><circle class="anim-drip" style="animation-delay:0.86s" cx="553" cy="371" r="9" fill="#7fa8d9" opacity="0.9"/>
   <g transform="translate(1420 950) scale(1.8900000000000001 1.8900000000000001)">
    <ellipse cx="0" cy="2" rx="52" ry="12" fill="#2b2b33" opacity="0.10"/>
    <g class="tap-target" data-figure="mayor" data-tap="mayor" data-mood="happy">
    <g class="anim-idle" style="animation-delay:1.65s">
    <rect x="-31" y="-62" width="24" height="58" rx="9" fill="#3d4a5c" stroke="#2b2b33" stroke-width="3.4"/><rect x="7" y="-62" width="24" height="58" rx="9" fill="#3d4a5c" stroke="#2b2b33" stroke-width="3.4"/>
    <path d="M -34 -4 q 0 -13 15 -13 q 15 0 15 13 q 0 7 -15 7 q -15 0 -15 -7 z" fill="#4a3a2c" stroke="#2b2b33" stroke-width="3"/><path d="M 4 -4 q 0 -13 15 -13 q 15 0 15 13 q 0 7 -15 7 q -15 0 -15 -7 z" fill="#4a3a2c" stroke="#2b2b33" stroke-width="3"/>
    
    <path d="M -34 -60 q 34 -12 68 0 l -4 -74 q -30 -10 -60 0 z" fill="#f3ecdd" stroke="#2b2b33" stroke-width="3.6"/>
    
    <path d="M -33 -60 l -5 -72 l 15 -2 l 6 72 z M 33 -60 l 5 -72 l -15 -2 l -6 72 z" fill="#3d4a5c" stroke="#2b2b33" stroke-width="3"/>
    
    <g transform="translate(-32 -122) rotate(152)">
    <rect x="-9" y="0" width="18" height="54" rx="9" fill="#3d4a5c" stroke="#2b2b33" stroke-width="3.4"/>
    <circle cx="0" cy="61" r="10" fill="#6b4526" stroke="#2b2b33" stroke-width="3"/>
  </g><g transform="translate(32 -122) rotate(-152)">
    <rect x="-9" y="0" width="18" height="54" rx="9" fill="#3d4a5c" stroke="#2b2b33" stroke-width="3.4"/>
    <circle cx="0" cy="61" r="10" fill="#6b4526" stroke="#2b2b33" stroke-width="3"/>
  </g>
    
    <g transform="translate(0 -156)">
    
    <circle cx="0" cy="0" r="30" fill="#6b4526" stroke="#2b2b33" stroke-width="3.6"/>
    <path d="M -30 -2 a 30 30 0 0 1 60 0 l 0 -10 a 30 30 0 0 0 -60 0 z" fill="#241a14"/>
      <path d="M -29 -8 a 29 29 0 0 1 58 0 q -29 -20 -58 0 z" fill="#241a14"/>
    <path d="M -30 2 a 30 30 0 0 0 60 0" fill="none"/>
    <g transform="translate(-12 -2)"><g class="anim-blink"><circle cx="0" cy="0" r="7.0200000000000005" fill="#6b4a2f"/><circle cx="1.9500000000000002" cy="-2.34" r="2.34" fill="#fff"/></g></g>
    <g transform="translate(12 -2)"><g class="anim-blink"><circle cx="0" cy="0" r="7.0200000000000005" fill="#6b4a2f"/><circle cx="1.9500000000000002" cy="-2.34" r="2.34" fill="#fff"/></g></g>
    <path d="M -20 -12 q 8 -6 15 -2 M 20 -12 q -8 -6 -15 -2" stroke="#5a3820" stroke-width="3.4" fill="none" stroke-linecap="round"/>
    <g transform="translate(0 14)"><path d="M -8 1.6 q 8 8 16 0" stroke="#2b2b33" stroke-width="2.4000000000000004" fill="none" stroke-linecap="round"/></g>
    <ellipse cx="-22" cy="6" rx="5" ry="4" fill="#e8705c" opacity="0.30"/>
    <ellipse cx="22" cy="6" rx="5" ry="4" fill="#e8705c" opacity="0.30"/>
    
  </g>
    </g>
    </g>
  </g>
</svg>
