<svg xmlns="http://www.w3.org/2000/svg" viewBox="0 0 1600 1000" role="img">
<style>
@media (prefers-reduced-motion: no-preference) {
  .anim-idle { animation: idle 3.8s ease-in-out infinite alternate; }
  @keyframes idle { from { transform: translateY(0); } to { transform: translateY(-6px); } }
  .anim-tail { transform-box: fill-box; transform-origin: 100% 20%; animation: tail 2.6s ease-in-out infinite alternate; }
  @keyframes tail { from { transform: rotate(-6deg); } to { transform: rotate(8deg); } }
  .anim-blink { transform-box: fill-box; transform-origin: center; animation: blink 5.2s infinite; }
  @keyframes blink { 0%, 93%, 100% { transform: scaleY(1); } 95%, 97% { transform: scaleY(0.12); } }
  .anim-glow { transform-box: fill-box; transform-origin: center; animation: glow 4.2s ease-in-out infinite alternate; }
  @keyframes glow { from { transform: scale(1); opacity: 0.5; } to { transform: scale(1.08); opacity: 0.75; } }
  .anim-shimmer { animation: shimmer 5s ease-in-out infinite alternate; }
  @keyframes shimmer { from { opacity: 0.62; } to { opacity: 0.92; } }
  .anim-grass { transform-box: fill-box; transform-origin: 50% 100%; animation: sway 3.2s ease-in-out infinite alternate; }
  .anim-canopy { transform-box: fill-box; transform-origin: 50% 100%; animation: sway 5.6s ease-in-out infinite alternate; }
  @keyframes sway { from { transform: rotate(-1.8deg); } to { transform: rotate(2.2deg); } }
  .anim-rain { animation: rainfall 1.15s linear infinite; }
  @keyframes rainfall { from { transform: translateY(-32px); opacity: 0.85; } 75% { opacity: 0.55; } to { transform: translateY(72px); opacity: 0; } }
  .anim-ripple { transform-box: fill-box; transform-origin: center; animation: ripple 3.4s ease-in-out infinite alternate; }
  @keyframes ripple { from { transform: scale(1); opacity: 0.8; } to { transform: scale(1.18); opacity: 0.55; } }
  .anim-drip { animation: drip 1s ease-in infinite; }
  @keyframes drip { from { transform: translateY(-12px); opacity: 0.95; } to { transform: translateY(28px); opacity: 0; } }
  .anim-flow { stroke-dasharray: 26 20; animation: flow 0.8s linear infinite; }
  @keyframes flow { from { stroke-dashoffset: 0; } to { stroke-dashoffset: -46; } }
  .anim-splash { transform-box: fill-box; transform-origin: 50% 100%; animation: splashPulse 1.7s ease-in-out infinite alternate; }
  @keyframes splashPulse { from { transform: scale(0.97); } to { transform: scale(1.05); } }
  .anim-strain { transform-box: fill-box; transform-origin: center; animation: strain 0.9s ease-in-out infinite alternate; }
  @keyframes strain { from { transform: translateX(-5px); } to { transform: translateX(4px); } }
  .anim-float { transform-box: fill-box; transform-origin: center; animation: floaty 2.6s ease-in-out infinite alternate; }
  @keyframes floaty { from { transform: translateY(0) scale(1); } to { transform: translateY(-12px) scale(1.08); } }
  .anim-wave { animation: wave 2.4s ease-in-out infinite; opacity: 0; }
  @keyframes wave { 0% { opacity: 0; } 30% { opacity: 0.9; } 60%, 100% { opacity: 0; } }
  .anim-cloud { animation: cloudDrift 9s ease-in-out infinite alternate; }
  @keyframes cloudDrift { from { transform: translateX(-18px); } to { transform: translateX(22px); } }
  .tap-target { cursor: pointer; }
  .tap-target.tap-play { transform-box: fill-box; transform-origin: 50% 85%; animation: tapWiggle 0.7s ease-in-out; }
  .tap-target[data-tap="puddle"].tap-play { transform-origin: center; animation: tapSplash 0.85s ease-out; }
  .tap-target[data-tap="sun"].tap-play { transform-origin: center; animation: tapPulse 0.6s ease-in-out; }
  .tap-target[data-tap="tree"].tap-play { transform-origin: 50% 100%; animation: tapShake 0.7s ease-in-out; }
  @keyframes tapWiggle { 0% { transform: rotate(0); } 25% { transform: rotate(-4deg) scale(1.03); } 55% { transform: rotate(3deg) scale(1.04); } 80% { transform: rotate(-1.5deg); } 100% { transform: rotate(0); } }
  @keyframes tapSplash { 0% { transform: scale(1); } 40% { transform: scale(1.06, 0.94); } 70% { transform: scale(0.97, 1.03); } 100% { transform: scale(1); } }
  @keyframes tapPulse { 0% { transform: scale(1); } 50% { transform: scale(1.12); } 100% { transform: scale(1); } }
  @keyframes tapShake { 0% { transform: rotate(0); } 20% { transform: rotate(2.4deg); } 45% { transform: rotate(-2deg); } 70% { transform: rotate(1.2deg); } 100% { transform: rotate(0); } }
  .tap-burst { opacity: 0; }
  .tap-target.tap-play .tap-burst { opacity: 1; }
  .tap-target.tap-play .tap-burst circle { animation: burstUp 0.6s ease-out forwards; }
  @keyframes burstUp { from { transform: translateY(0); opacity: 0.95; } to { transform: translateY(-90px); opacity: 0; } }
}
</style>
<defs><linearGradient id="sky" x1="0" y1="0" x2="0" y2="1"><stop offset="0" stop-color="#bfe0f4"/><stop offset="1" stop-color="#eef8fd"/></linearGradient></defs>
    <rect width="1600" height="1000" fill="url(#sky)"/><g class="tap-target" data-tap="sun"><circle class="anim-glow" cx="1350" cy="160" r="120" fill="#fdeebc" opacity="0.6"/><circle cx="1350" cy="160" r="78" fill="#f9d976"/></g><path d="M 0 560 q 260 -110 520 -30 q 300 90 620 -20 q 240 -76 460 10 L 1600 640 L 0 640 Z" fill="#a9c4dd" opacity="0.55"/><rect x="0" y="590" width="1600" height="410" fill="#e7cd7f"/>
    <path d="M 0 720 q 400 -50 800 0 q 400 50 800 0 L 1600 1000 L 0 1000 Z" fill="#d9b45f"/>
    <g class="anim-grass" style="animation-delay:1.00s"><path d="M 120 780 q 6 -34 14 -40 q 2 24 10 38 q 10 -18 18 -22 q -2 22 -8 34 z" fill="#c39c48" opacity="0.8"/></g><g class="anim-grass" style="animation-delay:0.50s"><path d="M 380 860 q 6 -34 14 -40 q 2 24 10 38 q 10 -18 18 -22 q -2 22 -8 34 z" fill="#c39c48" opacity="0.8"/></g><g class="anim-grass" style="animation-delay:2.50s"><path d="M 660 780 q 6 -34 14 -40 q 2 24 10 38 q 10 -18 18 -22 q -2 22 -8 34 z" fill="#c39c48" opacity="0.8"/></g><g class="anim-grass" style="animation-delay:1.50s"><path d="M 940 820 q 6 -34 14 -40 q 2 24 10 38 q 10 -18 18 -22 q -2 22 -8 34 z" fill="#c39c48" opacity="0.8"/></g><g class="anim-grass" style="animation-delay:0.00s"><path d="M 1240 820 q 6 -34 14 -40 q 2 24 10 38 q 10 -18 18 -22 q -2 22 -8 34 z" fill="#c39c48" opacity="0.8"/></g><g class="anim-grass" style="animation-delay:0.00s"><path d="M 1480 820 q 6 -34 14 -40 q 2 24 10 38 q 10 -18 18 -22 q -2 22 -8 34 z" fill="#c39c48" opacity="0.8"/></g><g transform="translate(800 540) scale(1)">
    <rect x="-310" y="-190" width="12" height="190" rx="6" fill="#8a6242"/>
    <rect x="298" y="-190" width="12" height="190" rx="6" fill="#8a6242"/>
    <path d="M -304 -180 q 304 46 608 0" stroke="#5c7d43" stroke-width="6" fill="none"/>
    <path d="M -266 -175 l 26 5 l -10 36 z" fill="#e76f51"/><path d="M -190 -166 l 26 5 l -10 36 z" fill="#f4c95d"/><path d="M -114 -160 l 26 5 l -10 36 z" fill="#8ab17d"/><path d="M -38 -157 l 26 5 l -10 36 z" fill="#7fa8d9"/><path d="M 38 -157 l 26 5 l -10 36 z" fill="#9d82c4"/><path d="M 114 -160 l 26 5 l -10 36 z" fill="#e76f51"/><path d="M 190 -166 l 26 5 l -10 36 z" fill="#f4c95d"/><path d="M 266 -175 l 26 5 l -10 36 z" fill="#8ab17d"/>
  </g>
   <g transform="translate(380 710) scale(1.275 1.275) rotate(0)">
    <ellipse cx="0" cy="96" rx="88" ry="14" fill="#2b2b33" opacity="0.10"/>
    <g class="tap-target" data-tap="zebra" data-mood="happy">
    <g class="anim-idle" style="animation-delay:1.00s">
    <g transform="translate(-58 34) rotate(0)"><rect x="-9" y="0" width="18" height="66" rx="9" fill="#f1ede9" stroke="#2b2b33" stroke-width="4"/><path d="M -9 18 h 18 M -9 36 h 18" stroke="#2b2b33" stroke-width="6"/><rect x="-10" y="58" width="20" height="12" rx="5" fill="#2b2b33"/></g><g transform="translate(30 34) rotate(0)"><rect x="-9" y="0" width="18" height="66" rx="9" fill="#f1ede9" stroke="#2b2b33" stroke-width="4"/><path d="M -9 18 h 18 M -9 36 h 18" stroke="#2b2b33" stroke-width="6"/><rect x="-10" y="58" width="20" height="12" rx="5" fill="#2b2b33"/></g><g class="anim-tail" style="animation-delay:1.00s">
    <path d="M -86 6 q -20 -4 -26 12 q 12 8 26 2" fill="#ffffff" stroke="#2b2b33" stroke-width="4"/>
    <path d="M -108 16 l -6 16 q 10 4 14 -4 z" fill="#2b2b33"/>
  </g>
    <ellipse cx="0" cy="-6" rx="95" ry="58" fill="#ffffff" stroke="#2b2b33" stroke-width="5"/>
    
    <path d="M -55 -48 q 6 30 -2 52" stroke="#2b2b33" stroke-width="11" fill="none" stroke-linecap="round"/>
    <path d="M -28 -55 q 5 34 -2 62" stroke="#2b2b33" stroke-width="11" fill="none" stroke-linecap="round"/>
    <path d="M -2 -57 q 4 32 -1 64" stroke="#2b2b33" stroke-width="11" fill="none" stroke-linecap="round"/>
    <path d="M 24 -54 q 4 28 0 56" stroke="#2b2b33" stroke-width="10" fill="none" stroke-linecap="round"/>
    <path d="M 62 -30 q 14 2 24 -6" stroke="#2b2b33" stroke-width="8" fill="none" stroke-linecap="round"/>
    <path d="M 70 -52 q 12 4 22 -2" stroke="#2b2b33" stroke-width="8" fill="none" stroke-linecap="round"/><path d="M 46 -18 c -5 -8 -16 -5 -16 3 c 0 7 9 12 16 17 c 7 -5 16 -10 16 -17 c 0 -8 -11 -11 -16 -3 z" fill="#2b2b33"/>
    <g transform="translate(-38 34) rotate(0)"><rect x="-9" y="0" width="18" height="66" rx="9" fill="#ffffff" stroke="#2b2b33" stroke-width="4"/><path d="M -9 18 h 18 M -9 36 h 18" stroke="#2b2b33" stroke-width="6"/><rect x="-10" y="58" width="20" height="12" rx="5" fill="#2b2b33"/></g><g transform="translate(58 34) rotate(0)"><rect x="-9" y="0" width="18" height="66" rx="9" fill="#ffffff" stroke="#2b2b33" stroke-width="4"/><path d="M -9 18 h 18 M -9 36 h 18" stroke="#2b2b33" stroke-width="6"/><rect x="-10" y="58" width="20" height="12" rx="5" fill="#2b2b33"/></g>
    <path d="M 62 -34 q 26 -34 52 -44 l 26 8 q -8 34 -34 48 z" fill="#ffffff" stroke="#2b2b33" stroke-width="5"/>
    <path d="M 84 -66 q 4 14 -6 24 M 104 -72 q 2 12 -6 22" stroke="#2b2b33" stroke-width="7" fill="none" stroke-linecap="round"/>
    <g transform="translate(150 -84)">
      <ellipse cx="0" cy="0" rx="44" ry="34" fill="#ffffff" stroke="#2b2b33" stroke-width="5"/>
      <path d="M 24 4 q 24 2 26 16 q -2 14 -24 12 q -16 -2 -20 -14 z" fill="#5a4f49" stroke="#2b2b33" stroke-width="4"/>
      <circle cx="38" cy="14" r="3.4" fill="#2b2b33"/>
      <g transform="translate(34 22)"><path d="M -9 1.8 q 9 9 18 0" stroke="#2b2b33" stroke-width="2.7" fill="none" stroke-linecap="round"/></g>
      <path d="M -20 -28 l -12 -26 l 22 12 z" fill="#ffffff" stroke="#2b2b33" stroke-width="4"/>
      <path d="M -24 -46 l 8 18" stroke="#2b2b33" stroke-width="4"/>
      <path d="M -34 -12 q -6 12 -2 22 M -14 -22 q -4 10 -2 18" stroke="#2b2b33" stroke-width="6" fill="none" stroke-linecap="round"/>
      <g transform="translate(6 -4)"><g class="anim-blink"><circle cx="0" cy="0" r="9.9" fill="#6b4a2f"/><circle cx="2.75" cy="-3.3000000000000003" r="3.3000000000000003" fill="#fff"/></g></g>
      <path d="M -42 -22 q -14 -18 -2 -30 q 12 -8 18 6 M -22 -34 q -8 -18 6 -24 q 12 -4 12 10 M -2 -40 q -2 -18 12 -18 q 12 2 6 16" fill="#2b2b33"/>
    </g>
    </g>
    </g>
  </g>
   <g transform="translate(620 810) scale(1.4249999999999998 1.4249999999999998)">
    <ellipse cx="0" cy="58" rx="34" ry="8" fill="#2b2b33" opacity="0.10"/>
    <g class="tap-target" data-tap="kiki" data-mood="happy">
    <g class="anim-idle" style="animation-delay:0.93s">
    <g class="anim-tail" style="animation-delay:0.93s">
    <path d="M -24 26 q -38 6 -42 -26 q 0 -12 10 -9 q 2 22 30 25 z" fill="#8f9a86" stroke="#2b2b33" stroke-width="3.4"/>
  </g>
    <ellipse cx="0" cy="18" rx="28" ry="32" fill="#8f9a86" stroke="#2b2b33" stroke-width="3.8"/>
    <ellipse cx="2" cy="26" rx="15" ry="18" fill="#e8dcc8"/>
    <g transform="translate(-18 -6) rotate(150)"><rect x="-5" y="0" width="10" height="40" rx="5" fill="#8f9a86" stroke="#2b2b33" stroke-width="3"/><circle cx="0" cy="42" r="7" fill="#e8dcc8" stroke="#2b2b33" stroke-width="2.6"/></g><g transform="translate(18 -6) rotate(-150)"><rect x="-5" y="0" width="10" height="40" rx="5" fill="#8f9a86" stroke="#2b2b33" stroke-width="3"/><circle cx="0" cy="42" r="7" fill="#e8dcc8" stroke="#2b2b33" stroke-width="2.6"/></g>
    <g transform="translate(-11 44)"><rect x="-5" y="0" width="10" height="20" rx="5" fill="#8f9a86" stroke="#2b2b33" stroke-width="3"/></g>
    <g transform="translate(12 44)"><rect x="-5" y="0" width="10" height="20" rx="5" fill="#8f9a86" stroke="#2b2b33" stroke-width="3"/></g>
    <g transform="translate(0 -22)">
      <circle cx="0" cy="0" r="24" fill="#8f9a86" stroke="#2b2b33" stroke-width="3.8"/>
      <path d="M -24 -8 q -10 -4 -12 4 q 4 8 14 4 z M 24 -8 q 10 -4 12 4 q -4 8 -14 4 z" fill="#e8dcc8" stroke="#2b2b33" stroke-width="2.6"/>
      <ellipse cx="1" cy="7" rx="16" ry="14" fill="#e8dcc8"/>
      <circle cx="-21" cy="-4" r="8" fill="#8f9a86" stroke="#2b2b33" stroke-width="3"/>
      <circle cx="21" cy="-4" r="8" fill="#8f9a86" stroke="#2b2b33" stroke-width="3"/>
      <path d="M -8 -22 q -2 -12 6 -14 q 8 0 6 12 M 4 -23 q 4 -10 10 -8 q 6 4 0 12" fill="#8f9a86" stroke="#2b2b33" stroke-width="2.6"/>
      <g transform="translate(1 -1)"><g class="anim-blink"><circle cx="0" cy="0" r="6.4799999999999995" fill="#6b4a2f"/><circle cx="1.7999999999999998" cy="-2.16" r="2.16" fill="#fff"/></g></g>
      <g transform="translate(1 9)"><path d="M -6 1.2 q 6 6 12 0" stroke="#2b2b33" stroke-width="1.7999999999999998" fill="none" stroke-linecap="round"/></g>
    </g>
    </g>
    </g>
  </g>
   <g transform="translate(820 850) scale(1.275 1.275)">
    <ellipse cx="0" cy="64" rx="44" ry="9" fill="#2b2b33" opacity="0.10"/>
    <g class="tap-target" data-tap="hen" data-mood="happy">
    <g class="anim-idle" style="animation-delay:1.17s">
    <path d="M -14 44 l -4 18 M 14 44 l 4 18 M -22 60 h 16 M 8 60 h 16" stroke="#d9a05b" stroke-width="5" stroke-linecap="round"/>
    <g class="anim-tail" style="animation-delay:1.17s"><path d="M -40 -6 q -26 -26 -18 -46 q 16 2 24 20 q -18 2 -6 26 z M -34 4 q -34 -14 -34 -36 q 18 -4 30 16 z" fill="#a3542f" stroke="#2b2b33" stroke-width="4"/></g>
    <ellipse cx="0" cy="14" rx="46" ry="38" fill="#c96f45" stroke="#2b2b33" stroke-width="4.5"/>
    <path d="M -8 -2 q 26 -8 36 12 q -8 22 -34 16 z" fill="#e0966c" stroke="#2b2b33" stroke-width="3.4"/>
    <g transform="translate(24 -34)">
      <circle cx="0" cy="0" r="22" fill="#c96f45" stroke="#2b2b33" stroke-width="4.5"/>
      <path d="M -12 -18 q -2 -12 8 -12 q 2 8 -2 12 q 10 -8 16 0 q -4 8 -12 8" fill="#d94f43" stroke="#2b2b33" stroke-width="3"/>
      <path d="M 18 0 l 20 6 l -18 8 z" fill="#d9a05b" stroke="#2b2b33" stroke-width="3"/>
      <path d="M 16 12 q 4 6 0 10" fill="#d94f43" stroke="#2b2b33" stroke-width="2.6"/>
      <g transform="translate(-2 -4)"><g class="anim-blink"><circle cx="0" cy="0" r="6.3" fill="#6b4a2f"/><circle cx="1.75" cy="-2.0999999999999996" r="2.0999999999999996" fill="#fff"/></g></g>
    </g>
    </g>
    </g>
  </g>
   <g transform="translate(1000 690) scale(-1.125 1.125)">
    <ellipse cx="0" cy="118" rx="58" ry="11" fill="#2b2b33" opacity="0.10"/>
    <g class="tap-target" data-tap="ostrich" data-mood="happy">
    <g class="anim-idle" style="animation-delay:0.83s">
    <g transform="translate(-20 26) rotate(0)"><rect x="-5" y="0" width="10" height="88" rx="5" fill="#e9ddc8" stroke="#2b2b33" stroke-width="3.4"/><path d="M -8 84 l 10 12 l 8 -12" fill="none" stroke="#2b2b33" stroke-width="5" stroke-linecap="round"/></g><g transform="translate(18 26) rotate(0)"><rect x="-5" y="0" width="10" height="88" rx="5" fill="#e9ddc8" stroke="#2b2b33" stroke-width="3.4"/><path d="M -8 84 l 10 12 l 8 -12" fill="none" stroke="#2b2b33" stroke-width="5" stroke-linecap="round"/></g>
    <ellipse cx="-6" cy="0" rx="62" ry="46" fill="#33333d" stroke="#2b2b33" stroke-width="5"/>
    <g class="anim-tail" style="animation-delay:0.83s">
    <path d="M -58 -18 q -22 -4 -30 12 q 14 12 32 4 z M -52 6 q -22 0 -28 16 q 16 10 32 0 z" fill="#f4efe4" stroke="#2b2b33" stroke-width="4"/>
  </g>
    <path d="M 34 -22 q 10 -66 22 -92 l 22 4 q -4 34 -18 94 z" fill="#e9ddc8" stroke="#2b2b33" stroke-width="4.5"/>
    <g transform="translate(72 -122)">
      <ellipse cx="0" cy="0" rx="26" ry="22" fill="#e9ddc8" stroke="#2b2b33" stroke-width="4.5"/>
      <path d="M 20 0 l 26 6 l -24 10 z" fill="#d9a05b" stroke="#2b2b33" stroke-width="3.4"/>
      <g transform="translate(0 -4)"><g class="anim-blink"><circle cx="0" cy="0" r="7.6499999999999995" fill="#6b4a2f"/><circle cx="2.125" cy="-2.55" r="2.55" fill="#fff"/></g></g>
      <path d="M -14 -18 q 2 -10 10 -10 M 0 -20 q 4 -8 10 -6" stroke="#2b2b33" stroke-width="3.4" fill="none" stroke-linecap="round"/>
    </g>
    </g>
    </g>
  </g>
   <g transform="translate(1200 790) scale(-1.2000000000000002 1.2000000000000002)">
    <ellipse cx="0" cy="66" rx="42" ry="9" fill="#2b2b33" opacity="0.10"/>
    <g class="tap-target" data-tap="monkey" data-mood="happy">
    <g class="anim-idle" style="animation-delay:1.65s">
    <g class="anim-tail" style="animation-delay:1.65s">
    <path d="M -30 30 q -44 4 -48 -34 q 0 -14 12 -10 q 2 26 34 30 z" fill="#8f9a86" stroke="#2b2b33" stroke-width="4"/>
  </g>
    <ellipse cx="0" cy="16" rx="38" ry="42" fill="#8f9a86" stroke="#2b2b33" stroke-width="4.5"/>
    <ellipse cx="4" cy="26" rx="20" ry="24" fill="#e8dcc8"/>
    <g transform="translate(-24 -14) rotate(150)"><rect x="-6" y="0" width="12" height="52" rx="6" fill="#8f9a86" stroke="#2b2b33" stroke-width="3.4"/><circle cx="0" cy="54" r="8" fill="#e8dcc8" stroke="#2b2b33" stroke-width="3"/></g><g transform="translate(24 -14) rotate(-150)"><rect x="-6" y="0" width="12" height="52" rx="6" fill="#8f9a86" stroke="#2b2b33" stroke-width="3.4"/><circle cx="0" cy="54" r="8" fill="#e8dcc8" stroke="#2b2b33" stroke-width="3"/></g>
    
    <g transform="translate(-14 52)"><rect x="-6" y="0" width="12" height="24" rx="6" fill="#8f9a86" stroke="#2b2b33" stroke-width="3.4"/></g>
    <g transform="translate(16 52)"><rect x="-6" y="0" width="12" height="24" rx="6" fill="#8f9a86" stroke="#2b2b33" stroke-width="3.4"/></g>
    <g transform="translate(0 -30)">
      <circle cx="0" cy="0" r="26" fill="#8f9a86" stroke="#2b2b33" stroke-width="4.5"/>
      <ellipse cx="2" cy="6" rx="17" ry="15" fill="#e8dcc8"/>
      <circle cx="-24" cy="-4" r="9" fill="#8f9a86" stroke="#2b2b33" stroke-width="3.4"/>
      <circle cx="24" cy="-4" r="9" fill="#8f9a86" stroke="#2b2b33" stroke-width="3.4"/>
      <g transform="translate(2 0)"><g class="anim-blink"><circle cx="0" cy="0" r="6.75" fill="#6b4a2f"/><circle cx="1.875" cy="-2.25" r="2.25" fill="#fff"/></g></g>
      <g transform="translate(2 8)"><path d="M -6 1.2 q 6 6 12 0" stroke="#2b2b33" stroke-width="1.7999999999999998" fill="none" stroke-linecap="round"/></g>
      <g transform="translate(-20 -52)"><ellipse cx="0" cy="-8" rx="5" ry="8" fill="#e78fb3" transform="rotate(0)"/><ellipse cx="0" cy="-8" rx="5" ry="8" fill="#e78fb3" transform="rotate(72)"/><ellipse cx="0" cy="-8" rx="5" ry="8" fill="#e78fb3" transform="rotate(144)"/><ellipse cx="0" cy="-8" rx="5" ry="8" fill="#e78fb3" transform="rotate(216)"/><ellipse cx="0" cy="-8" rx="5" ry="8" fill="#e78fb3" transform="rotate(288)"/><circle cx="0" cy="0" r="5" fill="#f9d976"/></g>
    </g>
    </g>
    </g>
  </g>
   <g transform="translate(920 900) scale(1.35)">
    <g class="tap-target" data-tap="chick">
    <g class="anim-idle" style="animation-delay:1.00s; animation-duration: 1.6s">
    <path d="M -6 26 l -2 8 M 6 26 l 2 8 M -12 33 h 12 M 2 33 h 12" stroke="#d9a05b" stroke-width="3.4" stroke-linecap="round"/>
    <circle cx="0" cy="6" r="20" fill="#f4d35e" stroke="#2b2b33" stroke-width="3.4"/>
    <path d="M -18 4 q -10 2 -12 10 q 8 4 14 -2 z" fill="#e9bc38" stroke="#2b2b33" stroke-width="2.6"/>
    <circle cx="8" cy="-14" r="13" fill="#f4d35e" stroke="#2b2b33" stroke-width="3.4"/>
    <path d="M 19 -14 l 12 4 l -11 5 z" fill="#d9a05b" stroke="#2b2b33" stroke-width="2.4"/>
    <path d="M 2 -26 q 2 -8 8 -6" stroke="#2b2b33" stroke-width="2.6" fill="none" stroke-linecap="round"/>
    <g transform="translate(6 -16)"><g class="anim-blink"><circle cx="0" cy="0" r="4.5" fill="#6b4a2f"/><circle cx="1.25" cy="-1.5" r="1.5" fill="#fff"/></g></g>
    </g>
    </g>
  </g>
</svg>
